<svg id="Layer_1" data-name="Layer 1" xmlns="http://www.w3.org/2000/svg" viewBox="0 0 120.08 117.28">
  <defs>
    <style>
      .cls-1 {
        opacity: 0.3;
      }

      .cls-2 {
        fill: #3e6669;
      }

      .cls-3 {
        fill: #c84030;
      }

      .cls-4 {
        fill: #8a1c14;
      }

      .cls-5 {
        fill: #efcfa3;
      }

      .cls-6 {
        fill: #939598;
      }

      .cls-7 {
        fill: #6d6e71;
      }

      .cls-8 {
        fill: #a7a9ac;
      }

      .cls-9 {
        fill: #8ccccb;
      }

      .cls-10 {
        fill: #e09d38;
      }

      .cls-11 {
        fill: #ffc654;
      }

      .cls-12 {
        fill: #ffec7a;
      }

      .cls-13 {
        fill: #fbe979;
      }

      .cls-14 {
        fill: #d8d1c7;
      }

      .cls-15, .cls-44 {
        fill: #a39c95;
      }

      .cls-16 {
        fill: #e6e1dd;
      }

      .cls-17 {
        fill: #cc934c;
      }

      .cls-18 {
        fill: #544540;
      }

      .cls-19 {
        fill: #685750;
      }

      .cls-20 {
        fill: #836e69;
      }

      .cls-21 {
        fill: #403531;
      }

      .cls-22 {
        fill: #362c29;
      }

      .cls-23 {
        fill: #574943;
      }

      .cls-24 {
        fill: #211a1a;
      }

      .cls-25, .cls-51 {
        fill: #0a0808;
      }

      .cls-26 {
        fill: #f2b63d;
      }

      .cls-27 {
        fill: #fa5c52;
      }

      .cls-28 {
        fill: #f4efe9;
      }

      .cls-29 {
        fill: #d1d1d1;
      }

      .cls-30 {
        fill: #e0dedc;
      }

      .cls-31 {
        fill: #ab281f;
      }

      .cls-32, .cls-43, .cls-63 {
        fill: #fff;
      }

      .cls-33 {
        fill: #736656;
      }

      .cls-34 {
        fill: #a39685;
      }

      .cls-35 {
        fill: #5e4439;
      }

      .cls-36 {
        fill: #b5afa7;
      }

      .cls-37 {
        fill: #ede8e3;
      }

      .cls-38 {
        fill: #29617d;
      }

      .cls-39 {
        fill: #17435c;
      }

      .cls-40 {
        fill: #275c78;
      }

      .cls-41 {
        fill: #4290b8;
      }

      .cls-42 {
        fill: #377691;
      }

      .cls-43, .cls-44 {
        opacity: 0.7;
      }

      .cls-45 {
        fill: #65c6e5;
      }

      .cls-46 {
        fill: #c79e64;
      }

      .cls-47 {
        fill: #de822b;
      }

      .cls-48 {
        fill: #ef8f2d;
      }

      .cls-49 {
        fill: #fdbd6f;
      }

      .cls-50 {
        fill: #d66b24;
      }

      .cls-51 {
        opacity: 0.2;
      }

      .cls-52 {
        fill: #bfb2a0;
      }

      .cls-53 {
        fill: #c7ae87;
      }

      .cls-54 {
        fill: #d9be93;
      }

      .cls-55 {
        fill: #f7edd4;
      }

      .cls-56 {
        fill: #efc58b;
      }

      .cls-57 {
        fill: #7d4a5a;
      }

      .cls-58 {
        fill: #428aa8;
      }

      .cls-59 {
        opacity: 0.1;
      }

      .cls-60 {
        fill: #d7b37f;
      }

      .cls-61 {
        fill: #6a7147;
      }

      .cls-62 {
        fill: #303320;
      }

      .cls-63 {
        opacity: 0.4;
      }
    </style>
  </defs>
  <g>
    <g>
      <polygon class="cls-1" points="56.51 67.74 13.48 92.58 5.46 100.71 5.47 108.74 19.37 108.75 33.47 104.12 76.5 79.28 56.51 67.74"/>
      <polygon class="cls-2" points="16.93 99.24 16.94 104.96 26.85 104.97 37.52 101.46 75.84 79.34 61.32 70.96 23.01 93.08 16.93 99.24"/>
      <polygon class="cls-3" points="56.21 62.1 56.21 59.32 56.65 59.32 75.84 70.4 73.45 71.73 56.21 62.1"/>
      <polygon class="cls-4" points="56.51 59.56 56.51 61.63 55.3 63.76 19.43 83.71 12.14 91.82 11.59 98.15 5.81 98.15 5.81 90.74 13.96 82.2 36.58 69.22 38.33 69.69 55.64 59.7 56.51 59.56"/>
      <polygon class="cls-5" points="10.87 91.41 10.88 98.81 23.7 98.82 37.5 94.29 75.28 72.47 56.51 61.63 18.72 83.45 10.87 91.41"/>
      <g>
        <polygon class="cls-6" points="12.53 92.74 15.47 94.3 15.42 95.31 12.53 93.64 12.53 92.74"/>
        <polygon class="cls-7" points="16.08 93.71 15.42 94.41 15.42 95.31 20.06 92.64 20.06 91.73 16.08 93.71"/>
        <polygon class="cls-8" points="17.17 90.06 20.06 91.73 15.42 94.41 12.53 92.74 17.17 90.06"/>
      </g>
      <g>
        <polygon class="cls-6" points="16.86 95.23 19.8 96.79 19.75 97.81 16.86 96.14 16.86 95.23"/>
        <polygon class="cls-7" points="20.4 96.2 19.75 96.91 19.75 97.81 24.39 95.13 24.39 94.23 20.4 96.2"/>
        <polygon class="cls-8" points="21.5 92.56 24.39 94.23 19.75 96.91 16.86 95.23 21.5 92.56"/>
      </g>
      <polygon class="cls-1" points="18.43 88.08 29.48 94.46 32.57 94.46 44.59 87.52 44.59 85.73 33.53 79.35 30.45 79.35 18.43 86.29 18.43 88.08"/>
      <polygon class="cls-9" points="76.5 70.4 56.51 58.86 38.03 69.53 36.33 69.03 13.48 82.22 5.46 90.36 5.47 98.38 6.33 97.89 6.32 90.49 14.17 82.52 36.94 69.38 38.67 69.87 56.51 59.56 75.28 70.4 76.5 70.4"/>
      <g>
        <g>
          <polygon class="cls-10" points="55.6 63.49 57.64 62.31 57.64 57.49 54.43 58 55.6 63.49"/>
          <polygon class="cls-11" points="55.6 63.49 54.43 62.81 54.43 58 56.35 57.73 55.6 58.67 55.6 63.49"/>
          <polygon class="cls-12" points="55.6 58.67 54.43 58 56.47 56.82 57.64 57.49 55.6 58.67"/>
        </g>
        <g>
          <polygon class="cls-10" points="55.95 58.18 56.78 57.7 61.55 38.43 60.05 38.52 55.95 58.18"/>
          <polygon class="cls-11" points="55.95 58.18 55.28 57.79 60.05 38.52 60.82 38.56 60.72 38.91 55.95 58.18"/>
          <polygon class="cls-13" points="60.72 38.91 60.05 38.52 60.88 38.04 61.55 38.43 60.72 38.91"/>
        </g>
      </g>
      <g>
        <polygon class="cls-1" points="57.3 64.43 70.44 72.02 61.12 77.4 47.97 69.81 57.3 64.43"/>
        <g>
          <polygon class="cls-6" points="49.39 68.35 61.06 74.54 60.87 76.53 49.39 69.89 49.39 68.35"/>
          <polygon class="cls-7" points="63.47 72.2 60.87 74.98 60.87 76.53 69.02 71.82 69.02 70.28 63.47 72.2"/>
          <polygon class="cls-8" points="57.54 63.65 69.02 70.28 60.87 74.98 49.39 68.35 57.54 63.65"/>
        </g>
        <g>
          <polygon class="cls-14" points="47.97 67.6 61.33 74.68 61.12 75.8 47.97 68.21 47.97 67.6"/>
          <polygon class="cls-15" points="70.44 69.81 70.44 70.41 61.12 75.8 61.12 75.19 64.08 72 70.44 69.81"/>
          <polygon class="cls-16" points="57.3 62.22 70.44 69.81 61.12 75.19 47.97 67.6 57.3 62.22"/>
        </g>
      </g>
      <g>
        <g>
          <polygon class="cls-17" points="73.22 73.66 75.25 72.48 75.25 67.67 72.04 68.17 73.22 73.66"/>
          <polygon class="cls-11" points="73.22 73.66 72.04 72.99 72.04 68.17 73.97 67.9 73.22 68.84 73.22 73.66"/>
          <polygon class="cls-12" points="73.22 68.84 72.04 68.17 74.08 66.99 75.25 67.67 73.22 68.84"/>
        </g>
        <g>
          <polygon class="cls-10" points="73.57 68.35 74.4 67.87 79.17 48.6 77.67 48.69 73.57 68.35"/>
          <polygon class="cls-11" points="73.57 68.35 72.9 67.96 77.67 48.69 78.44 48.73 78.34 49.08 73.57 68.35"/>
          <polygon class="cls-13" points="78.34 49.08 77.67 48.69 78.5 48.21 79.17 48.6 78.34 49.08"/>
        </g>
      </g>
      <g>
        <g>
          <g>
            <polygon class="cls-11" points="68.13 46.39 67.42 45.98 67.42 42.76 68.47 42.98 68.13 46.39"/>
            <polygon class="cls-12" points="68.13 43.17 67.42 42.76 69.71 41.44 70.42 41.85 68.13 43.17"/>
            <polygon class="cls-10" points="70.42 41.85 68.13 43.17 68.13 46.39 68.8 46.78 69.75 46.23 70.42 45.07 70.42 41.85"/>
          </g>
          <g>
            <polygon class="cls-18" points="68.92 45.91 68.7 45.79 68.7 45.24 69.1 45.27 68.92 45.91"/>
            <polygon class="cls-19" points="68.92 45.37 68.7 45.24 69.04 44.66 69.73 44.51 68.92 45.37"/>
            <polygon class="cls-20" points="69.26 44.79 69.04 44.66 69.51 44.38 69.73 44.51 69.26 44.79"/>
            <polygon class="cls-21" points="70.07 44.71 69.73 44.51 69.26 44.79 68.92 45.37 68.92 45.91 69.26 46.11 69.73 45.83 70.07 45.25 70.07 44.71"/>
          </g>
        </g>
        <g>
          <g>
            <polygon class="cls-14" points="69.7 51 69.34 50.8 69.01 49.52 70.81 48.9 69.7 51"/>
            <polygon class="cls-15" points="70.48 50.55 69.7 51 69.37 49.73 70.81 48.9 70.48 50.55"/>
            <polygon class="cls-16" points="69.37 49.73 69.01 49.52 70.45 48.69 70.81 48.9 69.37 49.73"/>
          </g>
          <g>
            <polygon class="cls-22" points="70.2 51.55 69.92 51.39 69.92 50.15 70.2 50.31 70.26 51.11 70.2 51.55"/>
            <polygon class="cls-23" points="70.2 50.31 69.92 50.15 70.27 49.95 70.55 50.12 70.46 50.37 70.2 50.31"/>
            <polygon class="cls-23" points="70 51.66 69.72 51.5 69.92 51.39 70.2 51.55 70.1 51.7 70 51.66"/>
            <polygon class="cls-22" points="70.57 52.91 70.41 52.88 70.28 52.75 70.63 52.15 70.91 52.31 70.81 52.66 70.57 52.91"/>
            <polygon class="cls-23" points="70.15 53.15 69.81 53.02 70.28 52.75 70.57 52.91 70.47 53.06 70.15 53.15"/>
            <polygon class="cls-22" points="69.5 52.53 69.22 52.37 69.72 51.5 70 51.66 69.84 52.08 69.5 52.53"/>
            <polygon class="cls-24" points="69.5 53.35 69.22 53.19 69.22 52.37 69.5 52.53 69.57 52.89 69.5 53.35"/>
            <polygon class="cls-25" points="70.91 52.31 70.57 52.91 70.15 53.15 69.86 52.98 69.86 52.5 70.15 51.99 70.55 51.76 70.55 50.12 70.2 50.31 70.2 51.55 70 51.66 69.5 52.53 69.5 53.35 70 53.64 70.71 53.23 71.16 52.45 70.91 52.31"/>
          </g>
          <rect class="cls-21" x="70.09" y="46.43" width="0.34" height="3.63"/>
          <g>
            <polygon class="cls-14" points="70.39 51.4 70.03 51.2 69.7 49.92 71.5 49.29 70.39 51.4"/>
            <polygon class="cls-15" points="71.17 50.95 70.39 51.4 70.06 50.13 71.5 49.29 71.17 50.95"/>
            <polygon class="cls-16" points="70.06 50.13 69.7 49.92 71.14 49.09 71.5 49.29 70.06 50.13"/>
          </g>
        </g>
        <g>
          <g>
            <path class="cls-3" d="M247.39,226.18v1.59l.32.18.81.29H249l.56-.31.65-.62L251,226v-1.47l-.9-.64-.32-.18-1.37.79Zm.79-.52.31-.46v.29l-.17.3-.17.1Zm2.22-.08-.25.14-.17-.1.32-.43.28-.2v.29Zm-.78,1,.18-.3.24-.15.18.11v.28l-.18.31-.24.14-.18-.1Zm.29-2,.14-.2.17-.09v.29l-.18.3-.24.15v-.16Zm-.73,2.52.18.1v.28l-.18.31-.25.14Zm-.42-2.23.3-.23.3-.19v.22l-.18.3-.25.14-.17-.1Zm-.87,3,.31-.39.29-.24v.29l-.17.3-.25.14Zm.07-1.52.17.1v.29l-.17.3-.17.1Z" transform="translate(-179.82 -180.88)"/>
            <path class="cls-4" d="M247.71,226.36V228l1,.57,1.37-.8,1-1.69v-1.59l-1-.56-1.37.8Zm1.1-1v.29l-.17.3-.25.15-.17-.1v-.29l.17-.3.25-.15Zm1.91.39-.25.14-.17-.1v-.29l.17-.3.25-.14.18.1v.29Zm-.78,1,.18-.3.25-.15.17.1v.29l-.17.3-.25.14-.18-.1Zm0-2,.18-.3.25-.14.17.1v.29l-.17.3-.25.14-.18-.1Zm-.86,2.91.17-.31.25-.14.18.1v.29l-.18.3-.25.15-.17-.11Zm0-2.82.17-.3.25-.15.18.1v.29l-.18.3-.25.15-.17-.11Zm-.86,3.19v-.29l.17-.3.25-.14.17.1v.28l-.17.31-.25.14Zm-.37-1.08.18-.3.25-.14.17.1v.29l-.17.3-.25.14-.18-.1Z" transform="translate(-179.82 -180.88)"/>
          </g>
          <polygon class="cls-21" points="69.67 46.24 69.34 46.15 52.58 70.04 52.91 70.14 69.67 46.24"/>
          <g>
            <polygon class="cls-18" points="70.33 47.17 68.75 46.27 68.75 45.45 70.59 46.21 70.33 47.17"/>
            <polygon class="cls-19" points="70.33 46.35 68.75 45.45 69.26 44.57 71.55 45.07 70.33 46.35"/>
            <polygon class="cls-20" points="70.83 45.48 69.26 44.57 69.97 44.16 71.55 45.07 70.83 45.48"/>
            <polygon class="cls-21" points="72.05 45.36 71.55 45.07 70.83 45.48 70.33 46.35 70.33 47.17 70.83 47.46 71.55 47.05 72.05 46.18 72.05 45.36"/>
          </g>
          <g>
            <path class="cls-3" d="M249.06,227.14v1.59l.33.19.8.28h.52l.55-.31.66-.62.71-1.31v-1.47l-.89-.64-.33-.19-1.37.8Zm.79-.51.31-.47v.29l-.17.3-.17.1Zm2.22-.08-.25.14-.17-.1.32-.43.28-.2v.28Zm-.78,1,.18-.31.24-.14.18.1v.29l-.18.3-.24.14-.18-.1Zm.29-2.06.14-.2.17-.08v.28l-.18.31-.24.14v-.15Zm-.73,2.52.17.1v.29l-.17.3-.25.14Zm-.42-2.22.29-.24.3-.18v.21l-.17.3-.25.15-.17-.1Zm-.87,3,.31-.4.29-.23v.28l-.17.31-.25.14Zm.07-1.53.17.11v.28l-.17.31-.17.09Z" transform="translate(-179.82 -180.88)"/>
            <path class="cls-4" d="M249.39,227.33v1.59l1,.56,1.38-.79,1-1.69v-1.59l-1-.56-1.38.79Zm1.1-1v.29l-.18.3-.25.14-.17-.1v-.29l.17-.3.25-.14Zm1.9.38-.25.15-.17-.1v-.29l.18-.3.24-.15.18.1v.29Zm-.78,1,.18-.3.25-.14.17.1v.28l-.17.31-.25.14-.18-.1Zm0-2,.18-.3.25-.15.17.1v.29l-.17.3-.25.15-.18-.11Zm-.86,2.9.18-.3.24-.14.18.1v.28l-.18.31-.24.14-.18-.1Zm0-2.82.18-.3.24-.14.18.1v.29l-.18.3-.24.14-.18-.1Zm-.86,3.2v-.29l.17-.3.25-.15.18.1v.29l-.18.3-.25.15Zm-.36-1.08.17-.3.25-.15.18.1v.29l-.18.3-.25.15-.17-.1Z" transform="translate(-179.82 -180.88)"/>
          </g>
        </g>
        <g>
          <g>
            <polygon class="cls-11" points="70.8 47.94 70.09 47.53 70.09 44.3 71.14 44.52 70.8 47.94"/>
            <polygon class="cls-12" points="70.8 44.71 70.09 44.3 72.38 42.98 73.09 43.39 70.8 44.71"/>
            <polygon class="cls-10" points="73.09 43.39 70.8 44.71 70.8 47.94 71.47 48.32 72.42 47.78 73.09 46.61 73.09 43.39"/>
          </g>
          <g>
            <polygon class="cls-18" points="71.59 47.46 71.37 47.33 71.37 46.78 71.76 46.82 71.59 47.46"/>
            <polygon class="cls-19" points="71.59 46.91 71.37 46.78 71.7 46.2 72.4 46.06 71.59 46.91"/>
            <polygon class="cls-20" points="71.93 46.33 71.7 46.2 72.18 45.93 72.4 46.06 71.93 46.33"/>
            <polygon class="cls-21" points="72.74 46.25 72.4 46.06 71.93 46.33 71.59 46.91 71.59 47.46 71.93 47.65 72.4 47.38 72.74 46.8 72.74 46.25"/>
          </g>
        </g>
      </g>
      <g>
        <g>
          <polygon class="cls-6" points="46.91 73.84 52.74 76.94 52.65 78.02 46.91 74.7 46.91 73.84"/>
          <polygon class="cls-7" points="53.95 75.77 52.65 77.16 52.65 78.02 56.73 75.66 56.73 74.81 53.95 75.77"/>
          <polygon class="cls-8" points="50.98 71.49 56.73 74.81 52.65 77.16 46.91 73.84 50.98 71.49"/>
        </g>
        <g>
          <polygon class="cls-1" points="52.26 76.03 48.85 74.07 51.37 72.61 54.78 74.58 52.26 76.03"/>
          <g>
            <g>
              <polygon class="cls-26" points="49.56 74.48 48.85 74.07 48.85 70.79 49.94 70.99 49.56 74.48"/>
              <polygon class="cls-11" points="49.56 71.2 48.85 70.79 49.59 69.51 51.34 69.32 49.56 71.2"/>
              <polygon class="cls-12" points="50.3 69.92 49.59 69.51 50.63 68.91 51.34 69.32 50.3 69.92"/>
              <polygon class="cls-10" points="52.08 69.74 51.34 69.32 50.3 69.92 49.56 71.2 49.56 74.48 52.08 73.02 52.08 69.74"/>
            </g>
            <g>
              <polygon class="cls-18" points="50.43 71.77 50.19 71.63 50.19 71.03 50.62 71.07 50.43 71.77"/>
              <polygon class="cls-19" points="50.43 71.17 50.19 71.03 50.56 70.39 51.32 70.23 50.43 71.17"/>
              <polygon class="cls-20" points="50.8 70.54 50.56 70.39 51.08 70.09 51.32 70.23 50.8 70.54"/>
              <polygon class="cls-21" points="51.69 70.45 51.32 70.23 50.8 70.54 50.43 71.17 50.43 71.77 50.8 71.99 51.32 71.69 51.69 71.05 51.69 70.45"/>
            </g>
          </g>
          <g>
            <g>
              <path class="cls-3" d="M229,252v1.59l.33.19.8.29h.52l.55-.32.66-.62.71-1.31v-1.47l-.89-.64-.32-.19-1.38.8Zm.79-.51.31-.46v.28l-.17.3-.17.1Zm2.22-.08-.25.14-.17-.1.32-.44.28-.19v.29Zm-.78,1,.18-.31.24-.14.18.1v.29l-.18.3-.24.15-.18-.11Zm.29-2.06.14-.2.17-.08v.28l-.18.31-.24.14v-.15Zm-.73,2.52.18.1v.29l-.18.3-.25.14Zm-.42-2.22.3-.24.3-.18v.21l-.18.3-.25.15-.17-.1Zm-.87,3,.32-.4.28-.23v.28l-.17.31-.25.14Zm.07-1.52.18.1v.28l-.18.31-.17.1Z" transform="translate(-179.82 -180.88)"/>
              <path class="cls-4" d="M229.28,252.18v1.59l1,.56,1.38-.79,1-1.69v-1.59l-1-.56-1.38.79Zm1.1-1v.29l-.18.3-.25.14-.17-.1v-.28l.17-.31.25-.14Zm1.9.38-.24.15-.18-.1v-.29l.18-.3.24-.15.18.1v.29Zm-.78,1,.18-.3.25-.14.17.1v.28l-.17.31-.25.14-.18-.1Zm0-2,.18-.3.25-.15.17.1v.29l-.17.3-.25.15-.18-.1Zm-.86,2.91.17-.31.25-.14.18.1v.28l-.18.31-.25.14-.17-.1Zm0-2.83.17-.3.25-.14.18.1v.28l-.18.31-.25.14-.17-.1Zm-.86,3.2v-.29l.17-.3.25-.15.18.1v.29l-.18.3-.25.15Zm-.36-1.08.17-.3.25-.15.18.1v.29l-.18.3-.25.15-.17-.11Z" transform="translate(-179.82 -180.88)"/>
            </g>
            <g>
              <polygon class="cls-18" points="51.12 73.69 49.58 72.8 49.58 71.31 51.59 71.93 51.12 73.69"/>
              <polygon class="cls-19" points="51.12 72.19 49.58 71.31 50.49 69.72 53.33 69.86 51.12 72.19"/>
              <polygon class="cls-20" points="52.03 70.61 50.49 69.72 51.78 68.98 53.33 69.86 52.03 70.61"/>
              <polygon class="cls-21" points="54.24 70.39 53.33 69.86 52.03 70.61 51.12 72.19 51.12 73.69 52.03 74.21 53.33 73.47 54.24 71.88 54.24 70.39"/>
            </g>
            <g>
              <path class="cls-3" d="M230.63,253v1.59l.32.18.8.29h.52l.55-.31.66-.62.71-1.32V251.3l-.89-.64-.32-.18-1.38.79Zm.78-.52.31-.46v.29l-.17.3-.17.1Zm2.22-.07-.24.13-.18-.1.32-.43.28-.2v.29Zm-.78.95.18-.3.25-.15.17.11v.28l-.17.31-.25.14-.18-.1Zm.29-2,.14-.2.17-.09v.29l-.17.3-.25.15v-.15Zm-.73,2.52.18.1v.29l-.18.3-.24.14Zm-.42-2.22.3-.24.3-.18v.21l-.18.3-.24.14-.18-.1Zm-.86,3,.3-.39.29-.24v.29l-.17.3-.25.15Zm.06-1.52.18.1v.29l-.18.3-.17.1Z" transform="translate(-179.82 -180.88)"/>
              <path class="cls-4" d="M231,253.14v1.59l1,.57,1.38-.8,1-1.69v-1.58l-1-.57-1.38.8Zm1.1-1v.28l-.18.3-.25.15-.17-.1v-.29l.17-.3.25-.14Zm1.9.38-.24.14-.18-.1v-.28l.18-.31.24-.14.18.1v.29Zm-.78,1,.18-.31.25-.14.17.1v.29l-.17.3-.25.15-.18-.11Zm0-2,.18-.3.25-.14.17.1v.29l-.17.3-.25.14-.18-.1Zm-.86,2.91.18-.3.24-.15.18.1v.29l-.18.3-.24.15-.18-.1Zm0-2.82.18-.3.24-.15.18.11v.28l-.18.3-.24.15-.18-.1Zm-.86,3.19v-.29l.17-.3.25-.14.18.1v.29l-.18.3-.25.14Zm-.36-1.08.17-.3.25-.14.18.1v.29l-.18.3-.25.14-.17-.1Z" transform="translate(-179.82 -180.88)"/>
            </g>
          </g>
          <g>
            <g>
              <polygon class="cls-26" points="52.26 76.03 51.56 75.63 51.56 72.34 52.64 72.55 52.26 76.03"/>
              <polygon class="cls-11" points="52.26 72.75 51.56 72.34 52.29 71.07 54.04 70.87 52.26 72.75"/>
              <polygon class="cls-12" points="53 71.48 52.29 71.07 53.33 70.46 54.04 70.87 53 71.48"/>
              <polygon class="cls-10" points="54.78 71.3 54.04 70.87 53 71.48 52.26 72.75 52.26 76.03 54.78 74.58 54.78 71.3"/>
            </g>
            <g>
              <polygon class="cls-18" points="53.13 73.33 52.89 73.19 52.89 72.59 53.32 72.63 53.13 73.33"/>
              <polygon class="cls-19" points="53.13 72.73 52.89 72.59 53.26 71.95 54.02 71.79 53.13 72.73"/>
              <polygon class="cls-20" points="53.5 72.09 53.26 71.95 53.78 71.65 54.02 71.79 53.5 72.09"/>
              <polygon class="cls-21" points="54.39 72 54.02 71.79 53.5 72.09 53.13 72.73 53.13 73.33 53.5 73.54 54.02 73.24 54.39 72.61 54.39 72"/>
            </g>
          </g>
        </g>
      </g>
      <g>
        <polygon class="cls-6" points="37.16 77.48 45.97 82.15 45.83 83.78 37.16 78.77 37.16 77.48"/>
        <polygon class="cls-7" points="47.79 80.38 45.83 82.48 45.83 83.78 51.98 80.23 51.98 78.94 47.79 80.38"/>
        <polygon class="cls-8" points="43.31 73.93 51.98 78.94 45.83 82.48 37.16 77.48 43.31 73.93"/>
      </g>
      <g>
        <polygon class="cls-10" points="78.34 49.08 78.69 49.08 79.17 48.6 80.46 47.85 80.46 46.58 60.05 37.24 78.34 49.08"/>
        <polygon class="cls-11" points="78.34 49.08 60.05 38.52 60.05 37.24 77.19 46.62 78.34 47.8 78.34 49.08"/>
        <polygon class="cls-12" points="78.34 47.8 60.05 37.24 62.17 36.02 80.46 46.58 78.34 47.8"/>
      </g>
      <polygon class="cls-2" points="5.47 98.38 16.94 104.96 30.48 100.68 75.84 79.34 76.5 72.47 76.5 70.4 75.28 70.81 57.61 80.85 55.91 80.37 33.18 93.62 19.17 98.19 6.11 98.09 5.47 98.38"/>
      <g>
        <g>
          <g>
            <polygon class="cls-27" points="38.13 93.47 38.37 93.41 38 94.36 37.36 95.16 37.3 94.92 37.83 94.26 38.13 93.47"/>
            <polygon class="cls-27" points="36.16 95.23 36.69 95.28 36.62 95.58 35.98 95.53 35.61 95 35.85 94.79 36.16 95.23"/>
            <polygon class="cls-27" points="36.62 92.4 36.69 92.64 36.16 93.3 35.85 94.09 35.61 94.15 35.98 93.2 36.62 92.4"/>
            <polygon class="cls-27" points="38 92.03 38.37 92.56 38.13 92.77 37.83 92.33 37.3 92.28 37.36 91.97 38 92.03"/>
            <polygon class="cls-14" points="37.3 94.92 37.36 95.16 36.62 95.58 36.69 95.28 37.3 94.92"/>
            <polygon class="cls-14" points="37.3 92.28 36.69 92.64 36.62 92.4 37.36 91.97 37.3 92.28"/>
            <polygon class="cls-14" points="38.37 93.41 38.13 93.47 38.13 92.77 38.37 92.56 38.37 93.41"/>
            <polygon class="cls-14" points="35.85 94.79 35.61 95 35.61 94.15 35.85 94.09 35.85 94.79"/>
          </g>
          <g>
            <polygon class="cls-28" points="38.57 93.4 38.04 93.54 38.04 92.92 38.57 92.46 38.57 93.4"/>
            <polygon class="cls-4" points="38.04 93.54 38.57 93.4 38.16 94.45 37.45 95.33 37.31 94.81 37.78 94.23 38.04 93.54"/>
            <polygon class="cls-29" points="37.46 94.8 37.29 95.02 36.99 95.07 36.78 95.12 37.31 94.81 37.46 94.8"/>
            <polygon class="cls-3" points="36.31 95.08 36.78 95.12 36.64 95.8 35.93 95.74 35.52 95.16 36.05 94.7 36.31 95.08"/>
            <polygon class="cls-29" points="35.73 94.8 35.59 95.37 35.52 95.16 35.52 94.22 35.62 94.32 35.73 94.8"/>
            <polygon class="cls-4" points="36.64 92.29 36.81 92.26 36.78 92.81 36.31 93.39 36.05 94.08 35.59 94.35 35.52 94.22 35.93 93.17 36.64 92.29"/>
            <polygon class="cls-3" points="38.16 91.88 38.57 92.46 38.04 92.92 37.78 92.54 37.31 92.5 37.45 91.82 38.16 91.88"/>
            <polygon class="cls-29" points="37.45 91.82 37.67 91.77 37.38 92.15 37.31 92.5 36.78 92.81 36.7 92.52 36.79 92.28 36.64 92.29 37.45 91.82"/>
            <polygon class="cls-29" points="38.17 93.39 38.11 93.68 38.04 93.54 38.04 92.92 38.11 93.13 38.17 93.39"/>
          </g>
          <g>
            <polygon class="cls-3" points="37.07 95.12 36.84 95.21 36.66 95.16 36.58 95.03 36.99 95.07 37.07 95.12"/>
            <polygon class="cls-3" points="38.16 92.93 38.19 93.18 38.11 93.13 37.87 92.79 38.02 92.8 38.16 92.93"/>
            <polygon class="cls-28" points="37.61 94.88 37.07 95.12 36.99 95.07 37.46 94.8 37.61 94.88"/>
            <polygon class="cls-3" points="36.11 96.04 36.03 96 35.59 95.37 35.73 95.38 36.11 96.04"/>
            <polygon class="cls-28" points="35.67 95.42 35.59 95.37 35.59 94.35 35.77 94.36 35.67 95.42"/>
            <polygon class="cls-3" points="36.79 92.28 36.98 92.31 36.23 93.34 35.67 94.4 35.59 94.35 36.03 93.22 36.79 92.28"/>
            <polygon class="cls-3" points="36.79 92.28 36.87 92.32 36.11 93.27 35.67 94.4 35.59 94.35 36.03 93.22 36.79 92.28"/>
            <polygon class="cls-28" points="38.26 93.76 38.11 93.68 38.11 93.13 38.19 93.18 38.26 93.76"/>
            <polygon class="cls-3" points="38.11 93.68 38.19 93.72 38.03 94.38 37.54 94.84 37.46 94.8 37.87 94.29 38.11 93.68"/>
            <polygon class="cls-28" points="37.81 91.85 36.87 92.32 36.79 92.28 37.67 91.77 37.81 91.85"/>
            <polygon class="cls-3" points="38.51 91.88 38.27 91.98 37.74 91.81 37.67 91.77 38.43 91.84 38.51 91.88"/>
            <polygon class="cls-30" points="37.54 94.84 37.73 95.05 37.64 95.21 37.74 95.6 36.87 96.11 37.07 95.12 37.54 94.84"/>
            <polygon class="cls-30" points="37.92 92.06 37.54 92.81 37.07 93.08 36.87 92.32 37.74 91.81 37.92 92.06"/>
            <polygon class="cls-31" points="36.87 92.32 37.05 92.53 36.98 92.75 37.07 93.08 36.66 93.59 36.26 94.59 35.67 94.4 36.11 93.27 36.87 92.32"/>
            <polygon class="cls-30" points="38.95 92.51 38.95 93.52 38.19 93.72 38.19 93.18 38.95 92.51"/>
            <polygon class="cls-31" points="37.87 92.06 37.74 91.81 38.51 91.88 38.95 92.51 38.98 92.7 38.46 93.17 38.19 93.18 37.95 92.84 37.54 92.81 37.65 92.26 37.87 92.06"/>
            <polygon class="cls-31" points="36.66 95.08 37.07 95.12 37.2 95.36 36.99 95.51 36.96 95.65 37.05 96.04 36.87 96.11 36.11 96.04 35.67 95.42 36.42 94.74 36.66 95.08"/>
            <polygon class="cls-30" points="36.42 94.74 36.46 94.94 35.94 95.4 35.67 95.42 35.67 94.4 35.94 94.46 36.42 94.74"/>
            <polygon class="cls-31" points="37.95 94.33 38.19 93.72 38.95 93.52 38.51 94.65 37.74 95.6 37.63 95.18 37.73 95.05 37.54 94.84 37.95 94.33"/>
          </g>
          <g>
            <polygon class="cls-28" points="37.93 92.29 37.86 92.58 37.73 92.74 37.2 93.05 37.05 92.53 37.87 92.06 37.93 92.29"/>
            <polygon class="cls-30" points="38.46 93.17 38.54 93.46 38.46 93.78 38.19 93.72 38.19 93.18 38.46 93.17"/>
            <polygon class="cls-28" points="38.98 92.7 38.98 93.64 38.92 93.74 38.89 93.71 38.81 93.11 38.89 92.86 38.98 92.7"/>
            <polygon class="cls-28" points="37.73 95.05 37.87 95.16 37.82 95.22 37.88 95.46 37.93 95.46 37.87 95.57 37.05 96.04 37.2 95.36 37.73 95.05"/>
            <polygon class="cls-3" points="38.19 94.47 38.46 93.78 38.89 93.71 38.98 93.64 38.58 94.69 37.87 95.57 37.88 95.46 37.82 95.38 37.81 95.34 37.82 95.22 37.73 95.05 38.19 94.47"/>
            <polygon class="cls-3" points="36.73 95.32 37.2 95.36 37.21 95.58 37.12 95.71 37.15 95.89 37.05 96.04 36.35 95.98 35.94 95.4 36.46 94.94 36.73 95.32"/>
            <polygon class="cls-28" points="36.46 94.94 36.37 95.1 36.14 95.3 35.94 95.4 35.94 94.46 36.46 94.32 36.46 94.94"/>
            <polygon class="cls-3" points="37.05 92.53 37.15 92.7 37.14 92.85 37.21 92.94 37.2 93.05 36.73 93.63 36.46 94.32 36.37 94.39 36.27 94.37 36.14 94.45 35.94 94.46 36.35 93.41 37.05 92.53"/>
            <polygon class="cls-3" points="37.84 92.43 37.88 92.28 37.87 92.06 38.58 92.12 38.98 92.7 38.89 92.86 38.8 93.23 38.46 93.17 38.19 92.78 37.73 92.74 37.82 92.58 37.84 92.43"/>
          </g>
          <g>
            <polygon class="cls-27" points="38.66 93.78 38.89 93.71 38.52 94.66 37.88 95.46 37.82 95.22 38.35 94.56 38.66 93.78"/>
            <polygon class="cls-27" points="36.68 95.53 37.21 95.58 37.15 95.89 36.51 95.83 36.14 95.3 36.37 95.1 36.68 95.53"/>
            <polygon class="cls-27" points="37.15 92.7 37.21 92.94 36.68 93.6 36.37 94.39 36.14 94.45 36.51 93.5 37.15 92.7"/>
            <polygon class="cls-27" points="38.52 92.33 38.89 92.86 38.66 93.07 38.35 92.63 37.82 92.58 37.88 92.28 38.52 92.33"/>
            <polygon class="cls-32" points="37.82 95.22 37.88 95.46 37.15 95.89 37.21 95.58 37.82 95.22"/>
            <polygon class="cls-32" points="37.82 92.58 37.21 92.94 37.15 92.7 37.88 92.28 37.82 92.58"/>
            <polygon class="cls-28" points="38.76 93.35 38.66 93.78 38.46 93.78 38.46 93.17 38.66 93.07 38.76 93.35"/>
            <polygon class="cls-32" points="38.89 93.71 38.66 93.78 38.66 93.07 38.89 92.86 38.89 93.71"/>
            <polygon class="cls-32" points="36.37 95.1 36.14 95.3 36.14 94.45 36.37 94.39 36.37 95.1"/>
          </g>
        </g>
        <g>
          <g>
            <polygon class="cls-27" points="47.45 88.1 47.68 88.04 47.31 88.99 46.67 89.78 46.61 89.55 47.14 88.89 47.45 88.1"/>
            <polygon class="cls-27" points="45.47 89.86 46 89.9 45.93 90.21 45.29 90.15 44.92 89.63 45.16 89.42 45.47 89.86"/>
            <polygon class="cls-27" points="45.93 87.03 46 87.26 45.47 87.92 45.16 88.71 44.92 88.78 45.29 87.82 45.93 87.03"/>
            <polygon class="cls-27" points="47.31 86.66 47.68 87.18 47.45 87.39 47.14 86.96 46.61 86.91 46.67 86.6 47.31 86.66"/>
            <polygon class="cls-14" points="46.61 89.55 46.67 89.78 45.93 90.21 46 89.9 46.61 89.55"/>
            <polygon class="cls-14" points="46.61 86.91 46 87.26 45.93 87.03 46.67 86.6 46.61 86.91"/>
            <polygon class="cls-14" points="47.68 88.04 47.45 88.1 47.45 87.39 47.68 87.18 47.68 88.04"/>
            <polygon class="cls-14" points="45.16 89.42 44.92 89.63 44.92 88.78 45.16 88.71 45.16 89.42"/>
          </g>
          <g>
            <polygon class="cls-28" points="47.88 88.03 47.35 88.17 47.35 87.55 47.88 87.09 47.88 88.03"/>
            <polygon class="cls-4" points="47.35 88.17 47.88 88.03 47.47 89.08 46.76 89.96 46.62 89.44 47.09 88.86 47.35 88.17"/>
            <polygon class="cls-29" points="46.77 89.42 46.6 89.65 46.3 89.7 46.09 89.75 46.62 89.44 46.77 89.42"/>
            <polygon class="cls-3" points="45.62 89.7 46.09 89.75 45.95 90.43 45.24 90.37 44.83 89.79 45.36 89.32 45.62 89.7"/>
            <polygon class="cls-29" points="45.04 89.43 44.9 90 44.83 89.79 44.83 88.84 44.93 88.94 45.04 89.43"/>
            <polygon class="cls-4" points="45.95 86.92 46.13 86.89 46.09 87.44 45.62 88.01 45.36 88.7 44.9 88.98 44.83 88.84 45.24 87.79 45.95 86.92"/>
            <polygon class="cls-3" points="47.47 86.51 47.88 87.09 47.35 87.55 47.09 87.17 46.62 87.13 46.76 86.44 47.47 86.51"/>
            <polygon class="cls-29" points="46.76 86.44 46.98 86.4 46.69 86.78 46.62 87.13 46.09 87.44 46.01 87.15 46.1 86.9 45.95 86.92 46.76 86.44"/>
            <polygon class="cls-29" points="47.48 88.02 47.42 88.31 47.35 88.17 47.35 87.55 47.42 87.76 47.48 88.02"/>
          </g>
          <g>
            <polygon class="cls-3" points="46.38 89.74 46.15 89.84 45.97 89.78 45.89 89.66 46.3 89.7 46.38 89.74"/>
            <polygon class="cls-3" points="47.47 87.55 47.5 87.81 47.42 87.76 47.18 87.42 47.33 87.43 47.47 87.55"/>
            <polygon class="cls-28" points="46.92 89.51 46.38 89.74 46.3 89.7 46.77 89.42 46.92 89.51"/>
            <polygon class="cls-3" points="45.42 90.67 45.34 90.62 44.9 90 45.04 90.01 45.42 90.67"/>
            <polygon class="cls-28" points="44.98 90.04 44.9 90 44.9 88.98 45.08 88.98 44.98 90.04"/>
            <polygon class="cls-3" points="46.1 86.9 46.29 86.94 45.54 87.97 44.98 89.03 44.9 88.98 45.34 87.85 46.1 86.9"/>
            <polygon class="cls-3" points="46.1 86.9 46.18 86.95 45.42 87.9 44.98 89.03 44.9 88.98 45.34 87.85 46.1 86.9"/>
            <polygon class="cls-28" points="47.57 88.39 47.42 88.31 47.42 87.76 47.5 87.81 47.57 88.39"/>
            <polygon class="cls-3" points="47.42 88.31 47.5 88.35 47.34 89.01 46.85 89.47 46.77 89.42 47.18 88.92 47.42 88.31"/>
            <polygon class="cls-28" points="47.12 86.48 46.18 86.95 46.1 86.9 46.98 86.4 47.12 86.48"/>
            <polygon class="cls-3" points="47.82 86.51 47.58 86.61 47.06 86.44 46.98 86.4 47.74 86.46 47.82 86.51"/>
            <polygon class="cls-30" points="46.85 89.47 47.04 89.68 46.95 89.84 47.06 90.23 46.18 90.73 46.38 89.74 46.85 89.47"/>
            <polygon class="cls-30" points="47.23 86.69 46.85 87.43 46.38 87.71 46.18 86.95 47.06 86.44 47.23 86.69"/>
            <polygon class="cls-31" points="46.18 86.95 46.37 87.16 46.29 87.38 46.38 87.71 45.97 88.21 45.57 89.22 44.98 89.03 45.42 87.9 46.18 86.95"/>
            <polygon class="cls-30" points="48.26 87.13 48.26 88.15 47.5 88.35 47.5 87.81 48.26 87.13"/>
            <polygon class="cls-31" points="47.18 86.69 47.06 86.44 47.82 86.51 48.26 87.13 48.3 87.33 47.77 87.79 47.5 87.81 47.26 87.47 46.85 87.43 46.96 86.89 47.18 86.69"/>
            <polygon class="cls-31" points="45.97 89.71 46.38 89.74 46.51 89.99 46.3 90.14 46.27 90.28 46.37 90.67 46.18 90.73 45.42 90.67 44.98 90.04 45.73 89.37 45.97 89.71"/>
            <polygon class="cls-30" points="45.73 89.37 45.77 89.56 45.25 90.03 44.98 90.04 44.98 89.03 45.25 89.08 45.73 89.37"/>
            <polygon class="cls-31" points="47.26 88.96 47.5 88.35 48.26 88.15 47.82 89.28 47.06 90.23 46.95 89.81 47.04 89.68 46.85 89.47 47.26 88.96"/>
          </g>
          <g>
            <polygon class="cls-28" points="47.24 86.92 47.17 87.2 47.04 87.37 46.51 87.68 46.37 87.16 47.18 86.69 47.24 86.92"/>
            <polygon class="cls-30" points="47.77 87.79 47.85 88.08 47.77 88.41 47.5 88.35 47.5 87.81 47.77 87.79"/>
            <polygon class="cls-28" points="48.3 87.33 48.3 88.27 48.23 88.37 48.2 88.34 48.12 87.74 48.2 87.49 48.3 87.33"/>
            <polygon class="cls-28" points="47.04 89.68 47.18 89.79 47.13 89.85 47.19 90.09 47.24 90.09 47.18 90.2 46.37 90.67 46.51 89.99 47.04 89.68"/>
            <polygon class="cls-3" points="47.5 89.1 47.77 88.41 48.2 88.34 48.3 88.27 47.89 89.32 47.18 90.2 47.19 90.09 47.13 90 47.12 89.96 47.13 89.85 47.04 89.68 47.5 89.1"/>
            <polygon class="cls-3" points="46.04 89.94 46.51 89.99 46.52 90.2 46.44 90.33 46.46 90.51 46.37 90.67 45.66 90.61 45.25 90.03 45.77 89.56 46.04 89.94"/>
            <polygon class="cls-28" points="45.77 89.56 45.68 89.72 45.45 89.93 45.25 90.03 45.25 89.08 45.77 88.95 45.77 89.56"/>
            <polygon class="cls-3" points="46.37 87.16 46.46 87.33 46.45 87.48 46.52 87.56 46.51 87.68 46.04 88.25 45.77 88.95 45.68 89.01 45.58 89 45.45 89.08 45.25 89.08 45.66 88.03 46.37 87.16"/>
            <polygon class="cls-3" points="47.15 87.06 47.19 86.9 47.18 86.69 47.89 86.75 48.3 87.33 48.2 87.49 48.12 87.86 47.77 87.79 47.5 87.41 47.04 87.37 47.13 87.21 47.15 87.06"/>
          </g>
          <g>
            <polygon class="cls-27" points="47.97 88.4 48.2 88.34 47.83 89.29 47.19 90.09 47.13 89.85 47.66 89.19 47.97 88.4"/>
            <polygon class="cls-27" points="45.99 90.16 46.52 90.2 46.46 90.51 45.82 90.46 45.45 89.93 45.68 89.72 45.99 90.16"/>
            <polygon class="cls-27" points="46.46 87.33 46.52 87.56 45.99 88.23 45.68 89.01 45.45 89.08 45.82 88.13 46.46 87.33"/>
            <polygon class="cls-27" points="47.83 86.96 48.2 87.49 47.97 87.69 47.66 87.26 47.13 87.21 47.19 86.9 47.83 86.96"/>
            <polygon class="cls-32" points="47.13 89.85 47.19 90.09 46.46 90.51 46.52 90.2 47.13 89.85"/>
            <polygon class="cls-32" points="47.13 87.21 46.52 87.56 46.46 87.33 47.19 86.9 47.13 87.21"/>
            <polygon class="cls-28" points="48.07 87.97 47.97 88.4 47.77 88.41 47.77 87.79 47.97 87.69 48.07 87.97"/>
            <polygon class="cls-32" points="48.2 88.34 47.97 88.4 47.97 87.69 48.2 87.49 48.2 88.34"/>
            <polygon class="cls-32" points="45.68 89.72 45.45 89.93 45.45 89.08 45.68 89.01 45.68 89.72"/>
          </g>
        </g>
        <g>
          <g>
            <polygon class="cls-27" points="56.76 82.73 56.99 82.66 56.62 83.61 55.98 84.41 55.92 84.18 56.45 83.52 56.76 82.73"/>
            <polygon class="cls-27" points="54.78 84.48 55.31 84.53 55.24 84.84 54.6 84.78 54.24 84.25 54.47 84.05 54.78 84.48"/>
            <polygon class="cls-27" points="55.24 81.65 55.31 81.89 54.78 82.55 54.47 83.34 54.24 83.4 54.6 82.45 55.24 81.65"/>
            <polygon class="cls-27" points="56.62 81.28 56.99 81.81 56.76 82.02 56.45 81.58 55.92 81.54 55.98 81.23 56.62 81.28"/>
            <polygon class="cls-14" points="55.92 84.18 55.98 84.41 55.24 84.84 55.31 84.53 55.92 84.18"/>
            <polygon class="cls-14" points="55.92 81.54 55.31 81.89 55.24 81.65 55.98 81.23 55.92 81.54"/>
            <polygon class="cls-14" points="56.99 82.66 56.76 82.73 56.76 82.02 56.99 81.81 56.99 82.66"/>
            <polygon class="cls-14" points="54.47 84.05 54.24 84.25 54.24 83.4 54.47 83.34 54.47 84.05"/>
          </g>
          <g>
            <polygon class="cls-28" points="57.19 82.66 56.67 82.8 56.67 82.18 57.19 81.71 57.19 82.66"/>
            <polygon class="cls-4" points="56.67 82.8 57.19 82.66 56.78 83.71 56.08 84.58 55.93 84.06 56.4 83.48 56.67 82.8"/>
            <polygon class="cls-29" points="56.09 84.05 55.91 84.27 55.61 84.32 55.4 84.37 55.93 84.06 56.09 84.05"/>
            <polygon class="cls-3" points="54.93 84.33 55.4 84.37 55.26 85.06 54.55 84.99 54.15 84.41 54.67 83.95 54.93 84.33"/>
            <polygon class="cls-29" points="54.35 84.06 54.21 84.62 54.15 84.41 54.15 83.47 54.24 83.57 54.35 84.06"/>
            <polygon class="cls-4" points="55.26 81.54 55.44 81.51 55.4 82.06 54.93 82.64 54.67 83.33 54.21 83.61 54.15 83.47 54.55 82.42 55.26 81.54"/>
            <polygon class="cls-3" points="56.78 81.13 57.19 81.71 56.67 82.18 56.4 81.8 55.93 81.75 56.08 81.07 56.78 81.13"/>
            <polygon class="cls-29" points="56.08 81.07 56.29 81.02 56.01 81.4 55.93 81.75 55.4 82.06 55.32 81.77 55.41 81.53 55.26 81.54 56.08 81.07"/>
            <polygon class="cls-29" points="56.79 82.64 56.73 82.93 56.67 82.8 56.67 82.18 56.73 82.39 56.79 82.64"/>
          </g>
          <g>
            <polygon class="cls-3" points="55.69 84.37 55.46 84.47 55.28 84.41 55.2 84.29 55.61 84.32 55.69 84.37"/>
            <polygon class="cls-3" points="56.78 82.18 56.81 82.43 56.73 82.39 56.49 82.05 56.64 82.05 56.78 82.18"/>
            <polygon class="cls-28" points="56.23 84.13 55.69 84.37 55.61 84.32 56.09 84.05 56.23 84.13"/>
            <polygon class="cls-3" points="54.73 85.29 54.65 85.25 54.21 84.62 54.35 84.63 54.73 85.29"/>
            <polygon class="cls-28" points="54.29 84.67 54.21 84.62 54.21 83.61 54.39 83.61 54.29 84.67"/>
            <polygon class="cls-3" points="55.41 81.53 55.6 81.56 54.85 82.59 54.29 83.65 54.21 83.61 54.65 82.47 55.41 81.53"/>
            <polygon class="cls-3" points="55.41 81.53 55.49 81.57 54.73 82.52 54.29 83.65 54.21 83.61 54.65 82.47 55.41 81.53"/>
            <polygon class="cls-28" points="56.88 83.02 56.73 82.93 56.73 82.39 56.81 82.43 56.88 83.02"/>
            <polygon class="cls-3" points="56.73 82.93 56.81 82.98 56.66 83.63 56.16 84.1 56.09 84.05 56.49 83.54 56.73 82.93"/>
            <polygon class="cls-28" points="56.44 81.11 55.49 81.57 55.41 81.53 56.29 81.02 56.44 81.11"/>
            <polygon class="cls-3" points="57.13 81.14 56.89 81.23 56.37 81.07 56.29 81.02 57.05 81.09 57.13 81.14"/>
            <polygon class="cls-30" points="56.16 84.1 56.35 84.3 56.26 84.46 56.37 84.85 55.49 85.36 55.69 84.37 56.16 84.1"/>
            <polygon class="cls-30" points="56.54 81.32 56.16 82.06 55.69 82.33 55.49 81.57 56.37 81.07 56.54 81.32"/>
            <polygon class="cls-31" points="55.49 81.57 55.68 81.78 55.6 82.01 55.69 82.33 55.28 82.84 54.88 83.85 54.29 83.65 54.73 82.52 55.49 81.57"/>
            <polygon class="cls-30" points="57.57 81.76 57.57 82.78 56.81 82.98 56.81 82.43 57.57 81.76"/>
            <polygon class="cls-31" points="56.49 81.31 56.37 81.07 57.13 81.14 57.57 81.76 57.61 81.95 57.08 82.42 56.81 82.43 56.57 82.09 56.16 82.06 56.27 81.51 56.49 81.31"/>
            <polygon class="cls-31" points="55.28 84.33 55.69 84.37 55.82 84.61 55.61 84.77 55.58 84.9 55.68 85.3 55.49 85.36 54.73 85.29 54.29 84.67 55.05 84 55.28 84.33"/>
            <polygon class="cls-30" points="55.05 84 55.09 84.19 54.56 84.65 54.29 84.67 54.29 83.65 54.56 83.71 55.05 84"/>
            <polygon class="cls-31" points="56.57 83.59 56.81 82.98 57.57 82.78 57.13 83.91 56.37 84.85 56.26 84.44 56.35 84.3 56.16 84.1 56.57 83.59"/>
          </g>
          <g>
            <polygon class="cls-28" points="56.55 81.54 56.48 81.83 56.35 82 55.82 82.31 55.68 81.78 56.49 81.31 56.55 81.54"/>
            <polygon class="cls-30" points="57.08 82.42 57.17 82.71 57.08 83.04 56.81 82.98 56.81 82.43 57.08 82.42"/>
            <polygon class="cls-28" points="57.61 81.95 57.61 82.9 57.54 82.99 57.52 82.97 57.44 82.37 57.52 82.11 57.61 81.95"/>
            <polygon class="cls-28" points="56.35 84.3 56.5 84.41 56.44 84.48 56.51 84.71 56.55 84.72 56.49 84.83 55.68 85.3 55.82 84.61 56.35 84.3"/>
            <polygon class="cls-3" points="56.81 83.73 57.08 83.04 57.52 82.97 57.61 82.9 57.2 83.95 56.49 84.83 56.51 84.71 56.44 84.63 56.43 84.59 56.44 84.48 56.35 84.3 56.81 83.73"/>
            <polygon class="cls-3" points="55.35 84.57 55.82 84.61 55.83 84.83 55.75 84.96 55.77 85.14 55.68 85.3 54.97 85.23 54.56 84.65 55.09 84.19 55.35 84.57"/>
            <polygon class="cls-28" points="55.09 84.19 54.99 84.35 54.76 84.56 54.56 84.65 54.56 83.71 55.09 83.57 55.09 84.19"/>
            <polygon class="cls-3" points="55.68 81.78 55.77 81.96 55.76 82.11 55.83 82.19 55.82 82.31 55.35 82.88 55.09 83.57 54.99 83.64 54.89 83.62 54.76 83.7 54.56 83.71 54.97 82.66 55.68 81.78"/>
            <polygon class="cls-3" points="56.46 81.68 56.51 81.53 56.49 81.31 57.2 81.38 57.61 81.95 57.52 82.11 57.43 82.48 57.08 82.42 56.81 82.04 56.35 82 56.44 81.84 56.46 81.68"/>
          </g>
          <g>
            <polygon class="cls-27" points="57.28 83.03 57.52 82.97 57.15 83.92 56.51 84.71 56.44 84.48 56.97 83.82 57.28 83.03"/>
            <polygon class="cls-27" points="55.3 84.78 55.83 84.83 55.77 85.14 55.13 85.08 54.76 84.56 54.99 84.35 55.3 84.78"/>
            <polygon class="cls-27" points="55.77 81.96 55.83 82.19 55.3 82.85 54.99 83.64 54.76 83.7 55.13 82.75 55.77 81.96"/>
            <polygon class="cls-27" points="57.15 81.59 57.52 82.11 57.28 82.32 56.97 81.89 56.44 81.84 56.51 81.53 57.15 81.59"/>
            <polygon class="cls-32" points="56.44 84.48 56.51 84.71 55.77 85.14 55.83 84.83 56.44 84.48"/>
            <polygon class="cls-32" points="56.44 81.84 55.83 82.19 55.77 81.96 56.51 81.53 56.44 81.84"/>
            <polygon class="cls-28" points="57.38 82.6 57.28 83.03 57.08 83.04 57.08 82.42 57.28 82.32 57.38 82.6"/>
            <polygon class="cls-32" points="57.52 82.97 57.28 83.03 57.28 82.32 57.52 82.11 57.52 82.97"/>
            <polygon class="cls-32" points="54.99 84.35 54.76 84.56 54.76 83.7 54.99 83.64 54.99 84.35"/>
          </g>
        </g>
      </g>
      <path class="cls-9" d="M185.28,279.26h13.91l14.09-4.63,22.85-13.2,1.71.51,18.48-10.67-.81-.16-.41.16L237.23,261.6l-1.7-.51-22.77,13.15L199,278.77H186.14l-.4-.12Z" transform="translate(-179.82 -180.88)"/>
      <g>
        <g>
          <polygon class="cls-30" points="32.99 89.39 31.99 88.33 30.99 89.39 30.99 93.14 32.99 93.14 32.99 89.39"/>
          <polygon class="cls-29" points="43.27 83.46 37.91 85.81 32.99 89.39 32.99 93.14 43.27 87.2 43.27 83.46"/>
          <polygon class="cls-28" points="30.99 89.39 28.44 86.91 20.71 83.46 20.71 87.2 30.99 93.14 30.99 89.39"/>
          <polygon class="cls-32" points="30.99 89.39 32.99 89.39 43.27 83.46 43.27 82.31 32.99 76.37 30.99 76.37 20.71 82.31 20.71 83.46 30.99 89.39"/>
        </g>
        <g>
          <polygon class="cls-28" points="30.99 89.39 25.43 86.94 20.71 83.46 19.43 77.24 25.61 79.35 29.71 83.17 30.81 85.93 30.99 89.39"/>
          <g>
            <polygon class="cls-33" points="30.14 88.22 21.24 83.08 20.2 78.03 20.72 78.33 22.52 82.34 30.04 87.68 30.14 88.22"/>
            <polygon class="cls-34" points="30.04 87.68 21.65 82.84 20.72 78.33 29.11 83.17 30.04 87.68"/>
          </g>
          <polygon class="cls-30" points="32.99 89.39 31.86 89.82 30.99 89.39 29.71 83.17 30.38 82.5 31.71 83.17 32.81 85.93 32.99 89.39"/>
          <polygon class="cls-29" points="43.27 83.46 39.3 86.44 32.99 89.39 31.71 83.17 37.35 79.11 43.27 76.5 43.27 83.46"/>
          <g>
            <polygon class="cls-35" points="39.46 79.25 39.46 85.11 37.35 86.33 37.35 85.95 38.58 84.48 39.13 79.44 39.46 79.25"/>
            <polygon class="cls-33" points="39.13 79.44 39.13 84.92 37.35 85.95 37.35 80.47 39.13 79.44"/>
          </g>
          <g>
            <polygon class="cls-35" points="36.78 80.79 36.78 86.66 33.32 88.66 33.25 88.31 35.8 86.02 36.45 80.98 36.78 80.79"/>
            <polygon class="cls-33" points="36.45 80.98 36.45 86.47 33.25 88.31 32.24 83.41 36.45 80.98"/>
          </g>
          <polygon class="cls-32" points="29.71 83.17 31.71 83.17 43.27 76.5 43.27 75.34 32.99 69.41 30.99 69.41 19.43 76.08 19.43 77.24 29.71 83.17"/>
        </g>
        <g>
          <polygon class="cls-30" points="32.57 83.71 29.48 83.71 29.48 82.88 31.33 82.2 32.57 82.88 32.57 83.71"/>
          <polygon class="cls-29" points="44.59 76.77 32.57 83.71 32.57 82.88 33.31 80.89 44.59 75.94 44.59 76.77"/>
          <polygon class="cls-28" points="29.48 83.71 18.43 77.33 18.43 76.5 26.56 80.11 29.48 82.88 29.48 83.71"/>
          <polygon class="cls-32" points="18.43 76.5 29.48 82.88 32.57 82.88 44.59 75.94 44.59 74.16 33.53 67.78 30.45 67.78 18.43 74.72 18.43 76.5"/>
        </g>
        <g>
          <g>
            <polygon class="cls-16" points="32.47 68.22 32.19 68.06 31.79 68.06 31.51 68.22 31.51 68.45 31.79 68.61 32.19 68.61 32.47 68.45 32.47 68.22"/>
            <rect class="cls-36" x="31.79" y="68.61" width="0.39" height="0.14"/>
            <polygon class="cls-15" points="32.47 68.59 32.19 68.75 32.19 68.61 32.47 68.45 32.47 68.59"/>
            <polygon class="cls-14" points="31.51 68.59 31.79 68.75 31.79 68.61 31.51 68.45 31.51 68.59"/>
          </g>
          <g>
            <polygon class="cls-16" points="32.19 66.45 32.07 66.38 31.9 66.38 31.78 66.45 31.78 66.55 31.9 66.61 32.07 66.61 32.19 66.55 32.19 66.45"/>
            <rect class="cls-36" x="31.9" y="66.62" width="0.17" height="1.83"/>
            <polygon class="cls-15" points="32.19 68.38 32.07 68.45 32.07 66.61 32.19 66.55 32.19 68.38"/>
            <polygon class="cls-14" points="31.78 68.38 31.9 68.45 31.9 66.61 31.78 66.55 31.78 68.38"/>
          </g>
          <g>
            <polygon class="cls-16" points="32.07 57.7 32.02 57.68 31.95 57.68 31.9 57.7 31.9 57.74 31.95 57.77 32.02 57.77 32.07 57.74 32.07 57.7"/>
            <rect class="cls-36" x="31.95" y="57.77" width="0.07" height="8.76"/>
            <polygon class="cls-15" points="32.07 66.51 32.02 66.54 32.02 57.77 32.07 57.74 32.07 66.51"/>
            <polygon class="cls-14" points="31.9 66.51 31.95 66.54 31.95 57.77 31.9 57.74 31.9 66.51"/>
          </g>
        </g>
        <g>
          <g>
            <polygon class="cls-16" points="43.85 74.8 43.58 74.64 43.18 74.64 42.9 74.8 42.9 75.03 43.18 75.19 43.58 75.19 43.85 75.03 43.85 74.8"/>
            <rect class="cls-36" x="43.18" y="75.19" width="0.39" height="0.14"/>
            <polygon class="cls-15" points="43.85 75.17 43.58 75.33 43.58 75.19 43.85 75.03 43.85 75.17"/>
            <polygon class="cls-14" points="42.9 75.17 43.18 75.33 43.18 75.19 42.9 75.03 42.9 75.17"/>
          </g>
          <g>
            <polygon class="cls-16" points="43.58 73.02 43.46 72.95 43.29 72.95 43.17 73.02 43.17 73.12 43.29 73.19 43.46 73.19 43.58 73.12 43.58 73.02"/>
            <rect class="cls-36" x="43.29" y="73.19" width="0.17" height="1.83"/>
            <polygon class="cls-15" points="43.58 74.95 43.46 75.02 43.46 73.19 43.58 73.12 43.58 74.95"/>
            <polygon class="cls-14" points="43.17 74.95 43.29 75.02 43.29 73.19 43.17 73.12 43.17 74.95"/>
          </g>
          <g>
            <polygon class="cls-16" points="43.46 64.28 43.41 64.25 43.34 64.25 43.29 64.28 43.29 64.32 43.34 64.35 43.41 64.35 43.46 64.32 43.46 64.28"/>
            <rect class="cls-36" x="43.34" y="64.35" width="0.07" height="8.76"/>
            <polygon class="cls-15" points="43.46 73.08 43.41 73.11 43.41 64.35 43.46 64.32 43.46 73.08"/>
            <polygon class="cls-14" points="43.29 73.08 43.34 73.11 43.34 64.35 43.29 64.32 43.29 73.08"/>
          </g>
        </g>
        <g>
          <polygon class="cls-1" points="27.61 74.47 26.3 73.71 24.45 73.71 23.14 74.47 23.14 75.54 24.45 76.29 26.3 76.29 27.61 75.54 27.61 74.47"/>
          <g>
            <g>
              <polygon class="cls-16" points="25.83 74.63 25.56 74.48 25.19 74.48 24.93 74.63 24.93 74.85 25.19 75 25.56 75 25.83 74.85 25.83 74.63"/>
              <rect class="cls-36" x="25.19" y="75" width="0.37" height="0.26"/>
              <polygon class="cls-15" points="25.83 75.11 25.56 75.26 25.56 75 25.83 74.85 25.83 75.11"/>
              <polygon class="cls-14" points="24.93 75.11 25.19 75.26 25.19 75 24.93 74.85 24.93 75.11"/>
            </g>
            <g>
              <polygon class="cls-16" points="25.73 72.15 25.52 72.03 25.23 72.03 25.02 72.15 25.02 72.32 25.23 72.45 25.52 72.45 25.73 72.32 25.73 72.15"/>
              <rect class="cls-36" x="25.23" y="72.45" width="0.3" height="2.49"/>
              <polygon class="cls-15" points="25.73 74.81 25.52 74.94 25.52 72.45 25.73 72.32 25.73 74.81"/>
              <polygon class="cls-14" points="25.02 74.81 25.23 74.94 25.23 72.45 25.02 72.32 25.02 74.81"/>
            </g>
          </g>
          <g>
            <polygon class="cls-16" points="27.6 72.32 26.3 71.57 24.46 71.57 23.16 72.32 23.16 73.39 24.46 74.14 26.3 74.14 27.6 73.39 27.6 72.32"/>
            <rect class="cls-36" x="24.46" y="74.14" width="1.84" height="0.13"/>
            <polygon class="cls-15" points="27.6 73.52 26.3 74.27 26.3 74.14 27.6 73.39 27.6 73.52"/>
            <polygon class="cls-14" points="23.16 73.52 24.46 74.27 24.46 74.14 23.16 73.39 23.16 73.52"/>
          </g>
          <g>
            <polygon class="cls-15" points="27.48 72.03 27.48 73.34 26.25 74.05 25.81 72.48 27.48 72.03"/>
            <polygon class="cls-36" points="26.25 72.74 26.25 74.05 24.51 74.05 23.28 72.03 26.25 72.74"/>
            <polygon class="cls-14" points="24.51 72.74 24.51 74.05 23.28 73.34 23.28 72.03 24.51 72.74"/>
            <polygon class="cls-14" points="26.05 71.94 24.7 71.94 24.51 72.74 26.25 72.74 26.05 71.94"/>
            <polygon class="cls-36" points="27.01 71.39 26.05 71.94 26.25 72.74 27.48 72.03 27.01 71.39"/>
            <polygon class="cls-15" points="27.01 70.61 27.01 71.39 27.48 72.03 27.48 71.03 27.01 70.61"/>
            <polygon class="cls-16" points="24.7 71.94 23.75 71.39 23.28 72.03 24.51 72.74 24.7 71.94"/>
            <polygon class="cls-14" points="23.75 71.39 23.75 70.61 23.28 71.03 23.28 72.03 23.75 71.39"/>
            <polygon class="cls-37" points="26.05 70.06 24.7 70.06 23.75 70.61 23.75 71.39 24.7 71.94 26.05 71.94 27.01 71.39 27.01 70.61 26.05 70.06"/>
          </g>
        </g>
      </g>
    </g>
    <g>
      <polygon class="cls-1" points="98.26 79.73 52.79 105.99 72.35 117.28 117.82 91.02 98.26 79.73"/>
      <g>
        <polygon class="cls-19" points="115.72 90.11 110.59 87.15 110.59 84.64 116.8 86.98 115.72 90.11"/>
        <polygon class="cls-20" points="115.72 87.61 110.59 84.64 111.67 84.02 116.8 86.98 115.72 87.61"/>
        <polygon class="cls-18" points="116.8 89.49 115.72 90.11 115.72 87.61 116.8 86.98 116.8 89.49"/>
      </g>
      <polygon class="cls-18" points="112.69 88.36 91.25 100.74 89.27 99.6 82.86 103.3 82.86 101.7 112.69 84.48 112.69 88.36"/>
      <g>
        <polygon class="cls-30" points="113.05 90.72 110.01 88.96 110.01 86.08 113.05 87.83 113.42 89.27 113.05 90.72"/>
        <g>
          <polygon class="cls-24" points="106.14 95.39 103.36 93.79 103.36 90.76 107.08 91.84 106.14 95.39"/>
          <polygon class="cls-22" points="106.14 92.36 103.36 90.76 105.22 87.56 110.6 87.66 106.14 92.36"/>
          <polygon class="cls-23" points="107.99 89.17 105.22 87.56 107.83 86.05 110.6 87.66 107.99 89.17"/>
          <polygon class="cls-25" points="112.46 88.72 110.6 87.66 107.99 89.17 106.14 92.37 106.14 95.39 107.99 96.45 110.6 94.94 112.46 91.74 112.46 88.72"/>
          <polygon class="cls-23" points="111.09 90.16 111.09 91.88 110.04 93.7 108.55 94.56 108.31 94.41 109.8 93.56 110.85 91.73 110.85 90.02 111.09 90.16"/>
          <polygon class="cls-14" points="110.85 90.02 110.85 91.73 109.8 93.56 108.31 94.41 107.5 93.95 107.5 92.6 107.68 91.92 108.55 90.41 110.04 89.55 110.85 90.02"/>
          <polygon class="cls-15" points="108.16 91.87 108.16 92.2 107.96 92.54 107.68 92.71 107.55 92.63 107.83 92.47 108.03 92.12 108.03 91.8 108.16 91.87"/>
          <polygon class="cls-25" points="108.03 91.8 108.03 92.12 107.83 92.47 107.55 92.63 107.5 92.6 107.5 92.23 107.68 91.92 107.96 91.76 108.03 91.8"/>
          <polygon class="cls-15" points="110.62 90.45 110.62 90.78 110.42 91.12 110.14 91.28 110.02 91.21 110.3 91.05 110.5 90.7 110.5 90.38 110.62 90.45"/>
          <polygon class="cls-25" points="110.5 90.38 110.5 90.7 110.3 91.05 110.02 91.21 109.94 91.17 109.94 90.84 110.14 90.5 110.42 90.34 110.5 90.38"/>
          <polygon class="cls-15" points="109.97 90.16 109.89 90.11 109.78 90.17 109.71 90.31 109.71 90.43 109.78 90.47 109.89 90.41 109.97 90.28 109.97 90.16"/>
          <polygon class="cls-15" points="109.18 93.32 109.11 93.27 109 93.34 108.92 93.47 108.92 93.59 109 93.64 109.11 93.58 109.18 93.44 109.18 93.32"/>
          <polygon class="cls-15" points="110.33 91.53 110.25 91.49 110.15 91.55 110.07 91.68 110.07 91.81 110.15 91.85 110.25 91.79 110.33 91.66 110.33 91.53"/>
          <polygon class="cls-15" points="108.03 92.86 107.96 92.81 107.85 92.87 107.77 93.01 107.77 93.13 107.85 93.18 107.96 93.11 108.03 92.98 108.03 92.86"/>
          <polygon class="cls-15" points="108.4 91.06 108.32 91.02 108.21 91.08 108.14 91.21 108.13 91.34 108.21 91.38 108.32 91.32 108.4 91.19 108.4 91.06"/>
          <polygon class="cls-15" points="109.39 90.14 109.39 90.47 109.19 90.81 108.91 90.97 108.79 90.9 109.07 90.74 109.27 90.39 109.27 90.07 109.39 90.14"/>
          <polygon class="cls-25" points="109.27 90.07 109.27 90.39 109.07 90.74 108.79 90.9 108.71 90.86 108.71 90.54 108.91 90.19 109.19 90.03 109.27 90.07"/>
          <polygon class="cls-15" points="108.66 93.13 108.66 93.45 108.46 93.8 108.18 93.96 108.06 93.89 108.34 93.72 108.53 93.38 108.53 93.05 108.66 93.13"/>
          <polygon class="cls-25" points="108.53 93.05 108.53 93.38 108.34 93.72 108.06 93.89 108.05 93.89 107.98 93.84 107.98 93.52 108.18 93.18 108.46 93.01 108.53 93.05"/>
          <polygon class="cls-15" points="110.13 92.28 110.13 92.61 109.92 92.95 109.64 93.11 109.52 93.04 109.8 92.88 110 92.54 110 92.21 110.13 92.28"/>
          <polygon class="cls-25" points="110 92.21 110 92.54 109.8 92.88 109.52 93.04 109.44 93 109.44 92.67 109.64 92.33 109.92 92.17 110 92.21"/>
          <g>
            <polygon class="cls-36" points="109.5 91.37 109.25 91.23 108.85 91.46 108.56 91.96 108.56 92.43 108.81 92.58 109.25 92.36 109.55 91.86 109.5 91.37"/>
            <polygon class="cls-15" points="109.79 91.53 109.5 91.37 109.09 91.6 108.81 92.11 108.81 92.58 109.09 92.74 109.5 92.51 109.79 92.01 109.79 91.53"/>
          </g>
        </g>
        <g>
          <polygon class="cls-24" points="99.1 99.46 96.32 97.85 96.32 94.83 100.04 95.91 99.1 99.46"/>
          <polygon class="cls-22" points="99.1 96.43 96.32 94.83 98.17 91.63 103.56 91.72 99.1 96.43"/>
          <polygon class="cls-23" points="100.95 93.23 98.17 91.63 100.78 90.12 103.56 91.72 100.95 93.23"/>
          <polygon class="cls-25" points="105.41 92.79 103.56 91.72 100.94 93.23 99.1 96.43 99.1 99.46 100.94 100.52 103.56 99.01 105.41 95.81 105.41 92.79"/>
          <polygon class="cls-23" points="104.05 94.23 104.05 95.94 103 97.77 101.51 98.62 101.27 98.48 102.75 97.62 103.8 95.8 103.8 94.08 104.05 94.23"/>
          <polygon class="cls-14" points="103.8 94.08 103.8 95.8 102.75 97.62 101.27 98.48 100.46 98.02 100.46 96.67 100.64 95.99 101.51 94.48 103 93.62 103.8 94.08"/>
          <polygon class="cls-15" points="101.12 95.94 101.12 96.26 100.92 96.61 100.64 96.77 100.51 96.7 100.79 96.54 100.99 96.19 100.99 95.86 101.12 95.94"/>
          <polygon class="cls-25" points="100.99 95.86 100.99 96.19 100.79 96.54 100.51 96.7 100.46 96.67 100.46 96.3 100.64 95.99 100.92 95.82 100.99 95.86"/>
          <polygon class="cls-15" points="103.58 94.52 103.58 94.84 103.38 95.19 103.1 95.35 102.97 95.28 103.25 95.12 103.45 94.77 103.45 94.45 103.58 94.52"/>
          <polygon class="cls-25" points="103.45 94.45 103.45 94.77 103.25 95.12 102.97 95.28 102.9 95.24 102.9 94.91 103.1 94.57 103.38 94.4 103.45 94.45"/>
          <polygon class="cls-15" points="102.92 94.22 102.85 94.18 102.74 94.24 102.66 94.37 102.66 94.5 102.74 94.54 102.85 94.48 102.92 94.35 102.92 94.22"/>
          <polygon class="cls-15" points="102.14 97.38 102.06 97.34 101.95 97.4 101.88 97.54 101.88 97.66 101.95 97.71 102.06 97.64 102.14 97.51 102.14 97.38"/>
          <polygon class="cls-15" points="103.29 95.6 103.21 95.55 103.1 95.62 103.03 95.75 103.03 95.87 103.1 95.92 103.21 95.86 103.29 95.72 103.29 95.6"/>
          <polygon class="cls-15" points="100.99 96.92 100.91 96.88 100.81 96.94 100.73 97.08 100.73 97.2 100.81 97.25 100.91 97.18 100.99 97.05 100.99 96.92"/>
          <polygon class="cls-15" points="101.35 95.13 101.28 95.08 101.17 95.15 101.09 95.28 101.09 95.4 101.17 95.45 101.28 95.39 101.35 95.25 101.35 95.13"/>
          <polygon class="cls-15" points="102.35 94.21 102.35 94.54 102.15 94.88 101.87 95.05 101.74 94.97 102.02 94.81 102.22 94.46 102.22 94.14 102.35 94.21"/>
          <polygon class="cls-25" points="102.22 94.14 102.22 94.46 102.02 94.81 101.74 94.97 101.67 94.93 101.67 94.61 101.87 94.26 102.15 94.09 102.22 94.14"/>
          <polygon class="cls-15" points="101.62 97.19 101.62 97.52 101.42 97.86 101.14 98.03 101.01 97.95 101.29 97.79 101.49 97.45 101.49 97.12 101.62 97.19"/>
          <polygon class="cls-25" points="101.49 97.12 101.49 97.45 101.29 97.79 101.01 97.95 101.01 97.95 100.94 97.91 100.94 97.59 101.14 97.25 101.42 97.08 101.49 97.12"/>
          <polygon class="cls-15" points="103.08 96.35 103.08 96.68 102.88 97.02 102.6 97.19 102.47 97.11 102.75 96.95 102.95 96.6 102.95 96.28 103.08 96.35"/>
          <polygon class="cls-25" points="102.95 96.28 102.95 96.6 102.75 96.95 102.47 97.11 102.4 97.07 102.4 96.74 102.6 96.4 102.88 96.24 102.95 96.28"/>
          <g>
            <polygon class="cls-36" points="102.46 95.44 102.21 95.29 101.8 95.53 101.52 96.03 101.52 96.5 101.76 96.64 102.21 96.43 102.5 95.93 102.46 95.44"/>
            <polygon class="cls-15" points="102.75 95.6 102.46 95.44 102.05 95.67 101.76 96.17 101.76 96.64 102.05 96.81 102.46 96.57 102.75 96.07 102.75 95.6"/>
          </g>
        </g>
        <polygon class="cls-32" points="100.41 92.12 97.36 90.36 108.05 84.19 111.09 85.94 103.59 90.67 100.41 92.12"/>
        <polygon class="cls-28" points="97.79 96.64 94.75 94.89 97.36 90.36 100.41 92.12 99.21 94.87 97.79 96.64"/>
        <polygon class="cls-30" points="97.79 99.53 94.75 97.77 94.75 94.89 97.79 96.64 98.16 98.08 97.79 99.53"/>
        <polygon class="cls-29" points="98.45 99.15 97.79 99.53 97.79 96.64 100.41 92.12 111.09 85.94 113.71 87.45 113.71 90.34 113.05 90.72 113.05 88.15 110.82 86.86 100.68 92.72 98.45 96.58 98.45 99.15"/>
      </g>
      <g>
        <g>
          <polygon class="cls-15" points="97.72 100.79 98.14 100.54 98.14 98.25 97 98.11 97.72 100.79"/>
          <polygon class="cls-14" points="97.72 98.5 98.14 98.25 96.74 95.83 94.34 94.94 97.72 98.5"/>
          <polygon class="cls-16" points="96.31 96.08 96.74 95.83 94.76 94.69 94.34 94.94 96.31 96.08"/>
          <polygon class="cls-36" points="92.94 95.74 94.34 94.94 96.31 96.08 97.72 98.5 97.72 100.79 96.31 101.59 94.34 100.45 92.94 98.03 92.94 95.74"/>
        </g>
        <g>
          <polygon class="cls-15" points="95.19 102.04 97.57 100.67 97.57 98.5 94.52 99.5 95.19 102.04"/>
          <polygon class="cls-14" points="95.19 99.87 97.57 98.5 96.24 96.21 91.99 96.49 95.19 99.87"/>
          <polygon class="cls-16" points="93.87 97.58 96.24 96.21 94.37 95.12 91.99 96.49 93.87 97.58"/>
          <polygon class="cls-36" points="90.66 97.26 91.99 96.49 93.87 97.58 95.19 99.87 95.19 102.04 93.87 102.8 91.99 101.72 90.66 99.42 90.66 97.26"/>
        </g>
        <g>
          <polygon class="cls-15" points="94.9 102.41 95.32 102.17 95.32 99.88 94.18 99.73 94.9 102.41"/>
          <polygon class="cls-14" points="94.9 100.13 95.32 99.88 93.92 97.46 91.52 96.56 94.9 100.13"/>
          <polygon class="cls-16" points="93.5 97.7 93.92 97.46 91.95 96.32 91.52 96.56 93.5 97.7"/>
          <polygon class="cls-36" points="90.12 97.37 91.52 96.56 93.5 97.7 94.9 100.13 94.9 102.41 93.5 103.22 91.52 102.08 90.12 99.65 90.12 97.37"/>
        </g>
        <g>
          <polygon class="cls-15" points="92.38 103.66 94.75 102.29 94.75 100.13 91.7 101.12 92.38 103.66"/>
          <polygon class="cls-14" points="92.38 101.5 94.75 100.13 93.42 97.83 89.17 98.12 92.38 101.5"/>
          <polygon class="cls-16" points="91.05 99.2 93.42 97.83 91.55 96.75 89.17 98.12 91.05 99.2"/>
          <polygon class="cls-36" points="87.85 98.88 89.17 98.12 91.05 99.2 92.38 101.5 92.38 103.66 91.05 104.43 89.17 103.35 87.85 101.05 87.85 98.88"/>
        </g>
        <g>
          <polygon class="cls-15" points="92.09 104.03 92.52 103.78 92.52 101.5 91.38 101.35 92.09 104.03"/>
          <polygon class="cls-14" points="92.09 101.74 92.52 101.5 91.12 99.08 88.72 98.18 92.09 101.74"/>
          <polygon class="cls-16" points="90.7 99.32 91.12 99.08 89.14 97.94 88.72 98.18 90.7 99.32"/>
          <polygon class="cls-36" points="87.32 98.99 88.72 98.18 90.7 99.32 92.09 101.75 92.09 104.03 90.7 104.83 88.72 103.69 87.32 101.27 87.32 98.99"/>
        </g>
        <g>
          <polygon class="cls-15" points="89.57 105.28 91.95 103.91 91.95 101.74 88.89 102.74 89.57 105.28"/>
          <polygon class="cls-14" points="89.57 103.12 91.95 101.74 90.62 99.45 86.37 99.74 89.57 103.12"/>
          <polygon class="cls-16" points="88.25 100.82 90.62 99.45 88.75 98.37 86.37 99.74 88.25 100.82"/>
          <polygon class="cls-36" points="85.05 100.5 86.37 99.74 88.25 100.82 89.57 103.12 89.57 105.28 88.25 106.05 86.37 104.96 85.05 102.67 85.05 100.5"/>
        </g>
        <g>
          <polygon class="cls-15" points="89.28 105.66 89.7 105.41 89.7 103.13 88.56 102.98 89.28 105.66"/>
          <polygon class="cls-14" points="89.28 103.37 89.7 103.13 88.31 100.7 85.9 99.81 89.28 103.37"/>
          <polygon class="cls-16" points="87.88 100.95 88.31 100.7 86.33 99.56 85.9 99.81 87.88 100.95"/>
          <polygon class="cls-36" points="84.5 100.61 85.9 99.81 87.88 100.95 89.28 103.37 89.28 105.66 87.88 106.46 85.9 105.32 84.5 102.9 84.5 100.61"/>
        </g>
        <g>
          <polygon class="cls-15" points="88.48 105.07 88.79 104.89 88.79 103.22 87.96 103.11 88.48 105.07"/>
          <polygon class="cls-14" points="88.48 103.4 88.79 103.22 87.77 101.45 86.01 100.79 88.48 103.4"/>
          <polygon class="cls-16" points="87.46 101.63 87.77 101.45 86.32 100.61 86.01 100.79 87.46 101.63"/>
          <polygon class="cls-36" points="84.99 101.38 86.01 100.79 87.46 101.63 88.48 103.4 88.48 105.07 87.46 105.66 86.01 104.82 84.99 103.05 84.99 101.38"/>
        </g>
      </g>
      <g>
        <polygon class="cls-32" points="83.64 102.61 77.13 98.85 81.17 96.52 87.67 100.28 85.97 102.08 83.64 102.61"/>
        <polygon class="cls-29" points="87.67 100.28 83.64 102.61 83.02 104.2 84.63 105.08 84.63 106.65 87.67 104.89 87.67 100.28"/>
      </g>
      <g>
        <polygon class="cls-38" points="84.63 101.24 65.58 90.24 65.58 70.25 87.2 79.76 84.63 101.24"/>
        <polygon class="cls-39" points="83.71 97.12 83.71 99.82 66.5 89.88 66.5 72.56 68.83 73.91 68.83 88.53 83.71 97.12"/>
        <polygon class="cls-40" points="83.71 82.5 83.71 97.12 68.83 88.53 68.83 73.91 83.71 82.5"/>
        <polygon class="cls-41" points="84.63 81.25 65.58 70.25 98.52 51.23 117.59 62.22 106.25 71 86.74 81.25 84.63 81.25"/>
        <polygon class="cls-39" points="117.59 62.22 84.63 81.25 84.63 101.24 117.59 82.21 117.59 62.22"/>
        <g>
          <polygon class="cls-32" points="110.37 78.07 110.37 74.46 107.82 72.81 103.41 73.55 98.32 76.48 93.92 80.84 91.37 85.43 91.37 89.04 93.92 90.7 98.32 89.96 103.41 87.02 107.82 82.67 110.37 78.07"/>
          <polygon class="cls-26" points="92.25 91.8 94.47 89.46 97.82 86.56 103.03 83.54 107.74 82.18 110.37 82.31 110.37 83.85 107.91 83.72 103.71 84.92 98.77 87.77 94.47 91.52 92.25 94.19 92.25 91.8"/>
          <g>
            <polygon class="cls-17" points="105.37 81.49 105.91 81.83 106.94 81.8 106.73 80.89 107.01 79.9 106.07 80.68 105.37 81.49"/>
            <polygon class="cls-17" points="98.38 86.44 98.45 87.51 99.02 88.36 99.18 87.31 99.4 86.33 99.21 86.25 99.09 86.09 98.8 86.01 98.38 86.44"/>
            <polygon class="cls-17" points="111.76 75.57 112.81 76.96 115.36 77.76 113.75 76.08 113.42 74.33 112.13 75.21 111.76 75.57"/>
            <polygon class="cls-29" points="93.39 86.88 91.82 87.79 93.39 87.92 95.57 87.48 98.1 86.57 100.44 85.43 102.71 83.81 104.88 81.96 107.01 79.9 109.17 77.77 110.65 76.34 111.57 75.69 112.6 75.09 113.42 74.33 113.52 74.17 113.44 74.09 104.93 78.91 96.2 83.62 93.39 86.88"/>
            <polygon class="cls-17" points="104.24 77.3 104.72 76.28 105.75 74.86 105.75 75.94 106.34 76.71 105.15 77.16 104.24 77.3"/>
            <polygon class="cls-17" points="98.49 79.98 98.84 78.75 99.46 77.22 100.59 77.67 101.87 77.47 103.27 77.07 104.01 77.36 98.49 79.98"/>
            <polygon class="cls-17" points="111.76 74.88 112.81 72.28 115.36 68.53 113.75 72.07 113.44 74.09 112.13 74.81 111.76 74.88"/>
            <polygon class="cls-42" points="91.98 86.75 93.56 84.56 96.25 81.76 98.49 79.98 100.7 78.7 103.74 77.44 106.72 76.6 109.39 75.85 111.76 74.88 113.44 74.09 109.94 76.39 98.28 83.27 96.67 84.19 94.65 85.73 93.39 86.88 91.98 86.75"/>
            <polygon class="cls-43" points="95.31 83.39 96.67 81.91 98.57 80.39 100.81 79.09 103.61 77.97 106.54 77.1 103.53 78.33 100.7 79.56 98.57 80.82 96.89 82.17 95.31 83.39"/>
            <polygon class="cls-44" points="94.86 86.92 96.5 86.85 98.57 86.08 100.81 84.79 103.61 82.69 107.01 79.39 103.53 82.07 100.7 84.11 98.57 85.31 96.84 86.08 94.86 86.92"/>
            <g>
              <polygon class="cls-45" points="94.19 84.7 93.98 85.08 93.98 85.43 94.19 85.55 94.5 85.38 94.72 85 94.72 84.65 94.5 84.52 94.19 84.7"/>
              <polygon class="cls-46" points="94.22 84.76 94.04 85.07 94.04 85.36 94.22 85.46 94.47 85.32 94.65 85.01 94.65 84.72 94.47 84.62 94.22 84.76"/>
              <polygon class="cls-25" points="94.27 84.87 94.16 85.06 94.16 85.23 94.27 85.3 94.42 85.21 94.53 85.02 94.53 84.84 94.42 84.78 94.27 84.87"/>
              <polygon class="cls-32" points="94.18 84.89 94.12 84.98 94.12 85.08 94.18 85.11 94.26 85.07 94.32 84.97 94.32 84.87 94.26 84.84 94.18 84.89"/>
            </g>
            <polygon class="cls-17" points="98.57 83.21 98.94 83.51 99.27 84.05 99.83 83.49 100.7 81.9 101.79 80.53 99.93 81.81 98.57 83.21"/>
          </g>
        </g>
        <g>
          <polygon class="cls-47" points="115.4 66.04 115.19 65.92 115.19 65.41 115.56 65.44 115.4 66.04"/>
          <polygon class="cls-48" points="115.4 65.53 115.19 65.41 115.51 64.88 116.15 64.74 115.4 65.53"/>
          <polygon class="cls-49" points="115.71 65 115.51 64.88 115.94 64.62 116.15 64.74 115.71 65"/>
          <polygon class="cls-50" points="116.46 64.92 116.15 64.74 115.71 65 115.4 65.53 115.4 66.04 115.71 66.22 116.15 65.96 116.46 65.43 116.46 64.92"/>
        </g>
      </g>
      <g>
        <g>
          <polygon class="cls-21" points="53.57 85.04 53.98 84.81 54.62 85.18 55.02 85.88 55.02 88.17 54.62 88.41 53.98 88.04 53.57 87.34 53.57 85.04"/>
          <g>
            <polygon class="cls-21" points="55.49 87.05 54.89 86.7 54.89 86.64 55.51 86.97 55.49 87.05"/>
            <polygon class="cls-18" points="55.49 86.98 54.89 86.64 54.93 86.57 55.59 86.89 55.49 86.98"/>
            <polygon class="cls-20" points="55.53 86.92 54.93 86.57 54.99 86.54 55.59 86.89 55.53 86.92"/>
            <polygon class="cls-19" points="55.62 86.91 55.59 86.89 55.53 86.92 55.49 86.98 55.49 87.05 55.53 87.07 55.59 87.04 55.62 86.97 55.62 86.91"/>
          </g>
          <g>
            <polygon class="cls-21" points="55.49 88.2 54.89 87.86 54.89 87.79 55.51 88.12 55.49 88.2"/>
            <polygon class="cls-18" points="55.49 88.14 54.89 87.79 54.93 87.72 55.59 88.04 55.49 88.14"/>
            <polygon class="cls-20" points="55.53 88.07 54.93 87.72 54.99 87.69 55.59 88.04 55.53 88.07"/>
            <polygon class="cls-19" points="55.62 88.06 55.59 88.04 55.53 88.07 55.49 88.14 55.49 88.2 55.53 88.22 55.59 88.19 55.62 88.12 55.62 88.06"/>
          </g>
          <polygon class="cls-19" points="53.43 85.12 53.84 84.89 54.48 85.26 54.88 85.96 54.88 88.25 54.48 88.49 53.84 88.12 53.43 87.42 53.43 85.12"/>
        </g>
        <polygon class="cls-18" points="53.41 102.91 70.9 112.61 71.09 109.76 53.67 99.82 53.41 102.91"/>
        <g>
          <g>
            <polygon class="cls-29" points="68.35 109.76 68.63 109.6 68.63 108.91 68.14 108.95 68.35 109.76"/>
            <polygon class="cls-30" points="68.35 109.07 68.63 108.91 68.21 108.18 67.33 108 68.35 109.07"/>
            <polygon class="cls-32" points="67.93 108.34 68.21 108.18 67.61 107.84 67.33 108 67.93 108.34"/>
            <polygon class="cls-50" points="66.91 108.24 67.33 108 67.93 108.34 68.35 109.07 68.35 109.76 67.93 110 67.33 109.66 66.91 108.93 66.91 108.24"/>
          </g>
          <g>
            <polygon class="cls-29" points="70.69 111.11 70.97 110.95 70.97 110.26 70.48 110.3 70.69 111.11"/>
            <polygon class="cls-30" points="70.69 110.42 70.97 110.26 70.55 109.53 69.67 109.35 70.69 110.42"/>
            <polygon class="cls-32" points="70.27 109.69 70.55 109.53 69.95 109.19 69.67 109.35 70.27 109.69"/>
            <polygon class="cls-50" points="69.25 109.59 69.67 109.35 70.27 109.69 70.69 110.42 70.69 111.11 70.27 111.35 69.67 111.01 69.25 110.28 69.25 109.59"/>
          </g>
        </g>
        <g>
          <g>
            <polygon class="cls-29" points="55.9 102.57 56.17 102.41 56.17 101.72 55.68 101.76 55.9 102.57"/>
            <polygon class="cls-30" points="55.9 101.88 56.17 101.72 55.75 100.99 54.88 100.81 55.9 101.88"/>
            <polygon class="cls-32" points="55.48 101.15 55.75 100.99 55.16 100.64 54.88 100.81 55.48 101.15"/>
            <polygon class="cls-50" points="54.46 101.05 54.88 100.81 55.48 101.15 55.9 101.88 55.9 102.57 55.48 102.81 54.88 102.47 54.46 101.73 54.46 101.05"/>
          </g>
          <g>
            <polygon class="cls-29" points="58.24 103.92 58.51 103.76 58.51 103.07 58.02 103.11 58.24 103.92"/>
            <polygon class="cls-30" points="58.24 103.23 58.51 103.07 58.09 102.34 57.22 102.15 58.24 103.23"/>
            <polygon class="cls-32" points="57.81 102.5 58.09 102.34 57.5 101.99 57.22 102.15 57.81 102.5"/>
            <polygon class="cls-50" points="56.8 102.4 57.22 102.15 57.81 102.5 58.24 103.23 58.24 103.92 57.81 104.16 57.22 103.82 56.8 103.08 56.8 102.4"/>
          </g>
        </g>
        <path class="cls-29" d="M251.83,290.18l-19-11v4.62l19,11Zm-16.07-6.52-.5.29-.71-.41-.5-.87v-.82l.5-.29.71.41.5.87Zm2.38,1.37-.5.29-.71-.41-.51-.87v-.82l.51-.29.71.41.5.87Zm10.05,5.81-.5.29-.7-.41-.5-.87V289l.5-.28.7.4.5.87Zm2.38,1.37-.5.29-.71-.41-.5-.87v-.82l.5-.29.71.41.5.87Z" transform="translate(-179.82 -180.88)"/>
        <polygon class="cls-18" points="84.03 107.5 80.25 105.32 80.25 102.26 84.03 104.45 84.03 107.5"/>
        <g>
          <polygon class="cls-24" points="76.7 112.38 73.93 110.78 73.93 107.76 77.65 108.84 76.7 112.38"/>
          <polygon class="cls-22" points="76.7 109.36 73.93 107.76 75.78 104.55 81.17 104.65 76.7 109.36"/>
          <polygon class="cls-23" points="78.55 106.16 75.78 104.55 78.39 103.05 81.17 104.65 78.55 106.16"/>
          <polygon class="cls-25" points="83.02 105.72 81.17 104.65 78.55 106.16 76.7 109.36 76.7 112.38 78.55 113.45 81.17 111.94 83.02 108.74 83.02 105.72"/>
          <polygon class="cls-23" points="81.65 107.16 81.65 108.87 80.6 110.69 79.12 111.55 78.87 111.41 80.36 110.55 81.41 108.73 81.41 107.01 81.65 107.16"/>
          <polygon class="cls-14" points="81.41 107.01 81.41 108.73 80.36 110.55 78.87 111.41 78.07 110.94 78.07 109.6 78.25 108.92 79.12 107.41 80.6 106.55 81.41 107.01"/>
          <polygon class="cls-15" points="78.73 108.87 78.73 109.19 78.52 109.54 78.24 109.7 78.12 109.63 78.4 109.46 78.6 109.12 78.6 108.8 78.73 108.87"/>
          <polygon class="cls-25" points="78.6 108.8 78.6 109.12 78.4 109.46 78.12 109.63 78.07 109.6 78.07 109.23 78.24 108.92 78.52 108.75 78.6 108.8"/>
          <polygon class="cls-15" points="81.19 107.45 81.19 107.77 80.99 108.12 80.7 108.28 80.58 108.21 80.86 108.04 81.06 107.7 81.06 107.37 81.19 107.45"/>
          <polygon class="cls-25" points="81.06 107.37 81.06 107.7 80.86 108.04 80.58 108.21 80.51 108.17 80.51 107.84 80.7 107.5 80.99 107.33 81.06 107.37"/>
          <polygon class="cls-15" points="80.53 107.15 80.45 107.11 80.34 107.17 80.27 107.3 80.27 107.42 80.34 107.47 80.45 107.41 80.53 107.27 80.53 107.15"/>
          <polygon class="cls-15" points="79.75 110.32 79.67 110.27 79.56 110.33 79.48 110.47 79.49 110.59 79.56 110.64 79.67 110.57 79.75 110.44 79.75 110.32"/>
          <polygon class="cls-15" points="80.89 108.53 80.82 108.48 80.71 108.54 80.63 108.68 80.63 108.8 80.71 108.85 80.82 108.78 80.89 108.65 80.89 108.53"/>
          <polygon class="cls-15" points="78.6 109.85 78.52 109.81 78.41 109.87 78.33 110 78.33 110.13 78.41 110.17 78.52 110.11 78.6 109.98 78.6 109.85"/>
          <polygon class="cls-15" points="78.96 108.06 78.88 108.01 78.77 108.07 78.7 108.21 78.7 108.33 78.77 108.38 78.88 108.31 78.96 108.18 78.96 108.06"/>
          <polygon class="cls-15" points="79.96 107.14 79.96 107.47 79.76 107.81 79.47 107.97 79.35 107.9 79.63 107.74 79.83 107.39 79.83 107.07 79.96 107.14"/>
          <polygon class="cls-25" points="79.83 107.07 79.83 107.39 79.63 107.74 79.35 107.9 79.28 107.86 79.28 107.53 79.47 107.19 79.76 107.02 79.83 107.07"/>
          <polygon class="cls-15" points="79.23 110.12 79.23 110.45 79.02 110.79 78.74 110.96 78.62 110.88 78.9 110.72 79.1 110.37 79.1 110.05 79.23 110.12"/>
          <polygon class="cls-25" points="79.1 110.05 79.1 110.37 78.9 110.72 78.62 110.88 78.62 110.88 78.55 110.84 78.55 110.52 78.74 110.17 79.02 110.01 79.1 110.05"/>
          <polygon class="cls-15" points="80.69 109.28 80.69 109.61 80.49 109.95 80.21 110.11 80.08 110.04 80.36 109.88 80.56 109.53 80.56 109.21 80.69 109.28"/>
          <polygon class="cls-25" points="80.56 109.21 80.56 109.53 80.36 109.88 80.08 110.04 80.01 110 80.01 109.67 80.21 109.33 80.49 109.16 80.56 109.21"/>
          <g>
            <polygon class="cls-36" points="80.07 108.36 79.82 108.22 79.41 108.46 79.12 108.96 79.12 109.43 79.37 109.57 79.82 109.36 80.11 108.86 80.07 108.36"/>
            <polygon class="cls-15" points="80.35 108.53 80.07 108.36 79.66 108.6 79.37 109.1 79.37 109.57 79.66 109.74 80.07 109.5 80.35 109 80.35 108.53"/>
          </g>
        </g>
        <polygon class="cls-29" points="83.64 87.16 82.98 86.17 74.29 91.17 72.91 99.49 72.12 100.63 72.12 109.25 72.12 109.25 72.12 109.25 71.68 109.5 71.68 114.11 75.73 111.77 75.73 109.54 78.15 105.34 81.57 103.37 83.64 104.55 83.64 87.16"/>
        <g>
          <polygon class="cls-47" points="73.08 109.11 73.23 109.19 73.34 109.05 73.08 109.03 73.08 109.11"/>
          <polygon class="cls-48" points="73.08 109.03 73.23 109.12 74.55 108.09 73.3 108.64 73.08 109.03"/>
          <polygon class="cls-49" points="73.3 108.64 73.45 108.72 74.55 108.09 74.41 108.01 73.3 108.64"/>
          <polygon class="cls-50" points="73.45 108.72 73.23 109.12 73.23 109.19 73.45 109.32 74.55 108.69 74.78 108.3 74.78 108.22 74.55 108.09 73.45 108.72"/>
        </g>
        <polygon class="cls-32" points="78.98 90.13 78.98 95.6 74.21 98.36 74.24 98.19 78.85 95.53 78.85 90.21 78.98 90.13"/>
        <polygon class="cls-35" points="78.85 90.21 78.85 95.53 74.24 98.19 74.29 97.86 78.59 95.37 78.59 90.36 78.85 90.21"/>
        <polygon class="cls-33" points="78.59 90.36 78.59 95.37 74.29 97.86 75.2 92.31 78.59 90.36"/>
        <path class="cls-51" d="M259.3,270.19V284l-3,1.74-.87,1.63-1.83,1.05v-8.84l1.14-6.69,2.53-1.47Zm.27-.46-5.07,2.93-1.19,7v9.17l2.21-1.27.87-1.62,3.18-1.83Z" transform="translate(-179.82 -180.88)"/>
        <g>
          <polygon class="cls-18" points="77.27 98.43 77.13 98.35 77.13 98.27 77.38 98.3 77.27 98.43"/>
          <polygon class="cls-19" points="77.27 98.36 77.13 98.27 77.34 97.9 79.03 97.09 77.27 98.36"/>
          <polygon class="cls-20" points="77.48 97.98 77.34 97.9 78.89 97.01 79.03 97.09 77.48 97.98"/>
          <polygon class="cls-21" points="79.25 97.21 79.03 97.09 77.48 97.98 77.27 98.36 77.27 98.43 77.48 98.55 79.03 97.66 79.25 97.29 79.25 97.21"/>
        </g>
        <polygon class="cls-32" points="74.29 91.17 55.24 80.17 63.93 75.17 82.98 86.17 74.29 91.17"/>
        <g>
          <g>
            <polygon class="cls-21" points="58.98 80.13 58.98 80.45 58.44 80.76 58.25 80.33 58.98 80.13"/>
            <polygon class="cls-18" points="58.44 80.45 58.44 80.76 57.67 80.76 57.13 80.13 58.44 80.45"/>
            <polygon class="cls-19" points="57.67 80.45 57.67 80.76 57.13 80.45 57.13 80.13 57.67 80.45"/>
            <polygon class="cls-20" points="57.13 79.69 57.13 80.13 57.67 80.45 58.44 80.45 58.98 80.13 58.98 79.69 58.44 79.38 57.67 79.38 57.13 79.69"/>
          </g>
          <g>
            <polygon class="cls-50" points="58.84 79.7 58.84 80.07 58.38 80.34 58.22 79.87 58.84 79.7"/>
            <polygon class="cls-47" points="58.38 79.97 58.38 80.34 57.73 80.34 57.27 79.7 58.38 79.97"/>
            <polygon class="cls-48" points="57.73 79.97 57.73 80.34 57.27 80.07 57.27 79.7 57.73 79.97"/>
            <polygon class="cls-49" points="57.27 79.33 57.27 79.7 57.73 79.97 58.38 79.97 58.84 79.7 58.84 79.33 58.38 79.06 57.73 79.06 57.27 79.33"/>
          </g>
        </g>
        <g>
          <g>
            <polygon class="cls-21" points="67.09 84.81 67.09 85.13 66.55 85.44 66.35 85.01 67.09 84.81"/>
            <polygon class="cls-18" points="66.55 85.13 66.55 85.44 65.78 85.44 65.24 84.81 66.55 85.13"/>
            <polygon class="cls-19" points="65.78 85.13 65.78 85.44 65.24 85.13 65.24 84.81 65.78 85.13"/>
            <polygon class="cls-20" points="65.24 84.37 65.24 84.81 65.78 85.13 66.55 85.13 67.09 84.82 67.09 84.37 66.55 84.06 65.78 84.06 65.24 84.37"/>
          </g>
          <g>
            <polygon class="cls-50" points="66.95 84.39 66.95 84.75 66.49 85.02 66.33 84.55 66.95 84.39"/>
            <polygon class="cls-47" points="66.49 84.65 66.49 85.02 65.84 85.02 65.38 84.39 66.49 84.65"/>
            <polygon class="cls-48" points="65.84 84.65 65.84 85.02 65.38 84.75 65.38 84.39 65.84 84.65"/>
            <polygon class="cls-49" points="65.38 84.01 65.38 84.39 65.84 84.65 66.49 84.65 66.95 84.39 66.95 84.01 66.49 83.74 65.84 83.74 65.38 84.01"/>
          </g>
        </g>
        <g>
          <g>
            <polygon class="cls-21" points="75.2 89.5 75.2 89.81 74.66 90.12 74.46 89.69 75.2 89.5"/>
            <polygon class="cls-18" points="74.65 89.81 74.66 90.12 73.89 90.12 73.34 89.5 74.65 89.81"/>
            <polygon class="cls-19" points="73.89 89.81 73.89 90.12 73.34 89.81 73.34 89.5 73.89 89.81"/>
            <polygon class="cls-20" points="73.34 89.05 73.34 89.5 73.89 89.81 74.66 89.81 75.2 89.5 75.2 89.05 74.66 88.74 73.89 88.74 73.34 89.05"/>
          </g>
          <g>
            <polygon class="cls-50" points="75.06 89.07 75.06 89.44 74.6 89.7 74.43 89.23 75.06 89.07"/>
            <polygon class="cls-47" points="74.6 89.33 74.6 89.7 73.94 89.7 73.48 89.07 74.6 89.33"/>
            <polygon class="cls-48" points="73.94 89.33 73.94 89.7 73.48 89.44 73.48 89.07 73.94 89.33"/>
            <polygon class="cls-49" points="73.48 88.69 73.48 89.07 73.94 89.33 74.6 89.33 75.06 89.07 75.06 88.69 74.6 88.42 73.94 88.42 73.48 88.69"/>
          </g>
        </g>
        <polygon class="cls-28" points="72.91 99.49 53.86 88.49 55.24 80.17 74.29 91.17 72.91 99.49"/>
        <polygon class="cls-32" points="72.41 98.3 72.4 98.4 54.62 88.13 55.76 81.25 55.84 81.3 54.71 88.08 72.41 98.3"/>
        <polygon class="cls-35" points="72.46 98.05 72.41 98.3 54.71 88.08 55.84 81.3 56.03 81.42 54.95 87.94 72.46 98.05"/>
        <polygon class="cls-33" points="73.54 91.52 72.46 98.05 54.95 87.94 56.03 81.42 56.66 81.78 58.52 84.3 60.47 83.97 73.54 91.52"/>
        <polygon class="cls-52" points="56.66 81.78 55.7 87.67 60.47 84.92 60.47 83.97 56.66 81.78"/>
        <polygon class="cls-28" points="72.12 109.25 53.07 98.25 53.07 89.63 72.12 100.63 72.12 109.25"/>
        <g>
          <polygon class="cls-53" points="55.26 97.65 55.56 97.48 55.56 96.72 55.02 96.77 55.26 97.65"/>
          <polygon class="cls-54" points="55.26 96.89 55.56 96.72 55.1 95.92 54.14 95.71 55.26 96.89"/>
          <polygon class="cls-5" points="54.79 96.09 55.1 95.92 54.45 95.54 54.14 95.71 54.79 96.09"/>
          <polygon class="cls-55" points="53.67 95.98 54.14 95.71 54.79 96.09 55.26 96.89 55.26 97.65 54.79 97.92 54.14 97.54 53.67 96.74 53.67 95.98"/>
        </g>
        <g>
          <polygon class="cls-53" points="71.05 106.77 71.36 106.6 71.36 105.84 70.82 105.89 71.05 106.77"/>
          <polygon class="cls-54" points="71.05 106.02 71.36 105.84 70.9 105.03 69.93 104.83 71.05 106.02"/>
          <polygon class="cls-5" points="70.59 105.21 70.9 105.03 70.24 104.66 69.93 104.83 70.59 105.21"/>
          <polygon class="cls-55" points="69.47 105.1 69.93 104.83 70.59 105.21 71.05 106.02 71.05 106.77 70.59 107.04 69.93 106.66 69.47 105.86 69.47 105.1"/>
        </g>
        <g>
          <polygon class="cls-29" points="68.8 100.2 68.8 100.33 68.66 100.41 56.53 93.42 56.39 93.16 56.39 92.92 56.53 92.84 56.64 92.9 56.64 93.02 56.79 93.27 68.8 100.2"/>
          <polygon class="cls-18" points="68.8 100.09 68.8 100.2 56.79 93.27 56.64 93.02 56.64 92.9 68.66 99.84 68.8 100.09"/>
          <polygon class="cls-29" points="68.8 101.73 68.8 101.85 68.66 101.93 56.53 94.94 56.39 94.68 56.39 94.45 56.53 94.36 56.64 94.42 56.64 94.54 56.79 94.79 68.8 101.73"/>
          <polygon class="cls-18" points="68.8 101.61 68.8 101.73 56.79 94.79 56.64 94.54 56.64 94.42 68.66 101.36 68.8 101.61"/>
          <polygon class="cls-29" points="68.8 103.25 68.8 103.37 68.66 103.45 56.53 96.45 56.39 96.21 56.39 95.97 56.53 95.88 56.64 95.94 56.64 96.06 56.79 96.31 68.8 103.25"/>
          <polygon class="cls-18" points="68.8 103.13 68.8 103.25 56.79 96.31 56.64 96.06 56.64 95.94 68.66 102.88 68.8 103.13"/>
          <polygon class="cls-29" points="68.8 104.77 68.8 104.89 68.66 104.97 56.53 97.98 56.39 97.72 56.39 97.49 56.53 97.4 56.64 97.46 56.64 97.58 56.79 97.83 68.8 104.77"/>
          <polygon class="cls-18" points="68.8 104.65 68.8 104.77 56.79 97.83 56.64 97.58 56.64 97.46 68.66 104.4 68.8 104.65"/>
          <polygon class="cls-29" points="68.8 106.29 68.8 106.41 68.66 106.49 56.53 99.5 56.39 99.25 56.39 99.01 56.53 98.92 56.64 98.98 56.64 99.1 56.79 99.35 68.8 106.29"/>
          <polygon class="cls-18" points="68.8 106.17 68.8 106.29 56.79 99.35 56.64 99.1 56.64 98.98 68.66 105.92 68.8 106.17"/>
        </g>
        <path class="cls-28" d="M251.5,290.38l-19.05-11V284l19.05,11Zm-16.08-6.53-.5.29-.7-.41-.5-.87v-.81l.5-.29.7.4.5.87Zm2.38,1.37-.5.29-.71-.41-.5-.87v-.81l.5-.29.71.41.5.86ZM247.86,291l-.5.29-.71-.41-.5-.87v-.81l.5-.29.71.41.5.86Zm2.37,1.37-.5.29-.71-.41-.5-.87v-.81l.5-.29.71.41.5.86Z" transform="translate(-179.82 -180.88)"/>
        <g>
          <polygon class="cls-15" points="64.39 108.77 64.19 108.89 59.72 103.87 59.92 103.75 64.39 106.33 64.39 108.77"/>
          <polygon class="cls-32" points="64.19 108.89 59.72 106.31 59.72 103.87 64.19 106.45 64.19 108.89"/>
        </g>
        <polygon class="cls-32" points="72.12 100.63 53.07 89.63 53.86 88.49 72.91 99.49 72.12 100.63"/>
        <polygon class="cls-32" points="71.68 109.5 52.63 98.5 53.07 98.25 72.12 109.25 71.68 109.5"/>
        <g>
          <polygon class="cls-28" points="84.25 108.02 83.66 107.68 83.66 104.8 84.25 105.14 84.25 108.02"/>
          <polygon class="cls-29" points="76.64 112.42 75.98 112.8 75.98 109.91 78.6 105.38 82.3 103.25 84.91 104.76 84.91 107.64 84.25 108.02 84.25 105.45 82.02 104.17 78.87 105.99 76.64 109.84 76.64 112.42"/>
          <polygon class="cls-32" points="78.6 105.38 78.01 105.04 81.71 102.91 82.3 103.25 78.6 105.38"/>
          <rect class="cls-28" x="254.2" y="288.02" width="5.23" height="0.68" transform="translate(-301.11 185.83) rotate(-60.02)"/>
          <polygon class="cls-30" points="75.98 112.8 75.4 112.46 75.4 109.57 75.98 109.91 75.98 112.8"/>
        </g>
        <g>
          <g>
            <polygon class="cls-21" points="74.63 98.1 74.03 97.76 74.03 97.69 74.65 98.03 74.63 98.1"/>
            <polygon class="cls-18" points="74.63 98.04 74.03 97.69 74.07 97.63 74.72 97.94 74.63 98.04"/>
            <polygon class="cls-20" points="74.67 97.97 74.07 97.63 74.12 97.6 74.72 97.94 74.67 97.97"/>
            <polygon class="cls-19" points="74.76 97.97 74.72 97.94 74.67 97.97 74.63 98.04 74.63 98.1 74.67 98.13 74.72 98.09 74.76 98.03 74.76 97.97"/>
          </g>
          <g>
            <polygon class="cls-21" points="74.63 99.25 74.03 98.91 74.03 98.84 74.65 99.18 74.63 99.25"/>
            <polygon class="cls-18" points="74.63 99.19 74.03 98.84 74.07 98.78 74.72 99.09 74.63 99.19"/>
            <polygon class="cls-20" points="74.67 99.12 74.07 98.78 74.12 98.75 74.72 99.09 74.67 99.12"/>
            <polygon class="cls-19" points="74.76 99.11 74.72 99.09 74.67 99.12 74.63 99.19 74.63 99.25 74.67 99.28 74.72 99.25 74.76 99.18 74.76 99.11"/>
          </g>
          <polygon class="cls-21" points="74.76 97.28 75.17 97.04 75.81 97.42 76.21 98.12 76.21 100.41 75.81 100.65 75.17 100.28 74.76 99.57 74.76 97.28"/>
          <polygon class="cls-19" points="74.62 97.36 75.03 97.13 75.67 97.49 76.07 98.2 76.07 100.49 75.67 100.73 75.03 100.36 74.62 99.65 74.62 97.36"/>
        </g>
      </g>
    </g>
    <g>
      <g>
        <g>
          <polygon class="cls-56" points="86.78 35.55 86.91 37.64 88.02 39.28 87.89 38.59 88.15 37.68 88.35 34.99 88.16 34.88 87.6 34.72 86.78 35.55"/>
          <polygon class="cls-17" points="86.97 35.66 87.11 37.75 88.02 39.28 88.52 37.35 88.94 35.45 88.58 35.31 88.35 34.99 87.8 34.83 86.97 35.66"/>
        </g>
        <g>
          <polygon class="cls-56" points="87.62 36.03 87.75 38.12 88.86 39.76 88.73 38.69 88.99 38.17 89.19 35.47 89 35.36 88.44 35.2 87.62 36.03"/>
          <polygon class="cls-17" points="87.81 36.14 87.94 38.23 88.86 39.76 89.36 37.84 89.78 35.94 89.42 35.79 89.19 35.47 88.63 35.32 87.81 36.14"/>
        </g>
        <polygon class="cls-30" points="76.82 36.24 73.79 38 74.1 38.62 75.11 38.77 81.03 37.41 85.93 35.64 90.48 33.42 94.87 30.3 99.06 26.7 103.19 22.72 107.38 18.6 110.24 15.82 112.03 14.56 114.02 13.41 115.95 12.41 116.37 12.1 116.37 11.88 99.16 20.79 82.26 29.92 76.82 36.24"/>
        <polygon class="cls-57" points="76.07 36.85 74.04 38.07 74.22 38.5 75.2 38.44 78.06 36.96 77.59 36.57 76.07 36.85"/>
        <polygon class="cls-58" points="74.09 35.99 77.15 31.75 82.36 26.32 86.7 22.87 90.97 20.4 96.86 17.95 102.63 16.33 107.79 14.88 112.08 13.33 116.37 11.88 108.86 15.91 86.29 29.24 83.18 31.04 79.25 34.01 75.42 36.96 73.93 36.85 74.09 35.99"/>
        <g>
          <polygon class="cls-56" points="112.91 14.64 114.94 17.32 115.14 17.43 116.78 15.62 116.13 12.24 113.64 13.94 112.91 14.64"/>
          <polygon class="cls-17" points="113.11 14.75 115.14 17.43 120.08 18.99 116.97 15.73 116.32 12.35 113.83 14.05 113.11 14.75"/>
        </g>
        <g>
          <polygon class="cls-56" points="101.01 26.45 102.07 27.12 102.4 27.23 104.53 23.49 104.2 23.38 102.38 24.89 101.01 26.45"/>
          <polygon class="cls-17" points="101.34 26.56 102.4 27.23 104.39 27.17 103.99 25.41 104.53 23.49 102.71 25 101.34 26.56"/>
        </g>
        <polygon class="cls-30" points="78.15 37.01 75.11 38.77 78.15 39.02 82.36 38.18 87.27 36.41 91.81 34.2 96.2 31.07 100.39 27.47 104.53 23.49 108.72 19.37 111.58 16.59 113.29 14.99 115 13.49 116.32 12.35 116.53 12.04 116.37 11.88 100.49 21.56 83.59 30.69 78.15 37.01"/>
        <polygon class="cls-59" points="75.11 38.77 78.15 39.02 82.36 38.18 87.27 36.41 91.81 34.2 96.2 31.07 100.39 27.47 104.53 23.49 108.72 19.37 111.58 16.59 113.29 14.99 115 13.49 113.25 14.84 97.79 27.69 92.31 31.64 88.19 33.96 84.84 35.45 75.11 38.77"/>
        <g>
          <polygon class="cls-56" points="101.25 16.33 101.18 15.13 101.31 14.19 101.5 13.43 99.51 16.17 98.58 18.14 98.58 18.14 98.78 18.25 99.25 17.96 101.25 16.33"/>
          <polygon class="cls-17" points="102.84 17.11 101.69 15.64 101.5 13.43 99.7 16.29 98.78 18.25 98.78 18.25 102.84 17.11"/>
        </g>
        <g>
          <polygon class="cls-56" points="89.92 20.13 89.32 17.99 88.12 20.95 87.46 23.34 87.65 23.45 88.02 23.02 89.92 20.13"/>
          <polygon class="cls-17" points="97.81 18.52 98.24 18.33 96.7 17.71 93.99 18.48 91.52 18.86 89.32 17.99 88.31 21.06 87.65 23.45 91.92 20.98 97.81 18.52"/>
        </g>
        <polygon class="cls-58" points="75.42 36.96 78.48 32.52 83.69 27.09 88.03 23.64 92.31 21.17 98.2 18.72 103.97 17.09 109.12 15.65 113.58 13.16 116.37 11.88 110.19 16.68 87.62 30.01 84.51 31.81 80.58 34.78 78.15 37.01 75.42 36.96"/>
        <polygon class="cls-43" points="81.85 30.25 84.51 27.39 88.19 24.44 92.53 21.93 97.94 19.75 103.61 18.07 97.79 20.44 92.31 22.82 88.19 25.26 84.92 27.87 81.85 30.25"/>
        <g>
          <polygon class="cls-45" points="79.7 32.79 79.28 33.51 79.28 34.2 79.7 34.44 80.29 34.09 80.71 33.37 80.71 32.69 80.29 32.44 79.7 32.79"/>
          <polygon class="cls-46" points="79.75 32.91 79.41 33.5 79.41 34.06 79.75 34.25 80.24 33.98 80.58 33.38 80.58 32.82 80.24 32.63 79.75 32.91"/>
          <polygon class="cls-25" points="79.85 33.11 79.64 33.48 79.64 33.82 79.85 33.94 80.14 33.77 80.36 33.41 80.36 33.06 80.14 32.94 79.85 33.11"/>
          <polygon class="cls-32" points="79.67 33.14 79.56 33.33 79.56 33.52 79.67 33.58 79.83 33.49 79.94 33.3 79.94 33.11 79.83 33.05 79.67 33.14"/>
        </g>
        <g>
          <polygon class="cls-56" points="88.19 29.89 89.34 30.15 89.66 31.65 90.61 30.44 92.31 27.36 93.85 25.45 94.54 24.82 94.42 24.7 90.81 27.19 88.19 29.89"/>
          <polygon class="cls-17" points="88.19 29.89 89.02 30.6 89.66 31.65 90.73 30.56 92.43 27.49 94.54 24.82 90.94 27.32 88.19 29.89"/>
        </g>
        <g>
          <polygon class="cls-56" points="112.91 13.3 114.94 8.27 119.89 1.01 119.21 2.21 117.65 5.37 116.78 7.85 116.18 11.77 113.11 13.41 112.91 13.3"/>
          <polygon class="cls-17" points="115.14 8.38 113.11 13.41 113.14 13.4 113.58 13.16 116.37 11.88 116.97 7.96 119.89 1.01 115.14 8.38"/>
        </g>
      </g>
      <g>
        <polygon class="cls-60" points="35.58 51.65 35.09 53.19 32.01 54.34 27.67 58.15 22.65 62.77 16.95 66.79 11.82 69.96 8.16 71.87 5.47 72.9 1.19 73.96 0.33 73.76 0 73.24 2.03 71.8 35.58 51.65"/>
        <polygon class="cls-57" points="1.96 72.07 0.34 73.2 0.56 73.53 1.36 73.57 3.23 72.49 3.2 71.88 1.96 72.07"/>
        <polygon class="cls-40" points="1.19 71.99 0.21 71.95 0 71.31 2.08 68.38 3.71 66.82 7.41 62.85 10.89 60.27 14.65 58.1 19.26 56.06 24.65 54.52 29.33 53.4 33.23 52.07 34.91 50.95 35.1 51.06 27.01 57.24 17.63 63.76 8.59 68.98 1.19 71.99"/>
        <g>
          <polygon class="cls-34" points="34.91 50.95 36.33 49.66 39.34 46.51 42.21 47.67 38.86 49.48 35.1 51.06 34.91 50.95"/>
          <polygon class="cls-20" points="35.1 51.06 36.52 49.77 39.53 46.63 42.21 47.67 39.03 52.97 36.19 53.15 35.28 53.31 35.78 51.77 35.1 51.06"/>
        </g>
        <g>
          <polygon class="cls-34" points="11.94 70.94 12.66 72.57 13.82 73.55 15.4 72.65 15.95 70.27 14.2 70.09 13.79 69.88 11.94 70.94"/>
          <polygon class="cls-20" points="12.19 71.08 12.9 72.71 13.82 73.55 15.53 72.72 15.95 70.27 14.44 70.23 14.04 70.02 12.19 71.08"/>
        </g>
        <g>
          <polygon class="cls-34" points="26.16 60.88 27.2 61.35 27.6 61.42 29.22 59.92 29.33 58.97 28.86 58.41 26.16 60.88"/>
          <polygon class="cls-20" points="26.57 60.95 27.6 61.42 28.77 61.4 30.87 59.44 29.73 59.04 29.27 58.48 27.97 59.53 26.57 60.95"/>
        </g>
        <polygon class="cls-60" points="35.78 51.77 35.28 53.31 33.2 55.03 28.86 58.84 23.84 63.46 18.14 67.48 13.01 70.65 9.35 72.56 6.66 73.59 3.77 74.47 1.19 73.96 3.23 72.49 35.78 51.77"/>
        <polygon class="cls-59" points="35.28 53.31 33.2 55.03 28.86 58.84 23.84 63.46 18.14 67.48 13.01 70.65 9.35 72.56 6.66 73.59 3.77 74.47 1.19 73.96 3.84 73.68 6.71 72.84 9.57 71.71 12.9 69.88 18.01 66.7 23.48 62.81 28.72 58.41 32.55 55.08 35.28 53.31"/>
        <g>
          <polygon class="cls-34" points="19.81 56.43 19.72 54.29 17.85 57.29 17.85 57.29 18.12 57.44 19.81 56.43"/>
          <polygon class="cls-20" points="20.07 56.58 25.46 55.03 30.02 53.81 32.83 52.44 33.69 50.69 27.75 52.7 19.72 54.29 18.12 57.44 18.12 57.44 20.07 56.58"/>
        </g>
        <g>
          <polygon class="cls-34" points="15.2 58.46 17.22 56.65 15.07 55.6 12.77 58.04 11.72 60.47 11.98 60.62 12.63 59.95 15.2 58.46"/>
          <polygon class="cls-20" points="15.46 58.62 18.11 57.45 18.12 57.44 17.8 56.51 17.31 56.55 15.07 55.6 13.03 58.19 11.98 60.62 15.46 58.62"/>
        </g>
        <polygon class="cls-40" points="3.23 72.49 1.19 71.99 3.27 69.07 4.9 67.5 8.61 63.54 12.09 60.95 15.84 58.79 20.45 56.75 25.84 55.2 30.4 53.67 33.43 52.19 35.1 51.06 35.78 51.77 28.2 57.92 18.82 64.45 9.78 69.67 3.23 72.49"/>
        <polygon class="cls-43" points="7.27 66.39 9.54 63.97 12.68 61.48 16.38 59.34 21 57.45 25.84 55.99 20.87 58.04 16.2 60.08 12.68 62.16 9.89 64.38 7.27 66.39"/>
        <g>
          <polygon class="cls-39" points="5.06 68.17 4.61 68.94 4.61 69.67 5.06 69.93 5.69 69.57 6.14 68.79 6.14 68.06 5.69 67.8 5.06 68.17"/>
          <polygon class="cls-46" points="5.12 68.3 4.75 68.93 4.75 69.53 5.12 69.74 5.64 69.44 6 68.81 6 68.21 5.64 68 5.12 68.3"/>
          <polygon class="cls-25" points="5.22 68.52 4.99 68.91 4.99 69.27 5.22 69.4 5.54 69.22 5.76 68.83 5.76 68.46 5.54 68.33 5.22 68.52"/>
          <polygon class="cls-32" points="5.03 68.55 4.91 68.75 4.91 68.95 5.03 69.02 5.2 68.92 5.32 68.71 5.32 68.52 5.2 68.45 5.03 68.55"/>
        </g>
        <g>
          <polygon class="cls-34" points="11.83 68.2 12.6 68.51 15.56 67.92 17.86 65.07 17.6 64.88 16.08 65.37 13.47 66.91 11.83 68.2"/>
          <polygon class="cls-20" points="11.83 68.2 12.24 69.06 12.08 69.4 15.7 68.15 17.68 65.9 17.86 65.07 16.22 65.61 13.61 67.14 11.83 68.2"/>
        </g>
      </g>
      <g>
        <g>
          <polygon class="cls-20" points="81.35 8.53 84.32 4.47 88.3 0.68 89.69 0 89.79 1 89.4 4.89 89.45 8.66 88.94 10.54 86.06 11.56 82.51 12.11 81.01 12.14 82.51 9.54 81.35 8.53"/>
          <polygon class="cls-19" points="81.78 8.78 84.76 4.72 88.58 0.67 89.69 0 90.23 1.25 89.84 5.14 89.89 8.91 89.38 10.8 86.5 11.82 82.94 12.36 81.44 12.39 82.21 9.98 81.78 8.78"/>
        </g>
        <polygon class="cls-30" points="28.3 40.3 27.42 41.02 28.46 41.85 29.91 42.3 32.5 41.03 36.13 39.85 39.11 39.56 46.95 37.05 54.36 32.35 64.88 23.93 72.27 17.51 76.5 14.12 81.01 12.14 82.51 9.54 81.42 9.58 74.9 13.62 57.62 23.84 43.47 29 31.2 36.84 28.3 40.3"/>
        <polygon class="cls-61" points="27.42 39.88 30.69 36.21 32.07 35.41 36.64 30.42 37.73 29.79 43.61 24.05 49.71 20.53 56.56 17.74 62.58 15.98 69.53 14.37 75.09 11.98 79.54 9.97 81.35 8.53 81.78 8.78 82.51 9.54 77.15 12.9 71.42 17.14 64.08 21.96 56.39 26.4 49.13 30.59 44.12 31.39 42.16 32.02 39.55 34.28 34.9 37.3 32.21 37.76 29.11 40.86 27.42 41.02 27.42 39.88"/>
        <g>
          <polygon class="cls-20" points="39.94 39.26 40.3 41.65 41.17 43.24 41.54 43.45 42.43 42.12 42.06 40.47 41.71 39.02 41.34 38.81 40.62 38.48 39.94 39.26"/>
          <polygon class="cls-19" points="40.3 39.47 40.67 41.85 41.54 43.45 43.28 44.15 42.8 42.33 43.38 40.29 42.29 39.61 41.71 39.02 40.98 38.69 40.3 39.47"/>
        </g>
        <g>
          <polygon class="cls-20" points="41.31 40.05 41.67 42.44 42.55 44.03 42.91 44.24 43.8 42.91 43.44 41.26 43.08 39.81 42.72 39.6 41.99 39.27 41.31 40.05"/>
          <polygon class="cls-19" points="41.67 40.26 42.04 42.65 42.91 44.24 44.65 44.94 44.17 43.12 44.75 41.08 43.66 40.4 43.08 39.81 42.35 39.48 41.67 40.26"/>
        </g>
        <g>
          <polygon class="cls-20" points="65.58 25.04 66.42 25.88 66.99 26.09 67.75 25.16 65.58 25.04"/>
          <polygon class="cls-19" points="66.14 25.25 66.99 26.09 69.29 26.11 70.11 25.46 72.22 23.49 74.3 20.71 74.3 20 73.93 19.26 74.01 18.45 66.14 25.25"/>
        </g>
        <g>
          <polygon class="cls-20" points="54.88 33.49 56.28 34.58 56.95 34.74 58.26 32.96 56.8 31.97 54.88 33.49"/>
          <polygon class="cls-19" points="55.54 33.65 56.95 34.74 59.03 34.88 62.29 32.27 65.83 27.71 65.95 26.64 65.39 25.85 55.54 33.65"/>
        </g>
        <polygon class="cls-30" points="29.11 40.86 29.32 41.76 29.91 42.3 31.87 42.01 34.2 42.01 37.83 40.83 40.8 40.54 48.65 38.02 56.05 33.33 66.58 24.9 73.96 18.49 78.19 15.1 81.44 12.39 82.94 9.79 81.85 9.83 76.59 14.59 59.32 24.82 45.16 29.98 32.89 37.81 29.11 40.86"/>
        <polygon class="cls-59" points="34.06 41.41 31.91 41.61 29.91 42.3 31.87 42.01 34.2 42.01 37.83 40.83 40.8 40.54 48.65 38.02 56.05 33.33 66.58 24.9 73.96 18.49 78.19 15.1 81.44 12.39 82.94 9.79 81.01 12.14 78.1 14.73 73.62 18.32 66.53 24.01 56 31.55 48.19 36.53 40.77 39.48 37.75 40.16 34.06 41.41"/>
        <g>
          <polygon class="cls-20" points="67.02 14.34 67.74 12.76 65.92 14.47 64.95 16.44 64.95 16.44 65.39 16.7 66.27 16.14 67.02 14.34"/>
          <polygon class="cls-19" points="71.22 15.35 73.93 14.11 73.6 13.46 72.75 13.13 71.05 12.36 69.33 12.1 67.74 12.76 66.36 14.72 65.39 16.7 65.39 16.7 71.22 15.35"/>
        </g>
        <g>
          <polygon class="cls-20" points="54.16 20.39 58.29 17.77 57.65 15.14 55.36 17.13 53.72 20.13 53.72 20.13 54.16 20.39"/>
          <polygon class="cls-19" points="58.25 18.71 64.28 16.95 65.39 16.7 65.39 16.7 65.16 15.49 63.53 14.51 60.22 14.53 57.65 15.14 55.8 17.38 54.16 20.39 54.16 20.39 58.25 18.71"/>
        </g>
        <g>
          <polygon class="cls-20" points="43.93 26.37 49.84 18.87 48.72 18.03 45.5 21.82 43.49 26.12 43.93 26.37"/>
          <polygon class="cls-19" points="45.3 25.03 51.4 21.51 52.95 20.88 52.95 20.88 53.31 20.41 53.31 19.32 51.38 17.69 50.07 17.42 48.72 18.03 45.93 22.07 43.93 26.37 45.3 25.03"/>
        </g>
        <polygon class="cls-61" points="29.11 40.86 32.38 37.19 33.76 36.39 38.34 31.4 39.42 30.77 45.3 25.03 51.4 21.51 58.25 18.71 64.28 16.95 71.22 15.35 76.81 12.79 80.26 10.25 81.78 8.78 82.94 9.79 78.37 13.61 73.11 18.11 65.78 22.93 58.08 27.38 50.82 31.57 45.81 32.36 43.85 32.99 41.24 35.26 36.59 38.27 33.91 38.74 30.49 40.71 29.11 40.86"/>
        <g>
          <polygon class="cls-20" points="43.49 33.07 45.13 33.59 44.65 35.21 48.72 32.66 51.84 27.88 51.4 27.63 49.44 28 46.43 30.2 43.49 33.07"/>
          <polygon class="cls-19" points="43.49 33.07 44.58 33.7 44.65 35.21 49.15 32.91 51.62 29.26 51.84 27.88 49.88 28.26 46.87 30.46 43.49 33.07"/>
        </g>
        <g>
          <polygon class="cls-62" points="35.58 35.2 35.1 36.03 35.1 36.82 35.58 37.09 36.25 36.7 36.73 35.87 36.73 35.09 36.25 34.81 35.58 35.2"/>
          <polygon class="cls-46" points="35.64 35.34 35.25 36.02 35.25 36.66 35.64 36.89 36.19 36.57 36.58 35.89 36.58 35.25 36.19 35.02 35.64 35.34"/>
          <polygon class="cls-25" points="35.74 35.58 35.5 35.99 35.5 36.39 35.74 36.53 36.09 36.33 36.33 35.91 36.33 35.52 36.09 35.38 35.74 35.58"/>
          <polygon class="cls-32" points="35.55 35.61 35.42 35.83 35.42 36.04 35.55 36.12 35.73 36.01 35.85 35.79 35.85 35.58 35.73 35.51 35.55 35.61"/>
        </g>
        <polygon class="cls-63" points="37.9 33.24 41.93 29.2 47.46 25.08 53.94 21.65 61.96 18.74 70.48 16.84 61.7 19.75 53.57 22.94 47.42 26.29 42.5 29.93 37.9 33.24"/>
      </g>
    </g>
  </g>
</svg>
