<svg id="Layer_1" data-name="Layer 1" xmlns="http://www.w3.org/2000/svg" viewBox="0 0 127.93 122.89">
  <defs>
    <style>
      .cls-1 {
        opacity: 0.3;
      }

      .cls-2 {
        fill: #f4efe9;
      }

      .cls-3 {
        fill: #ffec7a;
      }

      .cls-4 {
        fill: #362c29;
      }

      .cls-22, .cls-30, .cls-5 {
        fill: #fff;
      }

      .cls-6 {
        fill: #17435c;
      }

      .cls-7 {
        fill: #c7a495;
      }

      .cls-8 {
        fill: #f0c6b4;
      }

      .cls-9 {
        fill: #a16739;
      }

      .cls-10 {
        fill: #29617d;
      }

      .cls-11 {
        fill: #685750;
      }

      .cls-12 {
        fill: #403531;
      }

      .cls-13 {
        fill: #d1d1d1;
      }

      .cls-14 {
        fill: #a39c95;
      }

      .cls-15 {
        fill: #e6e1dd;
      }

      .cls-16 {
        fill: #d8d1c7;
      }

      .cls-17 {
        fill: #939598;
      }

      .cls-18 {
        fill: #7d4a5a;
      }

      .cls-19 {
        fill: #377691;
      }

      .cls-20 {
        opacity: 0.1;
      }

      .cls-21 {
        fill: #428aa8;
      }

      .cls-22 {
        opacity: 0.7;
      }

      .cls-23 {
        fill: #231f20;
      }

      .cls-24 {
        fill: #c79e64;
      }

      .cls-25 {
        fill: #0a0808;
      }

      .cls-26 {
        fill: #e0dedc;
      }

      .cls-27 {
        fill: #b5afa7;
      }

      .cls-28 {
        fill: #fa5c52;
      }

      .cls-29 {
        fill: #fa847d;
      }

      .cls-30 {
        opacity: 0.5;
      }

      .cls-31 {
        fill: #8a1c14;
      }

      .cls-32 {
        fill: #c84030;
      }

      .cls-33 {
        fill: #574943;
      }

      .cls-34 {
        fill: #ab281f;
      }

      .cls-35 {
        fill: #fbe979;
      }

      .cls-36 {
        fill: #e3bd5e;
      }

      .cls-37 {
        fill: #d6a950;
      }

      .cls-38 {
        fill: #cc934c;
      }

      .cls-39 {
        fill: #e8f3ff;
      }

      .cls-40 {
        fill: #c8dfe8;
      }

      .cls-41 {
        fill: #b4ced6;
      }

      .cls-42 {
        fill: #a1b4bf;
      }

      .cls-43 {
        fill: #544540;
      }

      .cls-44 {
        fill: #836e69;
      }

      .cls-45 {
        fill: #414042;
      }

      .cls-46 {
        fill: #58595b;
      }

      .cls-47 {
        fill: #6d6e71;
      }

      .cls-48 {
        fill: #e09d38;
      }
    </style>
  </defs>
  <g>
    <g>
      <g>
        <polygon class="cls-1" points="65.11 53.94 55.72 53.94 52.38 55.87 52.38 58.59 55.72 60.52 65.11 60.52 68.45 58.59 68.45 55.87 65.11 53.94"/>
        <polygon class="cls-2" points="55.17 8.79 53.6 10.79 52.87 12.25 48.88 16.41 47.95 15.86 46.87 15.37 44.97 17.42 47.26 19.98 50.25 19.75 56.85 14.75 57.19 9.18 55.17 8.79"/>
        <polygon class="cls-3" points="43.75 15.86 44.21 16.18 44.97 17.72 46.58 16.82 47.12 15.38 46.07 14.57 46.39 13.02 44.47 13.36 43.75 15.86"/>
        <polygon class="cls-4" points="57.87 54.56 54.3 55.99 53.04 56.11 53.04 56.37 53.12 57.49 55.08 57.49 58.13 56.13 60 56.01 61.29 55.22 61.29 54.96 60.79 54.25 57.87 54.56"/>
        <polygon class="cls-4" points="65.95 56.1 63.15 59.15 62.42 59.81 62.42 60.07 63.67 60.39 65.53 60.07 66.76 57.97 66.88 56.33 67.11 55.12 67.11 54.86 65.95 56.1"/>
        <polygon class="cls-5" points="57.27 53.25 55.8 54.25 53.54 55.25 53.04 56.11 53.12 57.23 55.08 57.23 58.13 55.87 60 55.75 61.29 54.96 61.29 53.58 61 52.41 57.27 53.25"/>
        <polygon class="cls-6" points="55.49 27.8 55.57 34.18 56.38 39.9 56.28 41.84 56.89 44.52 57.14 48.75 56.89 53.43 59.31 53.83 61.31 52.95 61.75 45.21 61.14 41.74 62.42 31.31 58.84 28.16 55.49 27.8"/>
        <polygon class="cls-7" points="62.12 8.67 62.4 9.69 62.93 10.45 63.26 11.31 62.34 12.78 58.73 14.02 57.79 11.87 59.35 8.93 62.12 8.67"/>
        <polygon class="cls-5" points="55.54 10.45 54.84 12.39 54.9 16.64 59.08 28.87 63.59 29.75 65.68 28.81 67.31 13.95 66.38 12.94 65.14 12.55 65.35 12.01 62.93 10.45 62.12 12.25 58.97 13.49 57.93 10.9 56.85 9.76 55.54 10.45"/>
        <polygon class="cls-6" points="56.02 15.86 56.85 11.62 58.66 9.86 60.2 9.86 59.17 8.93 57.66 8.93 55.65 11.02 54.9 15.09 56.02 15.86"/>
        <polygon class="cls-8" points="54.9 7.81 55.01 9.04 55.54 9.5 55.54 10.45 56.97 13.07 58.04 13.36 59.86 12.21 60.91 10.89 61.17 10.13 61.67 9.66 61.88 9.18 62.12 8.05 61.39 6.47 54.9 7.81"/>
        <polygon class="cls-8" points="55.87 10.63 55.87 11.82 56.27 12.01 56.85 11.7 55.87 10.63"/>
        <polygon class="cls-9" points="58.97 8.47 60.02 8.65 60.22 9.18 60.6 9.18 60.85 8.47 61.45 7.99 61.88 8.23 61.88 9.18 62.26 8.37 62.22 6.68 60.79 6.68 58.97 8.47"/>
        <polygon class="cls-6" points="61.84 17.94 63.17 14.58 64.83 12.94 66.38 12.94 65.35 12.01 63.84 12.01 62.05 13.7 60.4 17.7 61.84 17.94"/>
        <polygon class="cls-5" points="64.08 54.2 63.59 56.1 62.42 58.63 62.42 59.81 63.67 60.13 65.53 59.81 66.76 57.72 66.88 56.08 67.11 54.86 66.8 53.49 64.08 54.2"/>
        <polygon class="cls-10" points="54.3 14.42 58.01 16.69 62.69 17.91 62.62 24.41 63.35 27.02 65.29 27.51 66.68 25.93 67.53 29.81 66.38 41.31 67.3 46.02 67.21 53.98 65.23 55.25 63.57 54.22 62.91 45.05 61.78 41.31 60.57 33.02 58.22 31.31 55.49 27.8 55.44 22.29 54.3 14.42"/>
        <polygon class="cls-5" points="54.95 5.12 56.55 3.47 58.81 2.8 61.77 3.96 62.26 6.59 61.72 7.6 60.08 8.45 58.1 8.65 56.08 8.47 54.9 7.81 54.95 5.12"/>
        <g>
          <g>
            <polygon class="cls-11" points="43.14 16.49 42.78 16.82 42.35 16.57 42.35 16.03 45.46 10.65 45.89 10.9 43.14 16.49"/>
            <polygon class="cls-12" points="43.57 16.74 43.11 17 42.78 16.82 42.78 16.28 45.89 10.9 46.68 11.35 43.57 16.74"/>
          </g>
          <g>
            <path class="cls-2" d="M185.81,188.91l-.13-.08-5.17,9,.13.08,5.81-2.61,2.7-3.6,0-.59Zm3,2.43v.25l-.15.25-.21.12-.14-.08v-.24l.14-.26.21-.12Z" transform="translate(-137.95 -188.83)"/>
            <path class="cls-13" d="M189.22,190.88l-3.41-2-5.17,9,3.83,2.21,4.81-8.34Zm-.32.54v.24l-.14.26-.21.12-.15-.09v-.24l.15-.25.21-.12Z" transform="translate(-137.95 -188.83)"/>
          </g>
        </g>
        <polygon class="cls-3" points="42.78 14.63 43.73 14.87 45.18 13.35 45.4 11.9 44.29 10.9 43.16 11.75 42.69 13.8 42.78 14.63"/>
        <polygon class="cls-3" points="44.97 13.83 45.47 12.65 46.17 12.35 46.39 13.02 45.47 14.21 44.97 13.83"/>
        <polygon class="cls-13" points="48.88 16.41 50.03 18.28 50.03 17.48 48.88 16.41"/>
      </g>
      <g>
        <polygon class="cls-1" points="14.27 57.95 56.55 82.36 79.75 68.97 37.52 44.52 14.27 57.95"/>
        <g>
          <polygon class="cls-14" points="54.67 71.44 77.87 58.05 77.87 56.83 16.15 47.99 54.67 71.44"/>
          <polygon class="cls-15" points="16.15 47.99 54.67 70.23 77.87 56.83 39.35 34.59 16.15 47.99"/>
          <polygon class="cls-16" points="16.15 49.17 54.67 71.44 54.67 70.23 16.15 47.99 16.15 49.17"/>
        </g>
        <g>
          <g>
            <polygon class="cls-14" points="17.89 58.04 16.15 59.04 15.09 36.72 15.91 35.3 17.89 35.48 17.89 58.04"/>
            <polygon class="cls-15" points="16.15 36.48 15.35 36.72 14.27 35.4 16.01 34.39 17.89 35.48 16.15 36.48"/>
            <polygon class="cls-16" points="16.15 59.04 14.27 57.95 14.27 35.4 16.15 36.48 16.15 59.04"/>
          </g>
          <g>
            <polygon class="cls-14" points="79.75 68.97 78.02 69.97 76.95 47.66 77.78 46.23 79.75 46.41 79.75 68.97"/>
            <polygon class="cls-15" points="78.02 47.42 77.21 47.66 76.13 46.33 77.87 45.33 79.75 46.41 78.02 47.42"/>
            <polygon class="cls-16" points="78.02 69.97 76.13 68.89 76.13 46.33 78.02 47.42 78.02 69.97"/>
          </g>
          <g>
            <polygon class="cls-14" points="58.29 81.36 56.55 82.36 55.49 60.05 56.32 58.63 58.29 58.8 58.29 81.36"/>
            <polygon class="cls-15" points="56.55 59.81 55.75 60.05 54.67 58.72 56.41 57.72 58.29 58.8 56.55 59.81"/>
            <polygon class="cls-16" points="56.55 82.36 54.67 81.27 54.67 58.72 56.55 59.81 56.55 82.36"/>
          </g>
        </g>
        <g>
          <polygon class="cls-14" points="56.55 59.81 79.75 46.41 79.75 45.2 14.27 34.18 56.55 59.81"/>
          <polygon class="cls-15" points="14.27 34.18 56.55 58.59 79.75 45.2 37.47 20.79 14.27 34.18"/>
          <polygon class="cls-16" points="14.27 35.36 56.55 59.81 56.55 58.59 14.27 34.18 14.27 35.36"/>
        </g>
      </g>
      <g>
        <polygon class="cls-1" points="21.86 30.28 28.39 29.45 31.61 28.2 31.66 28.01 31.99 28.03 34.26 26.06 35.37 22.29 36.35 26.7 36.35 26.9 35.38 29.19 37.27 29.76 40.62 30.72 45.56 32.08 47.25 31.65 48.4 30.58 49.32 32.05 49.38 32.35 49.35 33.17 50.38 33.47 54.93 35.07 59.21 37.02 61.32 38.45 61.46 38.13 61.41 37.8 63.03 37.29 64.7 36.82 64.23 37.8 64.7 37.66 63.95 39.22 63.16 39.74 66.34 42.43 68.81 45.24 69.95 47.65 70.28 48.48 69.95 48.98 68.39 48.09 68.45 48.21 69.02 49.38 68.3 49.64 63.75 49.18 57.38 47.61 52.88 45.83 52.21 45.45 50.78 45.82 48.02 46.2 47.71 44.17 46.35 42.46 44.58 40.75 44.49 40.07 43.57 39.17 42.2 39.29 39.25 38.98 40.84 37.88 41.24 36.9 40.97 36.64 37.63 33.37 34.58 30.8 33.93 30.23 29.51 30.85 21.86 30.28"/>
        <g>
          <polygon class="cls-6" points="62.42 38.79 63.95 37.78 64.7 36.22 64.24 36.62 63.44 36.82 61.31 37.85 61.31 38.04 61.44 38.53 62.42 38.79"/>
          <polygon class="cls-10" points="62.42 38.6 63.95 37.58 64.7 36.22 63.03 36.68 61.41 37.19 61.46 37.53 61.31 37.85 61.44 38.34 62.42 38.6"/>
        </g>
        <g>
          <polygon class="cls-6" points="62.42 37.95 63.95 36.93 64.7 35.37 63.96 35.94 63.44 35.98 61.31 37 61.31 37.19 61.44 37.69 62.42 37.95"/>
          <polygon class="cls-10" points="62.42 37.75 63.95 36.74 64.7 35.37 63.03 35.84 61.41 36.35 61.46 36.69 61.31 37 61.44 37.49 62.42 37.75"/>
        </g>
        <polygon class="cls-17" points="67.3 46.02 69.95 47.54 70.28 47.03 69.95 46.21 66.34 42.32 62.86 39.39 59.21 36.92 54.93 34.97 50.38 33.37 45.56 31.98 40.62 30.62 37.27 29.66 35.53 28.86 33.79 27.86 32.2 26.84 31.77 26.65 31.61 26.75 45.86 35.87 60.15 44.67 67.3 46.02"/>
        <polygon class="cls-18" points="68.08 46.32 69.89 47.32 70.14 47 69.67 46.28 67.3 44.76 67.21 45.29 68.08 46.32"/>
        <polygon class="cls-19" points="68.3 48.2 63.75 47.73 57.38 46.16 52.88 44.39 49.14 42.23 44.72 38.85 40.97 35.19 37.63 31.92 34.58 29.36 31.61 26.75 37.94 30.67 57.87 41.91 60.59 43.48 64.55 45.15 68.45 46.76 69.02 47.94 68.3 48.2"/>
        <g>
          <polygon class="cls-6" points="35.21 28.16 36.35 25.45 36.35 25.26 34.26 24.8 31.99 26.78 34.36 27.91 35.21 28.16"/>
          <polygon class="cls-10" points="35.21 27.97 36.35 25.26 35.37 20.84 34.26 24.61 31.99 26.58 34.36 27.72 35.21 27.97"/>
        </g>
        <g>
          <polygon class="cls-6" points="49.34 32 49.38 30.91 49.32 30.61 45.56 30.63 45.62 30.93 47.56 31.65 49.34 32"/>
          <polygon class="cls-10" points="49.27 31.7 49.32 30.61 48.4 29.13 47.25 30.2 45.56 30.63 47.5 31.35 49.27 31.7"/>
        </g>
        <polygon class="cls-2" points="67.3 44.67 69.95 46.21 68.81 43.8 66.34 40.99 62.86 38.05 59.21 35.58 54.93 33.62 50.38 32.03 45.56 30.63 40.62 29.27 37.27 28.32 35.31 27.72 33.43 27.08 31.99 26.58 31.66 26.56 31.61 26.75 45.86 34.53 60.15 43.32 67.3 44.67"/>
        <polygon class="cls-20" points="69.95 46.21 68.81 43.8 66.34 40.99 62.86 38.05 59.21 35.58 54.93 33.62 50.38 32.03 45.56 30.63 40.62 29.27 37.27 28.32 35.31 27.72 33.43 27.08 35.21 27.81 51.68 33.9 57.06 36.32 60.61 38.42 63.19 40.3 69.95 46.21"/>
        <g>
          <polygon class="cls-6" points="41.55 36.47 40.68 37.04 39.91 37.35 39.25 37.54 42.2 37.85 44.09 37.69 44.09 37.69 44.09 37.49 43.66 37.27 41.55 36.47"/>
          <polygon class="cls-10" points="41.45 34.92 40.84 36.44 39.25 37.54 42.2 37.66 44.09 37.49 44.09 37.49 41.45 34.92"/>
        </g>
        <g>
          <polygon class="cls-6" points="44.94 38.74 44.38 37.87 44.38 37.97 44.38 37.97 44.9 39.2 46.69 40.76 48.7 42.69 48.02 44.76 50.78 44.38 52.88 43.83 52.88 43.64 52.39 43.55 49.14 41.68 44.94 38.74"/>
          <polygon class="cls-10" points="44.72 38.1 44.38 37.87 44.58 39.3 46.35 41.02 47.71 42.72 48.02 44.76 50.78 44.18 52.88 43.64 49.14 41.48 44.72 38.1"/>
        </g>
        <polygon class="cls-21" points="68.45 46.76 63.75 46.39 57.38 44.82 52.88 43.04 49.14 40.89 44.72 37.51 40.97 33.85 37.6 30.84 33.8 28.3 31.61 26.75 37.94 29.32 57.87 40.57 60.59 42.14 64.55 43.81 67.3 44.67 68.45 46.76"/>
        <polygon class="cls-22" points="60.57 44.83 57.25 44.07 53.41 42.58 49.62 40.39 45.61 37.25 41.86 33.7 46.2 37.06 50.39 40.17 54.04 42.22 57.44 43.55 60.57 44.83"/>
        <g>
          <polygon class="cls-23" points="63.43 45.35 64.16 45.35 64.68 45.05 64.68 44.63 64.16 44.33 63.43 44.33 62.91 44.63 62.91 45.05 63.43 45.35"/>
          <polygon class="cls-24" points="63.5 45.25 64.09 45.25 64.52 45.01 64.52 44.67 64.09 44.42 63.5 44.42 63.07 44.67 63.07 45.01 63.5 45.25"/>
          <polygon class="cls-25" points="63.61 45.1 63.98 45.1 64.24 44.95 64.24 44.73 63.98 44.59 63.61 44.59 63.35 44.73 63.35 44.95 63.61 45.1"/>
          <polygon class="cls-5" points="63.71 45.21 63.91 45.21 64.04 45.14 64.04 45.02 63.91 44.94 63.71 44.94 63.57 45.02 63.57 45.14 63.71 45.21"/>
        </g>
        <g>
          <polygon class="cls-6" points="57.53 40.2 57.23 39.21 58.22 38.32 56.89 38.13 53.82 38.19 51.7 37.85 50.93 37.61 50.89 37.75 54.35 39.39 57.53 40.2"/>
          <polygon class="cls-10" points="57.53 40.2 57.71 39.26 58.22 38.32 56.93 37.98 53.86 38.04 50.93 37.61 54.39 39.24 57.53 40.2"/>
        </g>
        <g>
          <polygon class="cls-6" points="34.19 28.74 29.51 29.4 21.86 28.84 23.06 28.82 26.13 28.62 28.39 28.2 31.61 26.94 34.19 28.55 34.19 28.74"/>
          <polygon class="cls-10" points="29.51 29.21 34.19 28.55 34.18 28.53 33.8 28.3 31.61 26.75 28.39 28 21.86 28.84 29.51 29.21"/>
        </g>
      </g>
      <g>
        <path class="cls-1" d="M164.85,229.6,158,225.67l9.07-5.23,6.81,3.93Z" transform="translate(-137.95 -188.83)"/>
        <polygon class="cls-15" points="22.07 36.04 29.32 31.6 34.26 34.75 26.65 39.5 22.07 36.04"/>
        <g>
          <polygon class="cls-2" points="26.83 38.94 20.61 35.34 29.23 30.37 35.45 33.96 26.83 38.94"/>
          <polygon class="cls-26" points="29.23 30.56 35.1 33.96 34.83 34.11 29.23 30.87 29.23 30.56"/>
          <polygon class="cls-13" points="29.23 30.87 21.21 35.5 20.95 35.34 29.23 30.56 29.23 30.87"/>
          <polygon class="cls-15" points="34.83 34.11 26.83 38.74 21.21 35.5 29.23 30.87 34.83 34.11"/>
          <polygon class="cls-16" points="26.83 40.33 20.98 36.95 20.61 35.34 26.83 38.94 26.83 40.33"/>
          <polygon class="cls-14" points="35.07 35.57 26.83 40.33 26.83 38.94 35.45 33.96 35.07 35.57"/>
        </g>
        <g>
          <polygon class="cls-2" points="26.89 38.72 20.23 34.87 29.16 29.72 35.82 33.56 26.89 38.72"/>
          <polygon class="cls-16" points="29.16 29.92 35.46 33.56 35.17 33.72 29.16 30.25 29.16 29.92"/>
          <polygon class="cls-14" points="29.16 30.25 20.87 35.03 20.59 34.87 29.16 29.92 29.16 30.25"/>
          <polygon class="cls-27" points="29.16 30.25 20.87 35.03 22.66 36.06 29.32 32.22 29.16 30.25"/>
          <polygon class="cls-16" points="29.32 32.22 33.55 34.66 35.17 33.72 29.16 30.25 29.32 32.22"/>
          <polygon class="cls-16" points="26.89 39.01 26.65 38.87 25.64 39.28 22.94 37.71 22.48 36.46 20.23 35.16 20.23 34.87 26.89 38.72 26.89 39.01"/>
          <polygon class="cls-14" points="35.82 33.85 33.45 35.22 32.92 36.54 28.63 39.12 27.15 38.86 26.89 39.01 26.89 38.72 35.82 33.56 35.82 33.85"/>
          <polygon class="cls-2" points="26.89 38.72 20.23 34.87 20.59 34.87 27.08 38.61 26.89 38.72"/>
          <polygon class="cls-2" points="26.89 38.72 35.82 33.56 35.63 33.45 26.83 38.54 26.89 38.72"/>
        </g>
      </g>
      <g>
        <path class="cls-1" d="M166.17,229.65l6.51-3.76h1.66l10.17,5.94v1L178,236.55h-1.67l-10.16-5.94Z" transform="translate(-137.95 -188.83)"/>
        <rect class="cls-27" x="34.65" y="36.66" width="1.78" height="1.05"/>
        <polygon class="cls-14" points="34.89 36.74 34.81 37.43 34.21 39.07 29.74 41.16 28.4 41.16 28.4 40.33 33.56 37.37 34.89 36.74"/>
        <polygon class="cls-14" points="36.23 36.74 36.31 37.43 36.54 37.9 46.08 43.58 46.37 43.31 46.37 42.48 36.49 36.74 36.23 36.74"/>
        <polygon class="cls-15" points="46.37 42.88 46.37 43.75 39.96 47.45 38.46 47.45 28.4 41.57 28.4 40.7 34.81 37 36.31 37 46.37 42.88"/>
        <polygon class="cls-16" points="38.46 47.55 28.4 41.67 28.21 41.25 28.34 41.16 38.46 47.06 38.94 47.46 38.46 47.55"/>
        <polygon class="cls-14" points="46.55 43.42 46.27 43.42 39.93 47.06 39.78 47.46 39.96 47.55 46.37 43.85 46.55 43.42"/>
        <polygon class="cls-27" points="40.04 47.19 39.96 47.55 38.46 47.55 38.38 47.19 39.06 47.06 40.04 47.19"/>
        <path class="cls-2" d="M166.17,229.12l6.51-3.76h1.66l10.17,5.94v.95L178,236h-1.67l-10.16-5.94Zm11.67,6.68,6.29-3.63v-.78l-9.94-5.82h-1.35l-6.29,3.64V230l9.94,5.81Z" transform="translate(-137.95 -188.83)"/>
      </g>
      <g>
        <polygon class="cls-2" points="60.4 32.48 62.58 28.72 64.08 26.65 63.92 18.26 65.13 15.19 67.31 13.95 68.2 14.79 69.02 17 66.98 28.4 65.85 30.42 62.14 34.18 60.4 32.48"/>
        <polygon class="cls-3" points="59.23 33.7 56.85 34.37 55.23 36.38 55.64 37.85 57.86 38.37 59.72 37.1 61.01 36.03 61.31 35.37 62.93 34.31 62.05 32.17 59.81 32.17 59.23 33.7"/>
      </g>
    </g>
    <g>
      <g>
        <polygon class="cls-1" points="112 80.98 106.95 80.98 103.38 83.05 103.38 85.96 109.36 89.41 114.4 89.41 117.98 87.35 117.98 84.43 112 80.98"/>
        <polygon class="cls-4" points="110.61 81.86 105.6 84.05 104.23 84.13 104.23 84.39 104.49 85.28 105.5 85.65 106.97 85.24 109.14 83.59 110.55 83.12 111.56 82.09 111.56 81.82 110.61 81.86"/>
        <polygon class="cls-5" points="107.81 81.01 106.79 81.78 104.57 83.02 104.23 84.13 104.49 85.02 105.5 85.38 106.97 84.97 109.14 83.32 110.55 82.86 111.56 81.82 111.56 80.64 107.81 81.01"/>
        <polygon class="cls-2" points="99.86 51.41 103.73 47.15 104.18 41.75 102.33 40.51 101.35 41.17 100.96 43.02 97.13 49.29 98.22 50.98 99.86 51.41"/>
        <polygon class="cls-7" points="108.42 39.85 109.46 41.17 109.46 42.63 108.26 44.61 105.87 45.2 104.43 44.32 104.26 41.87 107.33 39.52 108.42 39.85"/>
        <polygon class="cls-5" points="108.42 39.85 108.95 40.95 108.99 42.34 107.82 43.76 106 44.54 104.82 42.2 102.73 42.48 102.33 45.01 102.73 47.81 110.49 52.4 112.47 56.43 116.32 56.7 116.94 53.04 114.67 43.76 113.17 42.81 112.18 42.34 112.14 41.87 110.77 41.07 109.42 40.51 108.42 39.85"/>
        <polygon class="cls-6" points="103.97 48.35 104.05 43.59 105.56 41.68 104.56 40.74 102.84 42.99 102.85 47.58 103.97 48.35"/>
        <polygon class="cls-6" points="105.19 56.7 105.5 62.76 106.33 67.84 106.53 69.9 107.21 72.46 107.5 76.56 107.68 80.98 109.8 81.51 111.81 80.52 111.96 72.22 111.27 69.31 111.64 58.77 109.13 57.72 105.19 56.7"/>
        <polygon class="cls-6" points="108.95 50.45 109.11 46.71 110.84 43.39 113.17 42.81 112.14 41.87 109.84 42.45 107.84 46.16 107.51 50.21 108.95 50.45"/>
        <polygon class="cls-4" points="114.62 84.96 110.23 87.59 108.93 88.23 108.93 88.47 109.88 89.14 111.36 89.14 112.83 88.65 114.6 86.57 115.69 85.78 115.9 84.29 115.9 84.05 114.62 84.96"/>
        <polygon class="cls-5" points="112.83 82.88 111.96 84.39 110 86.43 109.07 87.26 108.93 88.23 109.88 88.9 111.36 88.9 112.83 88.41 114.6 86.33 115.69 85.54 115.9 84.05 115.61 82.4 112.83 82.88"/>
        <polygon class="cls-10" points="101.98 46.69 105.69 48.96 110.02 50.27 111.96 53.07 113 55.62 115.33 55.62 116.94 53.04 117.09 59.49 115.79 71.24 116.52 75.12 115.94 82.6 113.96 83.87 112.31 82.84 112.01 74.99 111.03 71.53 109.94 61.39 107.88 60.46 105.19 56.7 105.25 52.59 101.98 46.69"/>
        <polygon class="cls-8" points="101.04 39.54 101.23 41.05 102.17 42.05 102.17 43.64 102.51 43.82 102.92 43.81 103.73 44.8 104.82 44.88 107.19 42.7 107.26 41.66 108 41.03 108.07 40.51 108.26 39.19 105.61 38.08 102.28 38.69 101.04 39.54"/>
        <polygon class="cls-9" points="104.82 40 105.4 40.56 106.18 40.63 106.7 41.17 106.85 40.9 106.91 40.24 107.36 39.67 108 39.75 108.07 40.51 108.4 40.16 108.48 38.97 108.36 38.08 105.7 39.04 104.82 40"/>
        <polygon class="cls-9" points="101.23 39.67 101.78 40.64 103.61 41.34 103.1 40.66 102.99 39.75 101.23 39.67"/>
        <polygon class="cls-5" points="100.72 37.46 101.66 35.48 104.9 34.29 107.86 35.44 108.36 38.08 107.9 39.19 106.43 40.04 104.27 40.46 102.17 40.34 101.04 39.54 100.72 37.46"/>
      </g>
      <g>
        <polygon class="cls-1" points="62.44 87.03 104.72 111.45 127.93 98.06 85.69 73.61 62.44 87.03"/>
        <g>
          <polygon class="cls-14" points="102.84 100.53 126.04 87.14 126.04 85.92 64.32 77.08 102.84 100.53"/>
          <polygon class="cls-15" points="64.32 77.08 102.84 99.31 126.04 85.92 87.53 63.68 64.32 77.08"/>
          <polygon class="cls-16" points="64.32 78.26 102.84 100.53 102.84 99.31 64.32 77.08 64.32 78.26"/>
        </g>
        <g>
          <g>
            <polygon class="cls-14" points="66.06 87.12 64.32 88.13 63.26 65.81 64.09 64.39 66.06 64.57 66.06 87.12"/>
            <polygon class="cls-15" points="64.32 65.57 63.52 65.81 62.44 64.48 64.18 63.48 66.06 64.57 64.32 65.57"/>
            <polygon class="cls-16" points="64.32 88.13 62.44 87.03 62.44 64.48 64.32 65.57 64.32 88.13"/>
          </g>
          <g>
            <polygon class="cls-14" points="127.93 98.06 126.19 99.06 125.13 76.74 125.95 75.32 127.93 75.5 127.93 98.06"/>
            <polygon class="cls-15" points="126.19 76.5 125.39 76.74 124.3 75.42 126.04 74.41 127.93 75.5 126.19 76.5"/>
            <polygon class="cls-16" points="126.19 99.06 124.3 97.97 124.3 75.42 126.19 76.5 126.19 99.06"/>
          </g>
          <g>
            <polygon class="cls-14" points="106.46 110.44 104.72 111.45 103.67 89.14 104.49 87.71 106.46 87.89 106.46 110.44"/>
            <polygon class="cls-15" points="104.72 88.9 103.93 89.14 102.84 87.81 104.58 86.8 106.46 87.89 104.72 88.9"/>
            <polygon class="cls-16" points="104.72 111.45 102.84 110.36 102.84 87.81 104.72 88.9 104.72 111.45"/>
          </g>
        </g>
        <g>
          <polygon class="cls-14" points="104.72 88.9 127.93 75.5 127.93 74.29 62.44 63.27 104.72 88.9"/>
          <polygon class="cls-15" points="62.44 63.27 104.72 87.68 127.93 74.29 85.64 49.87 62.44 63.27"/>
          <polygon class="cls-16" points="62.44 64.45 104.72 88.9 104.72 87.68 62.44 63.27 62.44 64.45"/>
        </g>
      </g>
      <g>
        <path class="cls-1" d="M215.3,258.49l-6.81-3.93,9.07-5.24,6.81,3.93Z" transform="translate(-137.95 -188.83)"/>
        <polygon class="cls-15" points="72.52 64.93 79.77 60.49 84.71 63.64 77.1 68.39 72.52 64.93"/>
        <g>
          <polygon class="cls-2" points="77.28 67.82 71.06 64.23 79.68 59.26 85.89 62.84 77.28 67.82"/>
          <polygon class="cls-26" points="79.68 59.45 85.56 62.84 85.28 63 79.68 59.76 79.68 59.45"/>
          <polygon class="cls-13" points="79.68 59.76 71.67 64.38 71.4 64.23 79.68 59.45 79.68 59.76"/>
          <polygon class="cls-15" points="85.28 63 77.28 67.62 71.67 64.38 79.68 59.76 85.28 63"/>
          <polygon class="cls-16" points="77.28 69.22 71.43 65.84 71.06 64.23 77.28 67.82 77.28 69.22"/>
          <polygon class="cls-14" points="85.52 64.46 77.28 69.22 77.28 67.82 85.89 62.84 85.52 64.46"/>
        </g>
        <g>
          <polygon class="cls-2" points="77.34 67.6 70.69 63.76 79.61 58.6 86.27 62.45 77.34 67.6"/>
          <polygon class="cls-16" points="79.61 58.81 85.91 62.45 85.62 62.61 79.61 59.14 79.61 58.81"/>
          <polygon class="cls-14" points="79.61 59.14 71.33 63.92 71.04 63.76 79.61 58.81 79.61 59.14"/>
          <polygon class="cls-27" points="79.61 59.14 71.33 63.92 73.11 64.95 79.77 61.11 79.61 59.14"/>
          <polygon class="cls-16" points="79.77 61.11 84 63.55 85.62 62.61 79.61 59.14 79.77 61.11"/>
          <polygon class="cls-16" points="77.34 67.9 77.1 67.75 76.09 68.17 73.39 66.6 72.93 65.34 70.69 64.05 70.69 63.76 77.34 67.6 77.34 67.9"/>
          <polygon class="cls-14" points="86.27 62.74 83.9 64.11 83.37 65.42 79.08 68.01 77.6 67.75 77.34 67.9 77.34 67.6 86.27 62.45 86.27 62.74"/>
          <polygon class="cls-2" points="77.34 67.6 70.69 63.76 71.04 63.76 77.53 67.49 77.34 67.6"/>
          <polygon class="cls-2" points="77.34 67.6 86.27 62.45 86.08 62.34 77.28 67.42 77.34 67.6"/>
        </g>
      </g>
      <g>
        <polygon class="cls-1" points="111.7 66.78 109.14 65.51 104.86 63.55 100.31 61.96 95.49 60.56 90.55 59.2 88.8 58.7 87.75 59.15 87.08 59.57 86.6 60.15 86.3 60.79 87.56 61.85 90.9 65.13 91.17 65.38 90.77 66.36 89.19 67.47 92.13 67.78 93.5 67.66 94.42 68.56 94.52 69.23 96.28 70.95 97.64 72.65 97.95 74.69 100.71 74.3 102.14 73.93 102.81 74.32 104.46 74.97 105.5 75.11 107.96 74.54 111.25 72.66 112.94 71.15 113.95 69.5 113.63 68.68 111.7 66.78"/>
        <polygon class="cls-17" points="112.31 67.61 109.14 65.4 104.86 63.45 100.31 61.85 95.49 60.46 93.59 61.03 95.8 64.36 107.45 71.53 108.8 69.02 112.31 67.61"/>
        <polygon class="cls-20" points="88.36 57.44 101.61 62.38 106.99 64.8 110.54 66.91 111.51 67.61 113.63 67.24 112.79 66.53 109.14 64.06 104.86 62.11 100.31 60.51 95.49 59.12 90.55 57.76 88.8 57.26 88.36 57.44"/>
        <g>
          <polygon class="cls-6" points="91.48 64.95 90.61 65.52 89.84 65.84 89.19 66.02 92.13 66.33 94.02 66.17 94.02 66.17 94.02 65.98 93.59 65.75 91.48 64.95"/>
          <polygon class="cls-10" points="91.38 63.4 90.77 64.92 89.19 66.02 92.13 66.14 94.02 65.98 94.02 65.98 91.38 63.4"/>
        </g>
        <g>
          <polygon class="cls-6" points="94.87 67.23 94.31 66.35 94.31 66.46 94.31 66.46 94.83 67.69 96.62 69.24 98.64 71.17 97.95 73.24 100.71 72.86 102.81 72.32 102.81 72.12 102.32 72.04 99.07 70.16 94.87 67.23"/>
          <polygon class="cls-10" points="94.65 66.59 94.31 66.35 94.52 67.79 96.28 69.5 97.64 71.21 97.95 73.24 100.71 72.66 102.81 72.12 99.07 69.97 94.65 66.59"/>
        </g>
        <polygon class="cls-28" points="113.63 67.24 112.79 66.53 109.14 64.06 104.86 62.11 100.31 60.51 95.49 59.12 90.55 57.76 88.8 57.26 87.75 57.71 87.08 58.12 86.6 58.7 87.01 59.45 90.47 62.58 94.02 66.17 98.65 69.64 102.72 72.05 104.57 72.22 106.95 69.88 113.63 67.24"/>
        <polygon class="cls-29" points="102.6 71.53 104.46 68.88 106.52 67.36 108.63 66.24 110.94 65.87 112.01 66 110.98 65.94 108.98 66.46 106.87 67.61 104.94 69.08 102.6 71.53"/>
        <polygon class="cls-29" points="101.09 70.52 102.95 67.87 105.01 66.35 107.12 65.23 109.43 64.86 110.5 64.99 109.47 64.93 107.47 65.45 105.36 66.6 103.44 68.07 101.09 70.52"/>
        <polygon class="cls-29" points="99.57 69.53 101.43 66.87 103.48 65.35 105.6 64.24 107.91 63.87 108.98 63.99 107.95 63.94 105.94 64.46 103.84 65.61 101.92 67.07 99.57 69.53"/>
        <polygon class="cls-29" points="97.8 68.7 99.66 66.05 101.71 64.53 103.83 63.41 106.14 63.04 107.21 63.17 106.18 63.11 104.17 63.63 102.07 64.78 100.14 66.25 97.8 68.7"/>
        <polygon class="cls-29" points="95.84 67.84 97.69 65.19 99.76 63.67 101.87 62.55 104.18 62.18 105.25 62.31 104.22 62.25 102.22 62.77 100.11 63.92 98.19 65.39 95.84 67.84"/>
        <polygon class="cls-29" points="94.31 66.62 96.03 64.17 97.93 62.77 99.88 61.73 102.01 61.39 103 61.51 102.05 61.46 100.2 61.94 98.25 63 96.48 64.35 94.31 66.62"/>
        <polygon class="cls-29" points="92.88 65.48 94.46 63.21 96.22 61.91 98.02 60.96 99.99 60.64 100.91 60.75 100.03 60.7 98.32 61.15 96.52 62.13 94.88 63.38 92.88 65.48"/>
        <polygon class="cls-29" points="91.51 64.13 92.88 62.16 94.41 61.04 95.97 60.21 97.68 59.94 98.47 60.03 97.71 59.99 96.23 60.38 94.67 61.23 93.25 62.31 91.51 64.13"/>
        <polygon class="cls-29" points="90.21 62.76 91.35 61.12 92.62 60.19 93.93 59.5 95.35 59.27 96.01 59.35 95.38 59.31 94.14 59.64 92.84 60.34 91.66 61.25 90.21 62.76"/>
        <polygon class="cls-29" points="89.06 61.81 90.08 60.35 91.21 59.52 92.37 58.9 93.64 58.7 94.22 58.77 93.66 58.74 92.56 59.02 91.4 59.65 90.35 60.46 89.06 61.81"/>
        <polygon class="cls-29" points="87.95 60.79 88.81 59.57 89.75 58.87 90.72 58.36 91.78 58.19 92.27 58.25 91.79 58.22 90.88 58.46 89.91 58.99 89.03 59.66 87.95 60.79"/>
        <polygon class="cls-29" points="86.94 59.82 87.63 58.84 88.39 58.27 89.17 57.86 90.03 57.72 90.43 57.77 90.05 57.75 89.31 57.94 88.52 58.37 87.81 58.91 86.94 59.82"/>
        <polygon class="cls-19" points="86.6 58.7 87.53 59.32 90.9 62.34 94.65 65.99 99.07 69.37 102.81 71.52 104.57 72.22 104.46 73.52 102.81 72.87 99.07 70.72 94.65 67.33 90.9 63.68 87.56 60.41 86.3 59.34 86.6 58.7"/>
        <polygon class="cls-30" points="105.06 71.73 103.34 71.06 99.55 68.87 95.54 65.73 91.8 62.18 96.13 65.55 100.33 68.65 103.97 70.7 105.5 71.3 105.06 71.73"/>
        <polygon class="cls-31" points="113.73 68.22 112.61 67.49 111.53 68.02 110.19 69.68 110.5 70.52 112.49 69.87 113.73 68.22"/>
        <polygon class="cls-32" points="104.46 73.52 104.18 72.83 104.57 72.22 106.61 69.88 107.8 69.05 109.99 67.78 112.48 67.28 113.63 67.24 113.73 67.48 112.08 68.25 110.58 69.79 112.3 69.47 113.73 68.22 113.7 68.45 112.94 69.7 111.25 71.22 107.96 73.09 105.5 73.66 104.46 73.52"/>
        <g>
          <polygon class="cls-5" points="109.16 71.24 108.8 71.03 108.8 70.45 109.16 69.83 109.67 69.53 110.02 69.74 110.02 70.33 109.67 70.95 109.16 71.24"/>
          <polygon class="cls-32" points="109.3 70.78 109.13 70.68 109.13 70.41 109.3 70.13 109.53 69.99 109.69 70.09 109.69 70.36 109.53 70.64 109.3 70.78"/>
        </g>
      </g>
      <g>
        <g>
          <path class="cls-1" d="M231.59,267.8,238.1,264h1.67L249.93,270v.95l-6.51,3.76h-1.66l-10.17-5.93Z" transform="translate(-137.95 -188.83)"/>
          <rect class="cls-27" x="100.07" y="74.81" width="1.78" height="1.05"/>
          <polygon class="cls-14" points="100.31 74.89 100.23 75.58 99.64 77.22 95.16 79.31 93.83 79.31 93.83 78.47 98.99 75.52 100.31 74.89"/>
          <polygon class="cls-14" points="101.65 74.89 101.73 75.58 101.96 76.04 111.5 81.72 111.79 81.45 111.79 80.62 101.92 74.89 101.65 74.89"/>
          <polygon class="cls-15" points="111.79 81.03 111.79 81.89 105.39 85.59 103.88 85.59 93.83 79.71 93.83 78.85 100.23 75.15 101.73 75.15 111.79 81.03"/>
          <polygon class="cls-16" points="103.88 85.69 93.83 79.82 93.64 79.39 93.77 79.31 103.88 85.2 104.36 85.61 103.88 85.69"/>
          <polygon class="cls-14" points="111.98 81.57 111.69 81.57 105.35 85.2 105.2 85.61 105.39 85.69 111.79 82 111.98 81.57"/>
          <polygon class="cls-27" points="105.47 85.33 105.39 85.69 103.88 85.69 103.8 85.33 104.49 85.2 105.47 85.33"/>
          <path class="cls-2" d="M231.59,267.26l6.51-3.76h1.67l10.16,5.94v1l-6.51,3.76h-1.66l-10.17-5.94ZM243.26,274l6.29-3.64v-.78l-9.94-5.81h-1.35L232,267.35v.78l9.94,5.82Z" transform="translate(-137.95 -188.83)"/>
        </g>
        <g>
          <polygon class="cls-1" points="110.71 83.42 110.39 82.59 109.25 80.19 106.77 77.37 104.14 75.14 102.01 75.43 102.01 75.43 101.23 75.53 98.23 76.88 95.91 79.28 95.57 79.63 95.57 79.63 95.26 79.95 94.9 80.78 95.01 81.44 97.81 82.55 104.19 84.12 108.74 84.59 109.45 84.33 108.89 83.15 108.82 83.03 110.39 83.93 110.71 83.42"/>
          <polygon class="cls-17" points="97.96 78.33 100.58 79.95 107.73 81.3 110.39 82.82 110.71 82.31 110.39 81.48 106.77 77.6 103.3 74.67 97.96 78.33"/>
          <polygon class="cls-18" points="108.52 81.6 110.33 82.6 110.58 82.28 110.1 81.56 107.73 80.04 107.64 80.57 108.52 81.6"/>
          <polygon class="cls-19" points="97.35 77.85 98.3 77.19 101.02 78.76 104.99 80.44 108.89 82.04 109.45 83.22 108.74 83.48 104.19 83.01 97.81 81.44 95.01 80.34 94.9 79.67 95.26 78.84 97.35 77.85"/>
          <polygon class="cls-2" points="98.23 75.77 100.58 78.6 107.73 79.95 110.39 81.48 109.25 79.08 106.77 76.26 104.14 74.03 101.23 74.42 98.23 75.77"/>
          <polygon class="cls-20" points="102.01 74.32 104.09 75.65 110.39 81.48 109.25 79.08 106.77 76.26 104.14 74.03 102.01 74.32"/>
          <polygon class="cls-21" points="98.23 75.77 101.02 77.42 104.99 79.09 107.73 79.95 108.89 82.04 104.19 81.67 97.81 80.09 95.26 78.84 98.23 75.77"/>
          <polygon class="cls-22" points="95.99 78.08 97.87 78.83 101 80.11 97.68 79.35 95.57 78.52 95.99 78.08"/>
          <g>
            <polygon class="cls-23" points="103.86 80.63 104.59 80.63 105.11 80.33 105.11 79.91 104.59 79.61 103.86 79.61 103.34 79.91 103.34 80.33 103.86 80.63"/>
            <polygon class="cls-24" points="103.93 80.53 104.53 80.53 104.95 80.29 104.95 79.95 104.53 79.7 103.93 79.7 103.51 79.95 103.51 80.29 103.93 80.53"/>
            <polygon class="cls-25" points="104.05 80.38 104.41 80.38 104.67 80.23 104.67 80.01 104.41 79.86 104.05 79.86 103.79 80.01 103.79 80.23 104.05 80.38"/>
            <polygon class="cls-5" points="104.14 80.49 104.34 80.49 104.48 80.41 104.48 80.3 104.34 80.22 104.14 80.22 104 80.3 104 80.41 104.14 80.49"/>
          </g>
        </g>
      </g>
      <g>
        <polygon class="cls-1" points="87.57 56.01 85.88 55.5 83.99 54.93 84.96 52.64 84.96 52.44 84.53 50.51 82.98 51.41 82.87 51.8 80.6 53.77 80.27 53.75 80.22 53.94 77 55.19 76.27 55.28 74.48 56.32 78.11 56.59 82.54 55.97 83.19 56.54 84.8 57.9 85.11 57.95 85.85 57.77 86.85 57.21 87.36 56.75 87.66 56.25 87.57 56.01"/>
        <polygon class="cls-19" points="84.8 57.03 83.19 55.67 80.22 53.06 85.46 56.31 84.8 57.03"/>
        <g>
          <polygon class="cls-6" points="83.82 54.47 84.96 51.76 84.96 51.56 82.87 51.12 80.6 53.08 82.97 54.22 83.82 54.47"/>
          <polygon class="cls-10" points="83.82 54.27 84.96 51.56 83.98 47.15 82.87 50.92 80.6 52.89 82.97 54.03 83.82 54.27"/>
        </g>
        <polygon class="cls-2" points="87.57 55.13 85.88 54.62 83.92 54.03 82.04 53.39 80.6 52.89 80.27 52.87 80.22 53.06 85.9 56.16 87.57 55.13"/>
        <polygon class="cls-20" points="87.57 55.13 85.88 54.62 83.92 54.03 82.04 53.39 83.82 54.12 87.1 55.34 87.57 55.13"/>
        <polygon class="cls-21" points="85.28 56.53 82.41 54.61 80.22 53.06 86.55 55.63 85.28 56.53"/>
        <g>
          <polygon class="cls-6" points="82.8 55.05 78.11 55.71 70.47 55.15 71.67 55.14 74.74 54.93 77 54.51 80.22 53.25 82.8 54.86 82.8 55.05"/>
          <polygon class="cls-10" points="78.11 55.52 82.8 54.86 82.79 54.84 82.41 54.61 80.22 53.06 77 54.31 70.47 55.15 78.11 55.52"/>
        </g>
        <polygon class="cls-28" points="84.8 57.03 84.71 56.82 84.83 56.64 85.45 55.93 85.81 55.68 86.47 55.35 87.22 55.14 87.57 55.13 87.66 55.38 87.36 55.88 86.85 56.33 85.85 56.9 85.11 57.07 84.8 57.03"/>
      </g>
      <g>
        <polygon class="cls-2" points="97.13 49.29 95.84 52.16 94.71 56.16 96.53 56.97 99.01 53.53 99.86 51.41 97.13 49.29"/>
        <polygon class="cls-2" points="111.48 60.15 113.66 56.72 115.15 54.65 112.08 49.39 111.58 46.02 112.71 43.77 114.67 43.76 116.18 45.71 118.74 53.87 118.39 56.62 117.07 58.58 113.23 61.97 111.48 60.15"/>
        <polygon class="cls-3" points="110.17 61.32 107.79 62 106.18 64.01 106.58 65.47 108.8 66 110.66 64.73 111.95 63.66 112.26 63 113.87 61.94 113.14 60.15 111.33 59.8 110.17 61.32"/>
        <polygon class="cls-3" points="94.31 55.63 94.31 57.72 92.54 59.49 92.08 60.64 92.88 62.43 93.4 62.29 93.88 60.79 94.72 60.05 95.13 60.46 94.88 61.56 95.18 61.92 95.57 61.81 95.89 60.64 96.31 59.94 96.46 58.19 97.34 56.64 96.13 55.38 94.31 55.63"/>
      </g>
    </g>
    <g>
      <g>
        <polygon class="cls-1" points="87.5 108.26 25.39 72.35 0 87.01 31.44 105.16 25.7 105.16 22.36 107.09 22.36 109.81 25.7 111.74 35.1 111.74 38.44 109.81 38.44 109.2 62.15 122.89 87.5 108.26"/>
        <g>
          <g>
            <polygon class="cls-14" points="27.03 73.3 25.52 74.18 24.59 61.49 25.31 60.25 27.03 60.41 27.03 73.3"/>
            <polygon class="cls-15" points="25.52 61.29 24.82 61.49 23.87 60.34 25.39 59.46 27.03 60.41 25.52 61.29"/>
            <polygon class="cls-16" points="25.52 74.18 23.87 73.23 23.87 60.34 25.52 61.29 25.52 74.18"/>
          </g>
          <g>
            <polygon class="cls-14" points="3.16 87.08 1.65 87.96 0.72 72.72 1.44 71.47 3.16 71.63 3.16 87.08"/>
            <polygon class="cls-15" points="1.65 72.51 0.95 72.72 0 71.56 1.52 70.68 3.16 71.63 1.65 72.51"/>
            <polygon class="cls-16" points="1.65 87.96 0 87.01 0 71.56 1.65 72.51 1.65 87.96"/>
          </g>
          <g>
            <polygon class="cls-14" points="87.5 108.26 85.98 109.13 85.05 93.89 85.77 92.65 87.5 92.81 87.5 108.26"/>
            <polygon class="cls-15" points="85.98 93.68 85.28 93.89 84.33 92.73 85.85 91.86 87.5 92.81 85.98 93.68"/>
            <polygon class="cls-16" points="85.98 109.13 84.33 108.18 84.33 92.73 85.98 93.68 85.98 109.13"/>
          </g>
          <g>
            <polygon class="cls-14" points="63.67 122.02 62.15 122.89 61.23 107.65 61.95 106.41 63.67 106.56 63.67 122.02"/>
            <polygon class="cls-15" points="62.15 107.44 61.45 107.65 60.51 106.49 62.02 105.61 63.67 106.56 62.15 107.44"/>
            <polygon class="cls-16" points="62.15 122.89 60.51 121.94 60.51 106.49 62.15 107.44 62.15 122.89"/>
          </g>
        </g>
        <g>
          <polygon class="cls-14" points="62.15 107.44 87.5 92.81 87.5 86.37 0 65.12 62.15 107.44"/>
          <polygon class="cls-15" points="0 65.12 62.15 101 87.5 86.37 25.35 50.49 0 65.12"/>
          <polygon class="cls-16" points="0 71.53 62.15 107.44 62.15 101 0 65.12 0 71.53"/>
          <g>
            <polygon class="cls-14" points="58.87 103.76 58.41 104.02 52.98 97.88 58.87 100.75 58.87 103.76"/>
            <polygon class="cls-15" points="58.41 101.02 52.98 97.88 53.44 97.61 58.87 100.75 58.41 101.02"/>
            <polygon class="cls-16" points="58.41 104.02 52.98 100.88 52.98 97.88 58.41 101.02 58.41 104.02"/>
            <g>
              <polygon class="cls-33" points="53.58 98.8 53.58 100.61 57.83 103.06 57.83 102.89 53.73 100.52 53.73 98.88 53.58 98.8"/>
              <polygon class="cls-4" points="53.73 98.88 53.73 100.52 57.83 102.89 57.83 101.25 53.73 98.88"/>
            </g>
            <g>
              <g>
                <polygon class="cls-5" points="56.92 101.16 56.99 101.12 57.27 101.28 57.2 101.44 56.92 101.16"/>
                <polygon class="cls-2" points="57.2 101.32 57.27 101.28 57.48 101.63 57.4 102 57.2 101.32"/>
                <polygon class="cls-26" points="57.4 101.67 57.48 101.63 57.48 101.96 57.4 102 57.4 101.67"/>
                <polygon class="cls-13" points="57.2 102.12 57.4 102 57.4 101.67 57.2 101.32 56.92 101.16 56.71 101.28 56.71 101.6 56.92 101.95 57.2 102.12"/>
              </g>
              <g>
                <polygon class="cls-28" points="56.69 101.4 56.93 101.27 57.15 101.39 56.92 101.63 56.69 101.4"/>
                <polygon class="cls-32" points="56.92 101.53 57.15 101.39 57.32 101.67 57.08 102.08 56.92 101.53"/>
                <polygon class="cls-34" points="57.08 101.81 57.32 101.67 57.32 101.94 57.08 102.08 57.08 101.81"/>
                <polygon class="cls-31" points="56.92 102.17 57.08 102.08 57.08 101.81 56.92 101.53 56.69 101.4 56.53 101.5 56.53 101.76 56.69 102.04 56.92 102.17"/>
              </g>
            </g>
            <g>
              <g>
                <polygon class="cls-5" points="55.59 100.39 55.66 100.35 55.94 100.51 55.87 100.67 55.59 100.39"/>
                <polygon class="cls-2" points="55.87 100.56 55.94 100.51 56.15 100.86 56.08 101.23 55.87 100.56"/>
                <polygon class="cls-26" points="56.08 100.91 56.15 100.86 56.15 101.19 56.08 101.23 56.08 100.91"/>
                <polygon class="cls-13" points="55.87 101.35 56.08 101.23 56.08 100.91 55.87 100.55 55.59 100.39 55.38 100.5 55.38 100.84 55.59 101.18 55.87 101.35"/>
              </g>
              <g>
                <polygon class="cls-35" points="55.36 100.64 55.6 100.49 55.83 100.63 55.58 100.86 55.36 100.64"/>
                <polygon class="cls-36" points="55.59 100.77 55.83 100.63 55.99 100.91 55.75 101.31 55.59 100.77"/>
                <polygon class="cls-37" points="55.75 101.05 55.99 100.91 55.99 101.17 55.75 101.31 55.75 101.05"/>
                <polygon class="cls-38" points="55.59 101.4 55.75 101.31 55.75 101.05 55.59 100.77 55.36 100.64 55.2 100.73 55.2 101 55.36 101.27 55.59 101.4"/>
              </g>
            </g>
            <g>
              <g>
                <polygon class="cls-5" points="54.26 99.62 54.33 99.58 54.62 99.74 54.54 99.91 54.26 99.62"/>
                <polygon class="cls-2" points="54.54 99.79 54.62 99.74 54.81 100.1 54.74 100.46 54.54 99.79"/>
                <polygon class="cls-26" points="54.74 100.13 54.81 100.1 54.81 100.42 54.74 100.46 54.74 100.13"/>
                <polygon class="cls-13" points="54.54 100.58 54.74 100.46 54.74 100.13 54.54 99.79 54.26 99.62 54.05 99.73 54.05 100.07 54.26 100.42 54.54 100.58"/>
              </g>
              <g>
                <polygon class="cls-39" points="54.02 99.86 54.27 99.73 54.5 99.86 54.25 100.09 54.02 99.86"/>
                <polygon class="cls-40" points="54.25 100 54.5 99.86 54.66 100.13 54.41 100.54 54.25 100"/>
                <polygon class="cls-41" points="54.41 100.28 54.66 100.13 54.66 100.4 54.41 100.54 54.41 100.28"/>
                <polygon class="cls-42" points="54.25 100.63 54.41 100.54 54.41 100.28 54.25 100 54.02 99.86 53.87 99.96 53.87 100.22 54.02 100.5 54.25 100.63"/>
              </g>
            </g>
          </g>
        </g>
        <g>
          <polygon class="cls-14" points="23.05 51.37 23.74 50.97 23.74 47.04 23.05 47.45 23.05 51.37"/>
          <g>
            <polygon class="cls-14" points="23.16 48.81 84.7 84.35 84.7 84.57 23.16 49.04 23.16 48.81"/>
            <rect class="cls-27" x="191.82" y="219.76" width="0.27" height="71.07" transform="translate(-263.07 105.04) rotate(-60)"/>
            <polygon class="cls-15" points="23.49 48.47 85.03 84 84.84 84.11 23.29 48.58 23.49 48.47"/>
            <polygon class="cls-4" points="85.17 84.3 85.17 84.08 85.03 84 84.84 84.11 84.7 84.35 84.7 84.57 84.84 84.65 85.03 84.54 85.17 84.3"/>
          </g>
          <polygon class="cls-15" points="84.24 82.29 84.93 81.89 23.96 46.69 23.27 47.09 84.24 82.29"/>
          <polygon class="cls-15" points="84.1 87.04 84.4 87 84.79 86.64 24.11 51.6 23.41 52 84.1 87.04"/>
          <path class="cls-16" d="M160.66,240.17v-3.93l.56-.32,61,35.2.56,1V276l-.56.33-61-35.21Zm61.75,35.49v-3.6l-.36-.63-60.69-35-.36.21v3.6l.36.63,60.69,35Z" transform="translate(-137.95 -188.83)"/>
          <rect class="cls-16" x="222.42" y="270.84" width="0.8" height="1.13" transform="translate(-243.79 -41.09) rotate(-29.99)"/>
          <polygon class="cls-27" points="23.41 52 24.11 51.6 23.74 50.97 23.05 51.37 23.41 52"/>
          <polygon class="cls-14" points="84.8 87.19 85.5 86.78 85.5 82.86 84.8 83.27 84.8 87.19"/>
        </g>
        <g>
          <polygon class="cls-1" points="4.36 63.01 65.67 98.4 82.85 88.48 21.55 53.09 4.36 63.01"/>
          <g>
            <polygon class="cls-14" points="22.02 50.97 22.65 50.6 82.75 85.3 83.39 86.41 83.39 87.44 80.43 89.15 20.34 54.44 22.02 52.01 22.02 50.97"/>
            <polygon class="cls-15" points="82.75 85.3 82.95 85.19 22.85 50.49 22.65 50.6 82.75 85.3"/>
            <polygon class="cls-16" points="83.39 86.41 83.58 86.29 82.95 85.19 82.75 85.3 83.39 86.41"/>
            <polygon class="cls-27" points="83.39 87.44 83.58 87.32 83.58 86.29 83.39 86.41 83.39 87.44"/>
          </g>
          <g>
            <polygon class="cls-43" points="66.17 97.62 83.54 87.59 83.54 86.42 65.98 96.11 65.71 96.99 65.71 97.38 66.17 97.62"/>
            <polygon class="cls-11" points="66.17 96.45 83.54 86.42 82.83 85.19 65.27 94.88 65 95.76 65.4 96.28 66.17 96.45"/>
            <polygon class="cls-44" points="65.45 95.21 82.83 85.19 22.58 50.41 5.21 60.43 7.08 62.04 64.53 95.05 65.45 95.21"/>
            <polygon class="cls-12" points="4.5 60.85 5.21 60.43 65.45 95.21 66.17 96.45 66.17 97.62 65.45 98.03 5.21 63.25 4.5 62.01 4.5 60.85"/>
          </g>
          <g>
            <polygon class="cls-14" points="4.46 61.11 5.09 60.74 65.19 95.44 65.82 96.54 65.82 97.58 65.19 97.94 5.09 63.25 4.46 62.15 4.46 61.11"/>
            <g>
              <polygon class="cls-26" points="64.99 97.14 65.21 97.02 65.21 96.39 64.8 96.42 64.99 97.14"/>
              <polygon class="cls-2" points="64.99 96.52 65.21 96.39 64.83 95.75 64.08 95.56 64.99 96.52"/>
              <polygon class="cls-5" points="64.61 95.87 64.83 95.75 64.3 95.44 64.08 95.56 64.61 95.87"/>
              <polygon class="cls-13" points="63.7 95.78 64.08 95.56 64.62 95.87 64.99 96.52 64.99 97.14 64.62 97.36 64.08 97.05 63.7 96.39 63.7 95.78"/>
              <polygon class="cls-5" points="63.98 96.07 63.98 96.42 64.2 96.79 64.5 96.97 64.55 96.94 64.25 96.76 64.03 96.39 64.03 96.04 63.98 96.07"/>
              <polygon class="cls-27" points="64.03 96.04 64.03 96.39 64.25 96.76 64.55 96.94 64.71 96.85 64.71 96.57 64.68 96.43 64.5 96.12 64.2 95.94 64.03 96.04"/>
            </g>
            <g>
              <polygon class="cls-26" points="6.14 63.16 6.36 63.04 6.36 62.42 5.95 62.44 6.14 63.16"/>
              <polygon class="cls-2" points="6.14 62.54 6.36 62.42 5.98 61.76 5.23 61.58 6.14 62.54"/>
              <polygon class="cls-5" points="5.77 61.89 5.98 61.76 5.45 61.45 5.23 61.58 5.77 61.89"/>
              <polygon class="cls-13" points="4.85 61.8 5.23 61.58 5.77 61.89 6.14 62.54 6.14 63.16 5.77 63.38 5.23 63.07 4.85 62.41 4.85 61.8"/>
              <polygon class="cls-5" points="5.13 62.09 5.13 62.44 5.35 62.81 5.65 62.99 5.7 62.96 5.4 62.79 5.18 62.41 5.18 62.06 5.13 62.09"/>
              <polygon class="cls-27" points="5.18 62.06 5.18 62.41 5.4 62.79 5.7 62.96 5.87 62.87 5.87 62.59 5.83 62.45 5.65 62.15 5.35 61.97 5.18 62.06"/>
            </g>
            <polygon class="cls-15" points="65.19 95.44 65.38 95.33 5.29 60.63 5.09 60.74 65.19 95.44"/>
            <polygon class="cls-16" points="65.82 96.54 66.02 96.43 65.39 95.33 65.19 95.44 65.82 96.54"/>
            <polygon class="cls-27" points="65.82 97.58 66.02 97.46 66.02 96.43 65.82 96.54 65.82 97.58"/>
          </g>
        </g>
        <g>
          <g>
            <polygon class="cls-1" points="26.4 55.47 24.3 55.21 23.26 54.8 23.24 54.74 23.14 54.75 22.4 54.11 22.05 52.9 21.73 54.32 21.73 54.38 22.04 55.12 21.43 55.31 20.36 55.61 18.77 56.05 18.23 55.91 17.86 55.57 17.56 56.05 17.54 56.14 17.55 56.41 17.22 56.5 15.75 57.01 14.38 57.64 13.7 58.1 13.65 58 13.67 57.9 13.14 57.73 12.61 57.58 12.76 57.9 12.61 57.85 12.85 58.35 13.1 58.52 12.08 59.38 11.28 60.29 10.92 61.06 10.81 61.33 10.92 61.49 11.42 61.21 11.4 61.24 11.22 61.62 11.45 61.7 12.91 61.56 14.96 61.05 16.41 60.48 16.63 60.36 17.09 60.48 17.98 60.6 18.07 59.94 18.51 59.4 19.08 58.84 19.11 58.63 19.41 58.34 19.85 58.38 20.8 58.27 20.29 57.92 20.16 57.6 20.24 57.52 21.32 56.47 22.3 55.64 22.51 55.45 23.94 55.66 26.4 55.47"/>
            <g>
              <polygon class="cls-45" points="13.34 58.21 12.85 57.89 12.61 57.39 12.76 57.52 13.01 57.58 13.7 57.91 13.7 57.97 13.65 58.13 13.34 58.21"/>
              <polygon class="cls-46" points="13.34 58.15 12.85 57.82 12.61 57.39 13.14 57.54 13.67 57.7 13.65 57.81 13.7 57.91 13.65 58.07 13.34 58.15"/>
            </g>
            <g>
              <polygon class="cls-45" points="13.34 57.94 12.85 57.61 12.61 57.11 12.85 57.3 13.01 57.31 13.7 57.64 13.7 57.7 13.65 57.86 13.34 57.94"/>
              <polygon class="cls-46" points="13.34 57.88 12.85 57.55 12.61 57.11 13.14 57.27 13.67 57.43 13.65 57.54 13.7 57.64 13.65 57.8 13.34 57.88"/>
            </g>
            <polygon class="cls-17" points="11.77 60.54 10.92 61.03 10.81 60.87 10.92 60.6 12.08 59.35 13.2 58.41 14.38 57.61 15.75 56.98 17.22 56.47 18.77 56.02 20.36 55.58 21.43 55.27 22 55.02 22.55 54.69 23.07 54.37 23.2 54.31 23.26 54.34 18.67 57.27 14.07 60.1 11.77 60.54"/>
            <polygon class="cls-18" points="11.52 60.64 10.94 60.96 10.86 60.86 11.01 60.62 11.77 60.14 11.8 60.31 11.52 60.64"/>
            <polygon class="cls-47" points="11.45 61.24 12.91 61.09 14.96 60.59 16.41 60.02 17.61 59.32 19.04 58.23 20.24 57.05 21.32 56 22.3 55.17 23.26 54.34 21.22 55.6 14.81 59.22 13.93 59.72 12.65 60.26 11.4 60.78 11.22 61.16 11.45 61.24"/>
            <g>
              <polygon class="cls-45" points="22.1 54.79 21.73 53.92 21.73 53.86 22.4 53.71 23.14 54.34 22.37 54.71 22.1 54.79"/>
              <polygon class="cls-46" points="22.1 54.73 21.73 53.86 22.05 52.44 22.4 53.65 23.14 54.28 22.37 54.65 22.1 54.73"/>
            </g>
            <g>
              <polygon class="cls-45" points="17.55 56.03 17.54 55.68 17.56 55.58 18.77 55.59 18.75 55.68 18.13 55.91 17.55 56.03"/>
              <polygon class="cls-46" points="17.57 55.93 17.56 55.58 17.86 55.1 18.23 55.45 18.77 55.59 18.14 55.82 17.57 55.93"/>
            </g>
            <polygon class="cls-17" points="11.77 60.11 10.92 60.6 11.28 59.83 12.08 58.92 13.2 57.97 14.38 57.18 15.75 56.55 17.22 56.04 18.77 55.59 20.36 55.15 21.43 54.84 22.07 54.65 22.67 54.44 23.14 54.28 23.24 54.28 23.26 54.34 18.67 56.84 14.07 59.67 11.77 60.11"/>
            <polygon class="cls-20" points="10.92 60.6 11.28 59.83 12.08 58.92 13.2 57.97 14.38 57.18 15.75 56.55 17.22 56.04 18.77 55.59 20.36 55.15 21.43 54.84 22.07 54.65 22.67 54.44 22.1 54.68 16.8 56.64 15.07 57.42 13.92 58.09 13.09 58.7 10.92 60.6"/>
            <g>
              <polygon class="cls-45" points="20.06 57.46 20.34 57.65 20.59 57.75 20.8 57.81 19.85 57.91 19.24 57.86 19.24 57.86 19.24 57.8 19.38 57.72 20.06 57.46"/>
              <polygon class="cls-46" points="20.09 56.97 20.29 57.45 20.8 57.81 19.85 57.85 19.24 57.8 19.24 57.8 20.09 56.97"/>
            </g>
            <g>
              <polygon class="cls-45" points="18.97 58.2 19.15 57.91 19.15 57.95 19.15 57.95 18.98 58.35 18.4 58.85 17.75 59.47 17.98 60.13 17.09 60.01 16.41 59.84 16.41 59.77 16.57 59.75 17.61 59.14 18.97 58.2"/>
              <polygon class="cls-46" points="19.04 57.99 19.15 57.91 19.08 58.38 18.51 58.93 18.07 59.48 17.98 60.13 17.09 59.95 16.41 59.77 17.61 59.08 19.04 57.99"/>
            </g>
            <polygon class="cls-47" points="11.4 60.78 12.91 60.66 14.96 60.15 16.41 59.58 17.61 58.89 19.04 57.8 20.24 56.63 21.32 55.57 22.55 54.84 23.26 54.34 21.22 55.16 14.81 58.78 13.93 59.29 12.65 59.83 11.77 60.11 11.4 60.78"/>
            <polygon class="cls-22" points="13.94 60.16 15.01 59.91 16.24 59.43 17.46 58.73 18.75 57.72 19.96 56.57 18.56 57.66 17.21 58.66 16.04 59.31 14.94 59.74 13.94 60.16"/>
            <g>
              <polygon class="cls-23" points="13.02 60.32 12.78 60.32 12.61 60.23 12.61 60.09 12.78 60 13.02 60 13.18 60.09 13.18 60.23 13.02 60.32"/>
              <polygon class="cls-24" points="12.99 60.3 12.8 60.3 12.67 60.22 12.67 60.1 12.8 60.02 12.99 60.02 13.13 60.1 13.13 60.22 12.99 60.3"/>
              <polygon class="cls-25" points="12.96 60.24 12.84 60.24 12.76 60.2 12.76 60.13 12.84 60.08 12.96 60.08 13.04 60.13 13.04 60.2 12.96 60.24"/>
              <polygon class="cls-5" points="12.93 60.28 12.86 60.28 12.82 60.26 12.82 60.22 12.86 60.19 12.93 60.19 12.97 60.22 12.97 60.26 12.93 60.28"/>
            </g>
            <g>
              <polygon class="cls-45" points="14.91 58.66 15.01 58.35 14.69 58.06 15.12 58 16.11 58.02 16.79 57.91 17.04 57.83 17.05 57.88 15.94 58.4 14.91 58.66"/>
              <polygon class="cls-46" points="14.91 58.66 14.86 58.36 14.69 58.06 15.11 57.95 16.09 57.97 17.04 57.83 15.93 58.36 14.91 58.66"/>
            </g>
            <g>
              <polygon class="cls-45" points="22.43 54.98 23.94 55.19 26.4 55.01 26.01 55.01 25.02 54.94 24.3 54.8 23.26 54.4 22.43 54.92 22.43 54.98"/>
              <polygon class="cls-46" points="23.94 55.13 22.43 54.92 22.43 54.91 22.55 54.84 23.26 54.34 24.3 54.74 26.4 55.01 23.94 55.13"/>
            </g>
          </g>
          <g>
            <polygon class="cls-1" points="33.57 59.61 31.46 59.34 30.43 58.94 30.41 58.88 30.31 58.89 29.58 58.25 29.22 57.04 28.9 58.46 28.9 58.52 29.21 59.26 28.61 59.45 27.53 59.75 25.94 60.19 25.39 60.05 25.02 59.71 24.73 60.18 24.71 60.28 24.72 60.54 24.39 60.64 22.92 61.15 21.54 61.78 20.87 62.24 20.82 62.14 20.84 62.03 20.31 61.87 19.78 61.72 19.93 62.03 19.78 61.99 20.02 62.49 20.27 62.66 19.25 63.52 18.45 64.43 18.09 65.2 17.98 65.47 18.09 65.64 18.59 65.35 18.57 65.38 18.39 65.76 18.62 65.85 20.08 65.7 22.13 65.19 23.58 64.62 23.8 64.5 24.26 64.61 25.15 64.74 25.24 64.08 25.68 63.54 26.25 62.98 26.28 62.77 26.58 62.48 27.02 62.51 27.97 62.41 27.46 62.06 27.33 61.74 27.42 61.66 28.49 60.61 29.47 59.78 29.68 59.6 31.11 59.8 33.57 59.61"/>
            <g>
              <polygon class="cls-45" points="20.51 62.35 20.02 62.03 19.78 61.52 19.93 61.66 20.18 61.72 20.87 62.05 20.87 62.11 20.83 62.27 20.51 62.35"/>
              <polygon class="cls-46" points="20.51 62.29 20.02 61.96 19.78 61.52 20.31 61.68 20.84 61.84 20.82 61.95 20.87 62.05 20.83 62.21 20.51 62.29"/>
            </g>
            <g>
              <polygon class="cls-45" points="20.51 62.08 20.02 61.76 19.78 61.25 20.02 61.44 20.18 61.45 20.87 61.78 20.87 61.84 20.83 62 20.51 62.08"/>
              <polygon class="cls-46" points="20.51 62.02 20.02 61.69 19.78 61.25 20.31 61.4 20.84 61.57 20.82 61.68 20.87 61.78 20.83 61.93 20.51 62.02"/>
            </g>
            <polygon class="cls-17" points="18.94 64.68 18.09 65.17 17.98 65.01 18.09 64.74 19.25 63.49 20.37 62.55 21.54 61.75 22.92 61.12 24.39 60.61 25.94 60.16 27.53 59.72 28.61 59.41 29.17 59.16 29.73 58.84 30.24 58.51 30.38 58.45 30.43 58.48 25.84 61.41 21.24 64.25 18.94 64.68"/>
            <polygon class="cls-18" points="18.69 64.78 18.11 65.1 18.02 65 18.18 64.77 18.94 64.28 18.97 64.45 18.69 64.78"/>
            <polygon class="cls-47" points="18.62 65.38 20.08 65.23 22.13 64.73 23.58 64.15 24.79 63.46 26.21 62.37 27.42 61.19 28.49 60.14 29.47 59.31 30.43 58.48 28.39 59.74 21.98 63.36 21.1 63.87 19.82 64.4 18.57 64.92 18.39 65.3 18.62 65.38"/>
            <g>
              <polygon class="cls-45" points="29.27 58.93 28.9 58.06 28.9 58 29.58 57.85 30.31 58.49 29.54 58.85 29.27 58.93"/>
              <polygon class="cls-46" points="29.27 58.87 28.9 58 29.22 56.58 29.58 57.79 30.31 58.42 29.54 58.79 29.27 58.87"/>
            </g>
            <g>
              <polygon class="cls-45" points="24.72 60.17 24.71 59.81 24.73 59.72 25.94 59.73 25.92 59.82 25.29 60.05 24.72 60.17"/>
              <polygon class="cls-46" points="24.74 60.07 24.73 59.72 25.02 59.24 25.39 59.59 25.94 59.73 25.31 59.96 24.74 60.07"/>
            </g>
            <polygon class="cls-17" points="18.94 64.25 18.09 64.74 18.45 63.97 19.25 63.06 20.37 62.11 21.54 61.32 22.92 60.69 24.39 60.17 25.94 59.73 27.53 59.29 28.61 58.98 29.24 58.79 29.84 58.58 30.31 58.42 30.41 58.42 30.43 58.48 25.84 60.98 21.24 63.81 18.94 64.25"/>
            <polygon class="cls-20" points="18.09 64.74 18.45 63.97 19.25 63.06 20.37 62.11 21.54 61.32 22.92 60.69 24.39 60.17 25.94 59.73 27.53 59.29 28.61 58.98 29.24 58.79 29.84 58.58 29.27 58.82 23.97 60.78 22.24 61.56 21.09 62.23 20.26 62.84 18.09 64.74"/>
            <g>
              <polygon class="cls-45" points="27.23 61.6 27.51 61.79 27.76 61.89 27.97 61.95 27.02 62.05 26.41 62 26.41 62 26.41 61.93 26.55 61.86 27.23 61.6"/>
              <polygon class="cls-46" points="27.26 61.11 27.46 61.6 27.97 61.95 27.02 61.99 26.41 61.93 26.41 61.93 27.26 61.11"/>
            </g>
            <g>
              <polygon class="cls-45" points="26.14 62.34 26.32 62.06 26.32 62.09 26.32 62.09 26.15 62.48 25.57 62.98 24.93 63.61 25.15 64.28 24.26 64.15 23.58 63.98 23.58 63.91 23.74 63.88 24.79 63.28 26.14 62.34"/>
              <polygon class="cls-46" points="26.21 62.13 26.32 62.06 26.25 62.52 25.68 63.07 25.24 63.62 25.15 64.28 24.26 64.09 23.58 63.91 24.79 63.22 26.21 62.13"/>
            </g>
            <polygon class="cls-47" points="18.57 64.92 20.08 64.8 22.13 64.29 23.58 63.72 24.79 63.03 26.21 61.94 27.42 60.76 28.49 59.71 29.72 58.98 30.43 58.48 28.39 59.31 21.98 62.93 21.1 63.43 19.82 63.97 18.94 64.25 18.57 64.92"/>
            <polygon class="cls-22" points="21.11 64.3 22.18 64.05 23.41 63.57 24.63 62.87 25.92 61.85 27.13 60.71 25.73 61.8 24.38 62.8 23.21 63.46 22.11 63.88 21.11 64.3"/>
            <g>
              <polygon class="cls-23" points="20.19 64.47 19.95 64.47 19.79 64.37 19.79 64.23 19.95 64.14 20.19 64.14 20.35 64.23 20.35 64.37 20.19 64.47"/>
              <polygon class="cls-24" points="20.16 64.43 19.97 64.43 19.84 64.35 19.84 64.25 19.97 64.17 20.16 64.17 20.3 64.25 20.3 64.35 20.16 64.43"/>
              <polygon class="cls-25" points="20.13 64.38 20.01 64.38 19.93 64.33 19.93 64.27 20.01 64.22 20.13 64.22 20.21 64.27 20.21 64.33 20.13 64.38"/>
              <polygon class="cls-5" points="20.1 64.42 20.03 64.42 19.99 64.4 19.99 64.36 20.03 64.33 20.1 64.33 20.14 64.36 20.14 64.4 20.1 64.42"/>
            </g>
            <g>
              <polygon class="cls-45" points="22.08 62.81 22.18 62.49 21.86 62.2 22.29 62.14 23.28 62.16 23.96 62.05 24.21 61.97 24.22 62.02 23.11 62.54 22.08 62.81"/>
              <polygon class="cls-46" points="22.08 62.81 22.03 62.5 21.86 62.2 22.28 62.09 23.27 62.11 24.21 61.97 23.1 62.5 22.08 62.81"/>
            </g>
            <g>
              <polygon class="cls-45" points="29.6 59.12 31.11 59.33 33.57 59.15 33.18 59.14 32.19 59.08 31.47 58.94 30.43 58.54 29.6 59.05 29.6 59.12"/>
              <polygon class="cls-46" points="31.11 59.27 29.6 59.05 29.6 59.05 29.72 58.98 30.43 58.48 31.46 58.88 33.57 59.15 31.11 59.27"/>
            </g>
          </g>
          <g>
            <polygon class="cls-1" points="40.74 63.75 38.64 63.49 37.6 63.08 37.58 63.02 37.48 63.03 36.74 62.39 36.39 61.18 36.07 62.6 36.07 62.66 36.38 63.4 35.78 63.59 34.7 63.9 33.11 64.33 32.56 64.19 32.2 63.85 31.9 64.32 31.88 64.42 31.89 64.69 31.56 64.78 30.09 65.29 28.71 65.92 28.04 66.38 27.99 66.28 28.01 66.17 27.48 66.01 26.95 65.86 27.1 66.17 26.95 66.13 27.19 66.63 27.44 66.8 26.42 67.66 25.62 68.57 25.26 69.35 25.15 69.61 25.26 69.77 25.76 69.49 25.74 69.52 25.56 69.9 25.79 69.98 27.25 69.83 29.3 69.33 30.75 68.76 30.97 68.64 31.43 68.76 32.32 68.88 32.41 68.22 32.85 67.67 33.42 67.12 33.45 66.9 33.75 66.62 34.19 66.65 35.14 66.56 34.63 66.2 34.5 65.89 34.59 65.8 35.66 64.75 36.64 63.92 36.85 63.73 38.28 63.94 40.74 63.75"/>
            <g>
              <polygon class="cls-45" points="27.68 66.49 27.19 66.17 26.95 65.67 27.1 65.8 27.35 65.86 28.04 66.19 28.04 66.25 28 66.41 27.68 66.49"/>
              <polygon class="cls-46" points="27.68 66.43 27.19 66.1 26.95 65.67 27.48 65.81 28.01 65.98 27.99 66.09 28.04 66.19 28 66.35 27.68 66.43"/>
            </g>
            <g>
              <polygon class="cls-45" points="27.68 66.22 27.19 65.9 26.95 65.39 27.19 65.58 27.35 65.59 28.04 65.92 28.04 65.98 28 66.14 27.68 66.22"/>
              <polygon class="cls-46" points="27.68 66.16 27.19 65.83 26.95 65.39 27.48 65.55 28.01 65.71 27.99 65.82 28.04 65.92 28 66.08 27.68 66.16"/>
            </g>
            <polygon class="cls-17" points="26.11 68.82 25.26 69.31 25.15 69.15 25.26 68.88 26.42 67.63 27.54 66.69 28.71 65.89 30.09 65.26 31.56 64.75 33.11 64.3 34.7 63.86 35.78 63.55 36.34 63.3 36.9 62.97 37.41 62.65 37.55 62.58 37.6 62.62 33.01 65.55 28.41 68.39 26.11 68.82"/>
            <polygon class="cls-18" points="25.86 68.92 25.27 69.24 25.2 69.14 25.35 68.9 26.11 68.41 26.14 68.59 25.86 68.92"/>
            <polygon class="cls-47" points="25.79 69.52 27.25 69.37 29.3 68.86 30.75 68.29 31.95 67.6 33.38 66.51 34.59 65.34 35.66 64.28 36.64 63.46 37.6 62.62 35.56 63.88 29.15 67.5 28.27 68 26.99 68.54 25.74 69.06 25.56 69.44 25.79 69.52"/>
            <g>
              <polygon class="cls-45" points="36.44 63.07 36.07 62.2 36.07 62.14 36.74 61.99 37.48 62.63 36.71 62.99 36.44 63.07"/>
              <polygon class="cls-46" points="36.44 63.01 36.07 62.14 36.39 60.72 36.74 61.93 37.48 62.56 36.71 62.93 36.44 63.01"/>
            </g>
            <g>
              <polygon class="cls-45" points="31.89 64.31 31.88 63.96 31.9 63.86 33.11 63.87 33.09 63.96 32.47 64.19 31.89 64.31"/>
              <polygon class="cls-46" points="31.91 64.21 31.9 63.86 32.2 63.38 32.56 63.73 33.11 63.87 32.48 64.1 31.91 64.21"/>
            </g>
            <polygon class="cls-17" points="26.11 68.39 25.26 68.88 25.62 68.11 26.42 67.2 27.54 66.25 28.71 65.46 30.09 64.83 31.56 64.32 33.11 63.87 34.7 63.43 35.78 63.12 36.41 62.93 37.01 62.72 37.48 62.56 37.58 62.55 37.6 62.62 33.01 65.12 28.41 67.95 26.11 68.39"/>
            <polygon class="cls-20" points="25.26 68.88 25.62 68.11 26.42 67.2 27.54 66.25 28.71 65.46 30.09 64.83 31.56 64.32 33.11 63.87 34.7 63.43 35.78 63.12 36.41 62.93 37.01 62.72 36.44 62.96 31.14 64.92 29.41 65.7 28.26 66.37 27.43 66.98 25.26 68.88"/>
            <g>
              <polygon class="cls-45" points="34.4 65.74 34.68 65.93 34.93 66.03 35.14 66.09 34.19 66.19 33.58 66.14 33.58 66.14 33.58 66.08 33.72 66 34.4 65.74"/>
              <polygon class="cls-46" points="34.43 65.25 34.63 65.73 35.14 66.09 34.19 66.13 33.58 66.08 33.58 66.08 34.43 65.25"/>
            </g>
            <g>
              <polygon class="cls-45" points="33.31 66.48 33.49 66.19 33.49 66.23 33.49 66.23 33.32 66.63 32.74 67.13 32.1 67.75 32.32 68.41 31.43 68.29 30.75 68.11 30.75 68.05 30.91 68.02 31.95 67.42 33.31 66.48"/>
              <polygon class="cls-46" points="33.38 66.27 33.49 66.19 33.42 66.66 32.85 67.21 32.41 67.76 32.32 68.41 31.43 68.23 30.75 68.05 31.95 67.36 33.38 66.27"/>
            </g>
            <polygon class="cls-47" points="25.74 69.06 27.25 68.94 29.3 68.43 30.75 67.86 31.95 67.17 33.38 66.08 34.59 64.9 35.66 63.85 36.89 63.12 37.6 62.62 35.56 63.44 29.15 67.06 28.27 67.57 26.99 68.11 26.11 68.39 25.74 69.06"/>
            <polygon class="cls-22" points="28.28 68.44 29.35 68.19 30.58 67.71 31.8 67.01 33.09 66 34.3 64.85 32.9 65.94 31.55 66.94 30.38 67.6 29.29 68.02 28.28 68.44"/>
            <g>
              <polygon class="cls-23" points="27.36 68.6 27.12 68.6 26.96 68.51 26.96 68.37 27.12 68.28 27.36 68.28 27.52 68.37 27.52 68.51 27.36 68.6"/>
              <polygon class="cls-24" points="27.34 68.57 27.14 68.57 27.01 68.5 27.01 68.39 27.14 68.31 27.34 68.31 27.47 68.39 27.47 68.5 27.34 68.57"/>
              <polygon class="cls-25" points="27.3 68.52 27.18 68.52 27.1 68.47 27.1 68.41 27.18 68.36 27.3 68.36 27.38 68.41 27.38 68.47 27.3 68.52"/>
              <polygon class="cls-5" points="27.27 68.56 27.2 68.56 27.16 68.54 27.16 68.5 27.2 68.47 27.27 68.47 27.31 68.5 27.31 68.54 27.27 68.56"/>
            </g>
            <g>
              <polygon class="cls-45" points="29.25 66.94 29.35 66.63 29.03 66.34 29.46 66.28 30.45 66.3 31.13 66.19 31.38 66.11 31.39 66.16 30.28 66.69 29.25 66.94"/>
              <polygon class="cls-46" points="29.25 66.94 29.2 66.64 29.03 66.34 29.45 66.23 30.43 66.25 31.38 66.11 30.27 66.64 29.25 66.94"/>
            </g>
            <g>
              <polygon class="cls-45" points="36.77 63.26 38.28 63.47 40.74 63.29 40.35 63.28 39.36 63.22 38.64 63.08 37.6 62.68 36.77 63.2 36.77 63.26"/>
              <polygon class="cls-46" points="38.28 63.41 36.77 63.2 36.77 63.19 36.89 63.12 37.6 62.62 38.64 63.02 40.74 63.29 38.28 63.41"/>
            </g>
          </g>
          <g>
            <polygon class="cls-1" points="47.91 67.89 45.81 67.63 44.77 67.22 44.75 67.16 44.65 67.17 43.92 66.53 43.56 65.32 43.24 66.74 43.24 66.8 43.55 67.54 42.95 67.72 41.87 68.03 40.28 68.47 39.73 68.33 39.37 67.99 39.07 68.46 39.05 68.56 39.06 68.82 38.73 68.92 37.27 69.44 35.89 70.06 35.21 70.52 35.16 70.42 35.18 70.31 34.66 70.15 34.12 70 34.27 70.31 34.12 70.27 34.36 70.77 34.61 70.94 33.59 71.8 32.79 72.71 32.43 73.48 32.32 73.75 32.43 73.92 32.93 73.63 32.91 73.66 32.73 74.05 32.96 74.13 34.42 73.97 36.47 73.47 37.92 72.9 38.14 72.78 38.6 72.9 39.49 73.02 39.59 72.36 40.02 71.81 40.59 71.26 40.62 71.05 40.92 70.76 41.36 70.79 42.31 70.69 41.8 70.34 41.67 70.02 41.76 69.94 42.83 68.89 43.81 68.06 44.02 67.88 45.45 68.08 47.91 67.89"/>
            <g>
              <polygon class="cls-45" points="34.85 70.63 34.36 70.31 34.12 69.81 34.27 69.94 34.52 70 35.21 70.33 35.21 70.39 35.17 70.55 34.85 70.63"/>
              <polygon class="cls-46" points="34.85 70.57 34.36 70.25 34.12 69.81 34.66 69.95 35.18 70.12 35.16 70.23 35.21 70.33 35.17 70.49 34.85 70.57"/>
            </g>
            <g>
              <polygon class="cls-45" points="34.85 70.36 34.36 70.03 34.12 69.53 34.36 69.72 34.52 69.73 35.21 70.06 35.21 70.12 35.17 70.28 34.85 70.36"/>
              <polygon class="cls-46" points="34.85 70.3 34.36 69.97 34.12 69.53 34.66 69.68 35.18 69.85 35.16 69.95 35.21 70.06 35.17 70.22 34.85 70.3"/>
            </g>
            <polygon class="cls-17" points="33.28 72.96 32.43 73.45 32.32 73.28 32.43 73.02 33.59 71.77 34.71 70.83 35.89 70.03 37.27 69.4 38.73 68.89 40.28 68.44 41.87 68 42.95 67.69 43.51 67.44 44.07 67.11 44.58 66.78 44.72 66.73 44.77 66.76 40.18 69.69 35.58 72.52 33.28 72.96"/>
            <polygon class="cls-18" points="33.03 73.06 32.45 73.38 32.37 73.28 32.52 73.05 33.28 72.56 33.31 72.73 33.03 73.06"/>
            <polygon class="cls-47" points="32.96 73.66 34.42 73.51 36.47 73 37.92 72.43 39.13 71.74 40.55 70.65 41.76 69.47 42.83 68.42 43.81 67.59 44.77 66.76 42.73 68.02 36.32 71.64 35.44 72.14 34.17 72.68 32.91 73.2 32.73 73.58 32.96 73.66"/>
            <g>
              <polygon class="cls-45" points="43.61 67.21 43.24 66.34 43.24 66.28 43.92 66.13 44.65 66.76 43.88 67.13 43.61 67.21"/>
              <polygon class="cls-46" points="43.61 67.15 43.24 66.28 43.56 64.86 43.92 66.07 44.65 66.7 43.88 67.07 43.61 67.15"/>
            </g>
            <g>
              <polygon class="cls-45" points="39.06 68.45 39.05 68.1 39.07 68 40.28 68.01 40.26 68.1 39.64 68.33 39.06 68.45"/>
              <polygon class="cls-46" points="39.09 68.35 39.07 68 39.37 67.52 39.73 67.87 40.28 68.01 39.66 68.24 39.09 68.35"/>
            </g>
            <polygon class="cls-17" points="33.28 72.53 32.43 73.02 32.79 72.25 33.59 71.34 34.71 70.39 35.89 69.6 37.27 68.97 38.73 68.45 40.28 68.01 41.87 67.57 42.95 67.26 43.58 67.07 44.19 66.86 44.65 66.7 44.75 66.7 44.77 66.76 40.18 69.26 35.58 72.09 33.28 72.53"/>
            <polygon class="cls-20" points="32.43 73.02 32.79 72.25 33.59 71.34 34.71 70.39 35.89 69.6 37.27 68.97 38.73 68.45 40.28 68.01 41.87 67.57 42.95 67.26 43.58 67.07 44.19 66.86 43.61 67.1 38.31 69.06 36.58 69.84 35.44 70.51 34.6 71.12 32.43 73.02"/>
            <g>
              <polygon class="cls-45" points="41.57 69.88 41.85 70.07 42.1 70.17 42.31 70.23 41.36 70.33 40.75 70.28 40.75 70.28 40.75 70.22 40.89 70.14 41.57 69.88"/>
              <polygon class="cls-46" points="41.6 69.38 41.8 69.87 42.31 70.23 41.36 70.27 40.75 70.22 40.75 70.22 41.6 69.38"/>
            </g>
            <g>
              <polygon class="cls-45" points="40.48 70.62 40.66 70.34 40.66 70.37 40.66 70.37 40.49 70.77 39.92 71.27 39.27 71.89 39.49 72.55 38.6 72.43 37.92 72.26 37.92 72.19 38.08 72.17 39.13 71.56 40.48 70.62"/>
              <polygon class="cls-46" points="40.55 70.41 40.66 70.34 40.59 70.8 40.02 71.35 39.59 71.9 39.49 72.55 38.6 72.37 37.92 72.19 39.13 71.5 40.55 70.41"/>
            </g>
            <polygon class="cls-47" points="32.91 73.2 34.42 73.08 36.47 72.57 37.92 72 39.13 71.31 40.55 70.22 41.76 69.04 42.83 67.99 44.06 67.26 44.77 66.76 42.73 67.58 36.32 71.2 35.44 71.71 34.17 72.25 33.28 72.53 32.91 73.2"/>
            <polygon class="cls-22" points="35.45 72.58 36.52 72.33 37.75 71.85 38.97 71.15 40.26 70.14 41.47 68.99 40.07 70.08 38.72 71.08 37.55 71.73 36.45 72.17 35.45 72.58"/>
            <g>
              <polygon class="cls-23" points="34.53 72.75 34.29 72.75 34.13 72.65 34.13 72.51 34.29 72.42 34.53 72.42 34.69 72.51 34.69 72.65 34.53 72.75"/>
              <polygon class="cls-24" points="34.51 72.71 34.31 72.71 34.18 72.64 34.18 72.52 34.31 72.44 34.51 72.44 34.64 72.52 34.64 72.64 34.51 72.71"/>
              <polygon class="cls-25" points="34.47 72.66 34.35 72.66 34.27 72.61 34.27 72.54 34.35 72.5 34.47 72.5 34.55 72.54 34.55 72.61 34.47 72.66"/>
              <polygon class="cls-5" points="34.44 72.7 34.38 72.7 34.33 72.68 34.33 72.64 34.38 72.61 34.44 72.61 34.48 72.64 34.48 72.68 34.44 72.7"/>
            </g>
            <g>
              <polygon class="cls-45" points="36.42 71.08 36.52 70.77 36.2 70.48 36.63 70.42 37.62 70.44 38.3 70.33 38.55 70.25 38.56 70.3 37.45 70.82 36.42 71.08"/>
              <polygon class="cls-46" points="36.42 71.08 36.37 70.78 36.2 70.48 36.62 70.37 37.61 70.39 38.55 70.25 37.44 70.78 36.42 71.08"/>
            </g>
            <g>
              <polygon class="cls-45" points="43.94 67.4 45.45 67.61 47.91 67.43 47.52 67.43 46.53 67.36 45.81 67.22 44.77 66.82 43.94 67.33 43.94 67.4"/>
              <polygon class="cls-46" points="45.45 67.55 43.94 67.33 43.94 67.33 44.06 67.26 44.77 66.76 45.81 67.16 47.91 67.43 45.45 67.55"/>
            </g>
          </g>
          <g>
            <polygon class="cls-1" points="55.08 72.03 52.98 71.77 51.94 71.36 51.92 71.3 51.82 71.31 51.09 70.67 50.73 69.46 50.41 70.88 50.41 70.94 50.73 71.68 50.12 71.87 49.04 72.17 47.45 72.61 46.91 72.47 46.53 72.13 46.24 72.61 46.22 72.7 46.23 72.97 45.9 73.06 44.44 73.57 43.06 74.2 42.38 74.66 42.33 74.56 42.35 74.45 41.83 74.29 41.29 74.14 41.44 74.45 41.29 74.41 41.53 74.91 41.78 75.08 40.76 75.94 39.96 76.85 39.6 77.62 39.49 77.89 39.6 78.06 40.1 77.77 40.08 77.8 39.9 78.18 40.13 78.27 41.59 78.11 43.65 77.61 45.1 77.04 45.31 76.91 45.77 77.03 46.66 77.16 46.76 76.5 47.19 75.95 47.76 75.4 47.8 75.19 48.09 74.9 48.53 74.93 49.48 74.84 48.97 74.48 48.84 74.16 48.93 74.08 50 73.03 50.98 72.2 51.19 72.02 52.62 72.22 55.08 72.03"/>
            <g>
              <polygon class="cls-45" points="42.02 74.77 41.53 74.45 41.29 73.94 41.44 74.07 41.69 74.14 42.38 74.47 42.38 74.53 42.34 74.69 42.02 74.77"/>
              <polygon class="cls-46" points="42.02 74.71 41.53 74.39 41.29 73.94 41.83 74.09 42.35 74.26 42.33 74.37 42.38 74.47 42.34 74.63 42.02 74.71"/>
            </g>
            <g>
              <polygon class="cls-45" points="42.02 74.5 41.53 74.17 41.29 73.67 41.53 73.85 41.69 73.87 42.38 74.2 42.38 74.26 42.34 74.42 42.02 74.5"/>
              <polygon class="cls-46" points="42.02 74.44 41.53 74.11 41.29 73.67 41.83 73.82 42.35 73.99 42.33 74.1 42.38 74.2 42.34 74.36 42.02 74.44"/>
            </g>
            <polygon class="cls-17" points="40.45 77.1 39.6 77.59 39.49 77.43 39.6 77.16 40.76 75.91 41.88 74.97 43.06 74.17 44.44 73.54 45.9 73.03 47.45 72.58 49.04 72.14 50.12 71.83 50.68 71.58 51.24 71.25 51.75 70.93 51.89 70.87 51.94 70.9 47.35 73.83 42.75 76.67 40.45 77.1"/>
            <polygon class="cls-18" points="40.2 77.2 39.62 77.52 39.54 77.42 39.69 77.18 40.45 76.69 40.48 76.87 40.2 77.2"/>
            <polygon class="cls-47" points="40.13 77.8 41.59 77.65 43.65 77.15 45.1 76.57 46.3 75.88 47.72 74.79 48.93 73.61 50 72.56 50.98 71.73 51.94 70.9 49.9 72.16 43.49 75.78 42.61 76.28 41.34 76.82 40.08 77.34 39.9 77.72 40.13 77.8"/>
            <g>
              <polygon class="cls-45" points="50.78 71.35 50.41 70.48 50.41 70.42 51.09 70.27 51.82 70.91 51.05 71.27 50.78 71.35"/>
              <polygon class="cls-46" points="50.78 71.29 50.41 70.42 50.73 68.99 51.09 70.21 51.82 70.84 51.05 71.21 50.78 71.29"/>
            </g>
            <g>
              <polygon class="cls-45" points="46.23 72.59 46.22 72.23 46.24 72.14 47.45 72.15 47.43 72.24 46.81 72.47 46.23 72.59"/>
              <polygon class="cls-46" points="46.25 72.49 46.24 72.14 46.53 71.67 46.91 72.01 47.45 72.15 46.83 72.38 46.25 72.49"/>
            </g>
            <polygon class="cls-17" points="40.45 76.67 39.6 77.16 39.96 76.38 40.76 75.48 41.88 74.53 43.06 73.74 44.44 73.11 45.9 72.59 47.45 72.15 49.04 71.71 50.12 71.4 50.75 71.21 51.35 71 51.82 70.84 51.92 70.84 51.94 70.9 47.35 73.4 42.75 76.23 40.45 76.67"/>
            <polygon class="cls-20" points="39.6 77.16 39.96 76.38 40.76 75.48 41.88 74.53 43.06 73.74 44.44 73.11 45.9 72.59 47.45 72.15 49.04 71.71 50.12 71.4 50.75 71.21 51.35 71 50.78 71.24 45.48 73.2 43.75 73.98 42.6 74.65 41.77 75.26 39.6 77.16"/>
            <g>
              <polygon class="cls-45" points="48.74 74.02 49.02 74.21 49.27 74.31 49.48 74.37 48.53 74.47 47.92 74.42 47.92 74.42 47.92 74.36 48.06 74.28 48.74 74.02"/>
              <polygon class="cls-46" points="48.77 73.53 48.97 74.02 49.48 74.37 48.53 74.41 47.92 74.36 47.92 74.36 48.77 73.53"/>
            </g>
            <g>
              <polygon class="cls-45" points="47.65 74.76 47.83 74.48 47.83 74.51 47.83 74.51 47.66 74.9 47.09 75.41 46.44 76.03 46.66 76.69 45.77 76.57 45.1 76.4 45.1 76.33 45.25 76.31 46.3 75.7 47.65 74.76"/>
              <polygon class="cls-46" points="47.72 74.55 47.83 74.48 47.76 74.94 47.19 75.49 46.76 76.04 46.66 76.69 45.77 76.51 45.1 76.33 46.3 75.64 47.72 74.55"/>
            </g>
            <polygon class="cls-47" points="40.08 77.34 41.59 77.22 43.65 76.71 45.1 76.14 46.3 75.45 47.72 74.36 48.93 73.18 50 72.13 51.23 71.4 51.94 70.9 49.9 71.72 43.49 75.35 42.61 75.85 41.34 76.39 40.45 76.67 40.08 77.34"/>
            <polygon class="cls-22" points="42.62 76.72 43.69 76.47 44.92 75.99 46.14 75.29 47.43 74.28 48.64 73.13 47.24 74.22 45.89 75.22 44.72 75.88 43.63 76.31 42.62 76.72"/>
            <g>
              <polygon class="cls-23" points="41.7 76.89 41.46 76.89 41.3 76.79 41.3 76.65 41.46 76.56 41.7 76.56 41.86 76.65 41.86 76.79 41.7 76.89"/>
              <polygon class="cls-24" points="41.68 76.85 41.48 76.85 41.35 76.78 41.35 76.67 41.48 76.59 41.68 76.59 41.81 76.67 41.81 76.78 41.68 76.85"/>
              <polygon class="cls-25" points="41.64 76.8 41.52 76.8 41.44 76.75 41.44 76.69 41.52 76.64 41.64 76.64 41.72 76.69 41.72 76.75 41.64 76.8"/>
              <polygon class="cls-5" points="41.61 76.84 41.54 76.84 41.5 76.81 41.5 76.78 41.54 76.75 41.61 76.75 41.65 76.78 41.65 76.81 41.61 76.84"/>
            </g>
            <g>
              <polygon class="cls-45" points="43.59 75.22 43.69 74.91 43.37 74.62 43.8 74.56 44.79 74.58 45.47 74.47 45.72 74.39 45.73 74.44 44.62 74.97 43.59 75.22"/>
              <polygon class="cls-46" points="43.59 75.22 43.54 74.92 43.37 74.62 43.79 74.51 44.78 74.53 45.72 74.39 44.61 74.92 43.59 75.22"/>
            </g>
            <g>
              <polygon class="cls-45" points="51.11 71.54 52.62 71.75 55.08 71.57 54.69 71.56 53.7 71.5 52.98 71.36 51.94 70.96 51.11 71.48 51.11 71.54"/>
              <polygon class="cls-46" points="52.62 71.69 51.11 71.48 51.11 71.47 51.23 71.4 51.94 70.9 52.98 71.3 55.08 71.57 52.62 71.69"/>
            </g>
          </g>
          <g>
            <polygon class="cls-1" points="62.25 76.17 60.15 75.91 59.11 75.5 59.09 75.44 58.99 75.45 58.26 74.81 57.9 73.6 57.58 75.02 57.58 75.08 57.9 75.82 57.29 76.01 56.21 76.31 54.62 76.75 54.08 76.61 53.71 76.27 53.41 76.74 53.39 76.84 53.4 77.1 53.07 77.2 51.6 77.71 50.23 78.34 49.55 78.8 49.5 78.7 49.52 78.59 49 78.43 48.46 78.28 48.61 78.59 48.46 78.55 48.7 79.05 48.95 79.22 47.93 80.08 47.13 80.99 46.77 81.77 46.66 82.03 46.77 82.19 47.27 81.91 47.25 81.94 47.07 82.32 47.3 82.41 48.76 82.26 50.81 81.75 52.27 81.18 52.48 81.06 52.94 81.18 53.83 81.3 53.93 80.64 54.37 80.09 54.93 79.54 54.96 79.32 55.26 79.04 55.7 79.07 56.65 78.97 56.14 78.62 56.01 78.3 56.1 78.22 57.17 77.17 58.15 76.34 58.36 76.16 59.79 76.35 62.25 76.17"/>
            <g>
              <polygon class="cls-45" points="49.19 78.91 48.7 78.58 48.46 78.08 48.61 78.22 48.86 78.28 49.55 78.61 49.55 78.67 49.51 78.83 49.19 78.91"/>
              <polygon class="cls-46" points="49.19 78.85 48.7 78.52 48.46 78.08 49 78.23 49.52 78.4 49.5 78.51 49.55 78.61 49.51 78.77 49.19 78.85"/>
            </g>
            <g>
              <polygon class="cls-45" points="49.19 78.64 48.7 78.31 48.46 77.81 48.7 78 48.86 78.01 49.55 78.34 49.55 78.4 49.51 78.56 49.19 78.64"/>
              <polygon class="cls-46" points="49.19 78.58 48.7 78.25 48.46 77.81 49 77.96 49.52 78.13 49.5 78.23 49.55 78.34 49.51 78.49 49.19 78.58"/>
            </g>
            <polygon class="cls-17" points="47.62 81.24 46.77 81.73 46.66 81.56 46.77 81.3 47.93 80.05 49.05 79.11 50.23 78.31 51.6 77.68 53.07 77.17 54.62 76.72 56.21 76.28 57.29 75.97 57.85 75.72 58.41 75.39 58.92 75.06 59.06 75 59.11 75.03 54.52 77.97 49.92 80.8 47.62 81.24"/>
            <polygon class="cls-18" points="47.37 81.34 46.79 81.66 46.71 81.56 46.86 81.32 47.62 80.83 47.65 81.01 47.37 81.34"/>
            <polygon class="cls-47" points="47.3 81.94 48.76 81.79 50.81 81.28 52.27 80.71 53.47 80.02 54.89 78.93 56.1 77.75 57.17 76.7 58.15 75.88 59.11 75.03 57.07 76.3 50.66 79.92 49.78 80.42 48.51 80.96 47.25 81.48 47.07 81.86 47.3 81.94"/>
            <g>
              <polygon class="cls-45" points="57.95 75.49 57.58 74.62 57.58 74.56 58.26 74.41 58.99 75.04 58.23 75.41 57.95 75.49"/>
              <polygon class="cls-46" points="57.95 75.43 57.58 74.56 57.9 73.14 58.26 74.35 58.99 74.98 58.23 75.35 57.95 75.43"/>
            </g>
            <g>
              <polygon class="cls-45" points="53.4 76.73 53.39 76.38 53.41 76.28 54.62 76.29 54.6 76.38 53.98 76.61 53.4 76.73"/>
              <polygon class="cls-46" points="53.42 76.63 53.41 76.28 53.71 75.8 54.08 76.15 54.62 76.29 53.99 76.52 53.42 76.63"/>
            </g>
            <polygon class="cls-17" points="47.62 80.81 46.77 81.3 47.13 80.53 47.93 79.62 49.05 78.67 50.23 77.88 51.6 77.25 53.07 76.73 54.62 76.29 56.21 75.85 57.29 75.54 57.92 75.35 58.53 75.14 58.99 74.98 59.09 74.98 59.11 75.03 54.52 77.54 49.92 80.37 47.62 80.81"/>
            <polygon class="cls-20" points="46.77 81.3 47.13 80.53 47.93 79.62 49.05 78.67 50.23 77.88 51.6 77.25 53.07 76.73 54.62 76.29 56.21 75.85 57.29 75.54 57.92 75.35 58.53 75.14 57.95 75.38 52.65 77.34 50.92 78.11 49.77 78.79 48.94 79.4 46.77 81.3"/>
            <g>
              <polygon class="cls-45" points="55.91 78.17 56.19 78.35 56.44 78.45 56.65 78.51 55.7 78.61 55.09 78.56 55.09 78.56 55.09 78.49 55.23 78.42 55.91 78.17"/>
              <polygon class="cls-46" points="55.94 77.66 56.14 78.15 56.65 78.51 55.7 78.55 55.09 78.49 55.09 78.49 55.94 77.66"/>
            </g>
            <g>
              <polygon class="cls-45" points="54.82 78.9 55 78.61 55 78.65 55 78.65 54.83 79.05 54.26 79.55 53.61 80.17 53.83 80.83 52.94 80.71 52.27 80.53 52.27 80.47 52.42 80.44 53.47 79.84 54.82 78.9"/>
              <polygon class="cls-46" points="54.89 78.69 55 78.61 54.93 79.08 54.37 79.63 53.93 80.18 53.83 80.83 52.94 80.65 52.27 80.47 53.47 79.78 54.89 78.69"/>
            </g>
            <polygon class="cls-47" points="47.25 81.48 48.76 81.36 50.81 80.85 52.27 80.28 53.47 79.59 54.89 78.5 56.1 77.32 57.17 76.27 58.41 75.54 59.11 75.03 57.07 75.86 50.66 79.48 49.78 79.99 48.51 80.53 47.62 80.81 47.25 81.48"/>
            <polygon class="cls-22" points="49.79 80.86 50.86 80.61 52.09 80.13 53.31 79.43 54.6 78.42 55.81 77.27 54.41 78.36 53.06 79.36 51.89 80.02 50.8 80.44 49.79 80.86"/>
            <g>
              <polygon class="cls-23" points="48.87 81.02 48.63 81.02 48.47 80.93 48.47 80.79 48.63 80.69 48.87 80.69 49.03 80.79 49.03 80.93 48.87 81.02"/>
              <polygon class="cls-24" points="48.85 80.99 48.65 80.99 48.52 80.92 48.52 80.8 48.65 80.73 48.85 80.73 48.98 80.8 48.98 80.92 48.85 80.99"/>
              <polygon class="cls-25" points="48.81 80.94 48.69 80.94 48.61 80.89 48.61 80.82 48.69 80.78 48.81 80.78 48.89 80.82 48.89 80.89 48.81 80.94"/>
              <polygon class="cls-5" points="48.78 80.98 48.72 80.98 48.67 80.96 48.67 80.92 48.72 80.89 48.78 80.89 48.82 80.92 48.82 80.96 48.78 80.98"/>
            </g>
            <g>
              <polygon class="cls-45" points="50.77 79.36 50.86 79.05 50.55 78.76 50.97 78.7 51.96 78.72 52.64 78.61 52.89 78.53 52.9 78.58 51.79 79.1 50.77 79.36"/>
              <polygon class="cls-46" points="50.77 79.36 50.71 79.06 50.55 78.76 50.96 78.65 51.95 78.67 52.89 78.53 51.78 79.06 50.77 79.36"/>
            </g>
            <g>
              <polygon class="cls-45" points="58.28 75.68 59.79 75.89 62.25 75.71 61.86 75.7 60.87 75.64 60.15 75.5 59.11 75.1 58.28 75.61 58.28 75.68"/>
              <polygon class="cls-46" points="59.79 75.83 58.28 75.61 58.28 75.61 58.41 75.54 59.11 75.03 60.15 75.44 62.25 75.71 59.79 75.83"/>
            </g>
          </g>
          <g>
            <polygon class="cls-1" points="71.92 80.06 69.82 79.8 68.78 79.39 68.77 79.33 68.66 79.34 67.93 78.7 67.57 77.49 67.26 78.91 67.26 78.97 67.57 79.71 66.96 79.89 65.89 80.2 64.29 80.64 63.75 80.5 63.38 80.16 63.08 80.63 63.06 80.73 63.08 80.99 62.74 81.09 61.28 81.6 59.9 82.23 59.22 82.69 59.17 82.59 59.19 82.48 58.67 82.31 58.13 82.17 58.28 82.48 58.13 82.44 58.37 82.94 58.63 83.11 57.6 83.97 56.81 84.88 56.44 85.65 56.34 85.92 56.44 86.08 56.95 85.8 56.92 85.83 56.74 86.21 56.97 86.29 58.44 86.14 60.49 85.64 61.94 85.07 62.15 84.94 62.61 85.06 63.5 85.19 63.6 84.53 64.04 83.98 64.61 83.43 64.64 83.21 64.93 82.93 65.38 82.96 66.32 82.86 65.81 82.51 65.69 82.19 65.77 82.11 66.85 81.06 67.83 80.23 68.04 80.04 69.46 80.24 71.92 80.06"/>
            <g>
              <polygon class="cls-45" points="58.87 82.8 58.37 82.47 58.13 81.97 58.28 82.1 58.54 82.17 59.22 82.5 59.22 82.56 59.18 82.72 58.87 82.8"/>
              <polygon class="cls-46" points="58.87 82.74 58.37 82.41 58.13 81.97 58.67 82.12 59.19 82.29 59.17 82.4 59.22 82.5 59.18 82.66 58.87 82.74"/>
            </g>
            <g>
              <polygon class="cls-45" points="58.87 82.53 58.37 82.2 58.13 81.7 58.37 81.88 58.54 81.9 59.22 82.22 59.22 82.29 59.18 82.44 58.87 82.53"/>
              <polygon class="cls-46" points="58.87 82.47 58.37 82.14 58.13 81.7 58.67 81.85 59.19 82.02 59.17 82.13 59.22 82.22 59.18 82.38 58.87 82.47"/>
            </g>
            <polygon class="cls-17" points="57.3 85.13 56.44 85.62 56.34 85.45 56.44 85.19 57.6 83.94 58.73 82.99 59.9 82.2 61.28 81.57 62.74 81.06 64.29 80.61 65.89 80.17 66.96 79.86 67.52 79.61 68.08 79.28 68.59 78.95 68.73 78.9 68.78 78.92 64.2 81.86 59.6 84.69 57.3 85.13"/>
            <polygon class="cls-18" points="57.04 85.22 56.46 85.55 56.38 85.44 56.53 85.21 57.3 84.72 57.33 84.89 57.04 85.22"/>
            <polygon class="cls-47" points="56.97 85.83 58.44 85.68 60.49 85.17 61.94 84.6 63.14 83.91 64.56 82.82 65.77 81.64 66.85 80.59 67.83 79.76 68.78 78.92 66.75 80.19 60.33 83.81 59.46 84.31 58.18 84.85 56.92 85.37 56.74 85.75 56.97 85.83"/>
            <g>
              <polygon class="cls-45" points="67.63 79.38 67.26 78.51 67.26 78.44 67.93 78.3 68.66 78.93 67.9 79.3 67.63 79.38"/>
              <polygon class="cls-46" points="67.63 79.32 67.26 78.44 67.57 77.02 67.93 78.23 68.66 78.87 67.9 79.24 67.63 79.32"/>
            </g>
            <g>
              <polygon class="cls-45" points="63.08 80.61 63.06 80.26 63.08 80.17 64.29 80.18 64.27 80.27 63.65 80.5 63.08 80.61"/>
              <polygon class="cls-46" points="63.1 80.52 63.08 80.17 63.38 79.69 63.75 80.04 64.29 80.18 63.67 80.41 63.1 80.52"/>
            </g>
            <polygon class="cls-17" points="57.3 84.69 56.44 85.19 56.81 84.41 57.6 83.51 58.73 82.56 59.9 81.77 61.28 81.14 62.74 80.62 64.29 80.18 65.89 79.74 66.96 79.43 67.59 79.24 68.2 79.03 68.66 78.87 68.77 78.87 68.78 78.92 64.2 81.43 59.6 84.26 57.3 84.69"/>
            <polygon class="cls-20" points="56.44 85.19 56.81 84.41 57.6 83.51 58.73 82.56 59.9 81.77 61.28 81.14 62.74 80.62 64.29 80.18 65.89 79.74 66.96 79.43 67.59 79.24 68.2 79.03 67.63 79.27 62.32 81.23 60.59 82 59.45 82.68 58.62 83.29 56.44 85.19"/>
            <g>
              <polygon class="cls-45" points="65.58 82.05 65.86 82.24 66.11 82.34 66.32 82.4 65.38 82.5 64.77 82.44 64.77 82.44 64.77 82.38 64.91 82.31 65.58 82.05"/>
              <polygon class="cls-46" points="65.62 81.55 65.81 82.04 66.32 82.4 65.38 82.44 64.77 82.38 64.77 82.38 65.62 81.55"/>
            </g>
            <g>
              <polygon class="cls-45" points="64.49 82.78 64.67 82.5 64.67 82.54 64.67 82.54 64.5 82.93 63.93 83.44 63.28 84.06 63.5 84.72 62.61 84.6 61.94 84.42 61.94 84.36 62.09 84.33 63.14 83.73 64.49 82.78"/>
              <polygon class="cls-46" points="64.56 82.58 64.67 82.5 64.61 82.97 64.04 83.52 63.6 84.06 63.5 84.72 62.61 84.53 61.94 84.36 63.14 83.67 64.56 82.58"/>
            </g>
            <polygon class="cls-47" points="56.92 85.37 58.44 85.25 60.49 84.74 61.94 84.17 63.14 83.47 64.56 82.39 65.77 81.21 66.85 80.16 68.08 79.43 68.78 78.92 66.75 79.75 60.33 83.37 59.46 83.88 58.18 84.42 57.3 84.69 56.92 85.37"/>
            <polygon class="cls-22" points="59.46 84.74 60.53 84.5 61.77 84.02 62.99 83.31 64.28 82.31 65.48 81.16 64.09 82.24 62.74 83.24 61.56 83.9 60.47 84.33 59.46 84.74"/>
            <g>
              <polygon class="cls-23" points="58.54 84.91 58.31 84.91 58.14 84.81 58.14 84.68 58.31 84.58 58.54 84.58 58.71 84.68 58.71 84.81 58.54 84.91"/>
              <polygon class="cls-24" points="58.52 84.88 58.33 84.88 58.19 84.81 58.19 84.69 58.33 84.61 58.52 84.61 58.66 84.69 58.66 84.81 58.52 84.88"/>
              <polygon class="cls-25" points="58.48 84.83 58.37 84.83 58.28 84.78 58.28 84.71 58.37 84.67 58.48 84.67 58.57 84.71 58.57 84.78 58.48 84.83"/>
              <polygon class="cls-5" points="58.45 84.87 58.39 84.87 58.34 84.84 58.34 84.81 58.39 84.78 58.45 84.78 58.5 84.81 58.5 84.84 58.45 84.87"/>
            </g>
            <g>
              <polygon class="cls-45" points="60.44 83.25 60.54 82.94 60.22 82.65 60.65 82.59 61.63 82.61 62.32 82.5 62.56 82.42 62.58 82.47 61.47 82.99 60.44 83.25"/>
              <polygon class="cls-46" points="60.44 83.25 60.38 82.95 60.22 82.65 60.63 82.54 61.62 82.56 62.56 82.42 61.45 82.95 60.44 83.25"/>
            </g>
            <g>
              <polygon class="cls-45" points="67.95 79.57 69.46 79.78 71.92 79.6 71.53 79.59 70.55 79.53 69.82 79.39 68.78 78.99 67.95 79.5 67.95 79.57"/>
              <polygon class="cls-46" points="69.46 79.72 67.95 79.5 67.96 79.5 68.08 79.43 68.78 78.92 69.82 79.33 71.92 79.6 69.46 79.72"/>
            </g>
          </g>
          <g>
            <polygon class="cls-1" points="76.59 84.45 74.49 84.18 73.45 83.78 73.43 83.72 73.33 83.73 72.6 83.09 72.24 81.88 71.92 83.3 71.92 83.36 72.24 84.1 71.63 84.28 70.55 84.59 68.96 85.03 68.42 84.89 68.05 84.55 67.75 85.02 67.73 85.12 67.74 85.38 67.41 85.48 65.94 85.99 64.57 86.62 63.89 87.08 63.84 86.98 63.86 86.87 63.34 86.71 62.8 86.56 62.95 86.87 62.8 86.83 63.04 87.33 63.3 87.5 62.27 88.36 61.48 89.27 61.11 90.04 61 90.31 61.11 90.47 61.61 90.18 61.59 90.22 61.41 90.6 61.64 90.69 63.1 90.53 65.16 90.03 66.61 89.46 66.82 89.33 67.28 89.45 68.17 89.58 68.27 88.92 68.71 88.38 69.27 87.82 69.3 87.6 69.6 87.32 70.04 87.35 70.99 87.25 70.48 86.9 70.35 86.58 70.44 86.5 71.51 85.45 72.49 84.62 72.7 84.44 74.13 84.64 76.59 84.45"/>
            <g>
              <polygon class="cls-45" points="63.53 87.19 63.04 86.86 62.8 86.36 62.95 86.49 63.2 86.56 63.89 86.89 63.89 86.95 63.85 87.11 63.53 87.19"/>
              <polygon class="cls-46" points="63.53 87.13 63.04 86.8 62.8 86.36 63.34 86.51 63.86 86.68 63.84 86.78 63.89 86.89 63.85 87.05 63.53 87.13"/>
            </g>
            <g>
              <polygon class="cls-45" points="63.53 86.92 63.04 86.59 62.8 86.09 63.04 86.27 63.2 86.29 63.89 86.61 63.89 86.68 63.85 86.83 63.53 86.92"/>
              <polygon class="cls-46" points="63.53 86.86 63.04 86.53 62.8 86.09 63.34 86.24 63.86 86.41 63.84 86.52 63.89 86.61 63.85 86.77 63.53 86.86"/>
            </g>
            <polygon class="cls-17" points="61.96 89.52 61.11 90.01 61 89.85 61.11 89.58 62.27 88.33 63.39 87.38 64.57 86.59 65.94 85.96 67.41 85.45 68.96 85 70.55 84.56 71.63 84.25 72.19 84 72.75 83.67 73.26 83.34 73.4 83.29 73.45 83.31 68.86 86.25 64.27 89.08 61.96 89.52"/>
            <polygon class="cls-18" points="61.71 89.61 61.13 89.94 61.05 89.84 61.2 89.6 61.96 89.11 61.99 89.29 61.71 89.61"/>
            <polygon class="cls-47" points="61.64 90.22 63.1 90.07 65.16 89.56 66.61 88.99 67.81 88.3 69.23 87.21 70.44 86.03 71.51 84.98 72.49 84.15 73.45 83.31 71.41 84.58 65 88.2 64.12 88.7 62.85 89.24 61.59 89.76 61.41 90.14 61.64 90.22"/>
            <g>
              <polygon class="cls-45" points="72.29 83.77 71.92 82.9 71.92 82.83 72.6 82.69 73.33 83.32 72.56 83.69 72.29 83.77"/>
              <polygon class="cls-46" points="72.29 83.7 71.92 82.83 72.24 81.41 72.6 82.63 73.33 83.26 72.56 83.63 72.29 83.7"/>
            </g>
            <g>
              <polygon class="cls-45" points="67.75 85.01 67.73 84.65 67.75 84.56 68.96 84.56 68.94 84.66 68.32 84.89 67.75 85.01"/>
              <polygon class="cls-46" points="67.77 84.91 67.75 84.56 68.05 84.08 68.42 84.43 68.96 84.56 68.34 84.8 67.77 84.91"/>
            </g>
            <polygon class="cls-17" points="61.96 89.09 61.11 89.58 61.48 88.8 62.27 87.9 63.39 86.95 64.57 86.16 65.94 85.53 67.41 85.01 68.96 84.56 70.55 84.13 71.63 83.82 72.26 83.63 72.87 83.42 73.33 83.26 73.43 83.26 73.45 83.31 68.86 85.82 64.27 88.65 61.96 89.09"/>
            <polygon class="cls-20" points="61.11 89.58 61.48 88.8 62.27 87.9 63.39 86.95 64.57 86.16 65.94 85.53 67.41 85.01 68.96 84.56 70.55 84.13 71.63 83.82 72.26 83.63 72.87 83.42 72.29 83.66 66.99 85.62 65.26 86.4 64.12 87.07 63.28 87.68 61.11 89.58"/>
            <g>
              <polygon class="cls-45" points="70.25 86.44 70.53 86.63 70.78 86.73 70.99 86.79 70.04 86.89 69.43 86.83 69.43 86.83 69.43 86.77 69.57 86.7 70.25 86.44"/>
              <polygon class="cls-46" points="70.28 85.94 70.48 86.44 70.99 86.79 70.04 86.83 69.43 86.77 69.43 86.77 70.28 85.94"/>
            </g>
            <g>
              <polygon class="cls-45" points="69.16 87.18 69.34 86.89 69.34 86.93 69.34 86.93 69.17 87.32 68.6 87.82 67.95 88.44 68.17 89.11 67.28 88.99 66.61 88.81 66.61 88.75 66.76 88.72 67.81 88.12 69.16 87.18"/>
              <polygon class="cls-46" points="69.23 86.97 69.34 86.89 69.27 87.36 68.71 87.91 68.27 88.46 68.17 89.11 67.28 88.93 66.61 88.75 67.81 88.06 69.23 86.97"/>
            </g>
            <polygon class="cls-47" points="61.59 89.76 63.1 89.64 65.16 89.13 66.61 88.56 67.81 87.87 69.23 86.78 70.44 85.6 71.51 84.55 72.75 83.81 73.45 83.31 71.41 84.14 65 87.77 64.12 88.27 62.85 88.81 61.96 89.09 61.59 89.76"/>
            <polygon class="cls-22" points="64.13 89.14 65.2 88.89 66.43 88.41 67.65 87.71 68.94 86.69 70.15 85.55 68.75 86.64 67.4 87.64 66.23 88.3 65.14 88.72 64.13 89.14"/>
            <g>
              <polygon class="cls-23" points="63.21 89.3 62.97 89.3 62.81 89.21 62.81 89.07 62.97 88.97 63.21 88.97 63.38 89.07 63.38 89.21 63.21 89.3"/>
              <polygon class="cls-24" points="63.19 89.27 62.99 89.27 62.86 89.19 62.86 89.08 62.99 89 63.19 89 63.32 89.08 63.32 89.19 63.19 89.27"/>
              <polygon class="cls-25" points="63.15 89.22 63.03 89.22 62.95 89.17 62.95 89.1 63.03 89.06 63.15 89.06 63.23 89.1 63.23 89.17 63.15 89.22"/>
              <polygon class="cls-5" points="63.12 89.26 63.06 89.26 63.01 89.23 63.01 89.2 63.06 89.17 63.12 89.17 63.16 89.2 63.16 89.23 63.12 89.26"/>
            </g>
            <g>
              <polygon class="cls-45" points="65.11 87.64 65.2 87.33 64.88 87.04 65.31 86.98 66.3 87 66.98 86.89 67.23 86.81 67.24 86.86 66.13 87.38 65.11 87.64"/>
              <polygon class="cls-46" points="65.11 87.64 65.05 87.34 64.88 87.04 65.3 86.93 66.29 86.95 67.23 86.81 66.12 87.34 65.11 87.64"/>
            </g>
            <g>
              <polygon class="cls-45" points="72.62 83.96 74.13 84.17 76.59 83.99 76.2 83.98 75.21 83.92 74.49 83.78 73.45 83.38 72.62 83.9 72.62 83.96"/>
              <polygon class="cls-46" points="74.13 84.11 72.62 83.9 72.62 83.89 72.75 83.81 73.45 83.31 74.49 83.72 76.59 83.99 74.13 84.11"/>
            </g>
          </g>
        </g>
        <g>
          <polygon class="cls-14" points="2.23 63.39 2.92 62.99 2.92 59.06 2.23 59.47 2.23 63.39"/>
          <g>
            <polygon class="cls-14" points="2.33 60.83 63.88 96.37 63.88 96.59 2.33 61.06 2.33 60.83"/>
            <polygon class="cls-27" points="2.47 60.6 64.02 96.14 63.88 96.37 2.33 60.83 2.47 60.6"/>
            <polygon class="cls-15" points="2.67 60.49 64.21 96.02 64.02 96.14 2.47 60.6 2.67 60.49"/>
            <polygon class="cls-4" points="64.35 96.32 64.35 96.1 64.21 96.02 64.02 96.14 63.88 96.37 63.88 96.59 64.02 96.67 64.21 96.56 64.35 96.32"/>
          </g>
          <polygon class="cls-15" points="63.42 94.3 64.11 93.91 3.15 58.7 2.45 59.11 63.42 94.3"/>
          <polygon class="cls-15" points="63.28 99.06 63.58 99.02 63.97 98.66 3.29 63.62 2.59 64.02 63.28 99.06"/>
          <path class="cls-16" d="M139.84,252.19v-3.93l.56-.32,61,35.2.56,1V288l-.56.33-61-35.21Zm61.75,35.49v-3.6l-.36-.63-60.69-35-.36.21v3.6l.36.63,60.69,35Z" transform="translate(-137.95 -188.83)"/>
          <rect class="cls-16" x="201.6" y="282.86" width="0.8" height="1.13" transform="matrix(0.87, -0.5, 0.5, 0.87, -252.78, -49.48)"/>
          <rect class="cls-27" x="140.31" y="251.97" width="0.8" height="0.73" transform="translate(-245.17 -84.83) rotate(-29.96)"/>
          <polygon class="cls-14" points="63.98 99.21 64.67 98.81 64.67 94.89 63.98 95.29 63.98 99.21"/>
        </g>
      </g>
      <g>
        <polygon class="cls-8" points="31.71 58.45 31.28 59.79 30.21 61.03 30.63 62.22 34.55 63.86 35.14 62.18 35.57 61.55 36.07 59.72 33.11 58.2 31.71 58.45"/>
        <polygon class="cls-8" points="38.99 56.16 38.75 58.04 38.3 58.25 38.24 59.38 36.44 61.83 35.57 61.55 35.39 59.94 35.21 58.7 37.23 55.78 38.99 56.16"/>
        <polygon class="cls-4" points="26.93 105.56 28.06 106.15 28.06 106.42 27.29 107.68 26.39 108.28 25.42 110.08 24.43 110.58 23.62 110.04 23.62 109.77 24.35 108.88 26.93 105.56"/>
        <polygon class="cls-4" points="30.66 108.72 36.05 108.13 37.62 107.91 37.62 108.18 37.05 109.45 34.86 110.25 32.41 110.25 30.84 110.78 29.5 110.57 29.02 109.21 29.02 108.94 30.66 108.72"/>
        <polygon class="cls-5" points="26.93 105.28 27.82 105.45 28.06 106.15 27.29 107.4 26.39 108.01 25.42 109.8 24.43 110.31 23.62 109.77 23.62 108.45 23.94 105.99 26.93 105.28"/>
        <polygon class="cls-2" points="27.95 61.14 26.28 60.74 24.21 62.35 23.29 65.39 21.22 70.34 22.01 72.42 25.52 74.18 28.77 64.69 27.95 61.14"/>
        <polygon class="cls-5" points="36.56 65.8 36.07 65.58 35.14 65.39 35.21 64.73 34.55 63.86 31.9 61.81 30.21 61.03 29.49 61.11 28.77 61.44 28.16 61.11 27.32 61.24 25.56 62.68 24.95 65.58 27.81 78.81 33.86 79.36 35.21 76.08 36.77 68.52 36.56 65.8"/>
        <polygon class="cls-6" points="22.84 83.19 23.72 94.34 22.71 98.9 23.62 106.74 25.07 107.46 27.19 105.99 27.03 101.89 27.31 96.68 28.24 94.34 29.33 85.87 22.84 83.19"/>
        <polygon class="cls-6" points="32.5 69.53 33.88 66.76 36.07 65.58 35.21 64.73 32.94 65.91 31.14 69.06 32.5 69.53"/>
        <polygon class="cls-6" points="26.42 67.2 27.48 63.71 29.49 61.11 28.16 61.11 26.41 63.06 25.18 66.49 26.42 67.2"/>
        <polygon class="cls-5" points="33.08 106.39 34.95 106.73 37.26 106.73 37.62 107.91 37.05 109.18 34.86 109.98 32.41 109.98 30.84 110.51 29.5 110.3 29.02 108.94 29.47 107.12 33.08 106.39"/>
        <polygon class="cls-10" points="24.73 64.42 28.27 67.57 33.42 69.51 32.73 75.1 32.62 78 33.67 78.47 34.36 77.64 34.69 88.73 34.12 96.88 33.11 103.42 33.58 106.4 31.88 107.91 28.9 107.42 28.72 99.64 29.54 95.97 27.9 87.18 23.68 84.94 22.84 83.19 23.41 78 24.79 74.3 24.73 64.42"/>
        <polygon class="cls-48" points="38.74 82.74 38.44 80.56 40.08 79.36 40.77 81.17 40.08 82.85 38.74 82.74"/>
        <polygon class="cls-2" points="36.56 65.8 34.69 67.21 34.27 69.64 34.3 71.08 33.57 77.47 35.02 80.37 40.39 83.03 41.12 82.15 40.95 81.2 37.48 76.89 37.92 71 38.55 68.35 37.8 66.64 36.56 65.8"/>
        <polygon class="cls-3" points="40.08 79.36 40.92 80.94 42.76 80.65 44.09 80.94 44.64 81.94 44.27 83.96 43.89 84.06 43.37 83.32 41.81 83.58 40.78 83.48 40.34 83.18 38.74 82.74 40.24 81.12 40.08 79.36"/>
        <polygon class="cls-4" points="31.9 55.78 31.67 58.39 32.12 58.96 34.36 60.07 35.39 59.94 36.29 58.48 37.03 57.68 37.48 57.69 37.64 58.29 37.95 58.06 38.24 56.58 35.45 55.19 31.9 55.78"/>
        <polygon class="cls-5" points="32.66 53.09 34.86 52 37.49 52.65 39.24 54.11 39.05 56.06 38.46 57.11 36.47 57.91 33.74 57.3 31.9 55.78 32.66 53.09"/>
      </g>
    </g>
  </g>
</svg>
